<svg xmlns="http://www.w3.org/2000/svg" xmlns:xlink="http://www.w3.org/1999/xlink" width="192" height="200" viewBox="0 0 192 200">
  <defs>
    <clipPath id="clip-path">
      <path id="Path_13939" data-name="Path 13939" d="M221.158,38.326s6.871,12.363,23.956,12.363a29.237,29.237,0,0,0,26.064-15.525c1.236-2.594-1.788-58.856-1.788-58.856H229.85Z" transform="translate(-221.158 23.692)"/>
    </clipPath>
  </defs>
  <g id="get-linked-illustration" transform="translate(-24.6 23.692)">
    <circle id="Ellipse_3" cx="6.79" cy="6.79" r="6.79" transform="translate(175.497 -19.255)" fill="#cae1e5"/>
    <path id="Path_13820" data-name="Path 13820" d="M234.483,294.464a88.139,88.139,0,0,1-37.35,72.153c-.545.385-1.09.77-1.635,1.135l-11.548.061-11.992.04-23.984.041-23.984-.041c-3.472-.02-6.945-.04-10.418-.04q-6.783-.03-13.567-.081c-.727,0-1.454-.02-2.16-.02-.525-.365-1.05-.709-1.575-1.094A88.186,88.186,0,0,1,58.9,294.464c0-48.683,39.308-88.164,87.822-88.164S234.483,245.761,234.483,294.464Z" transform="translate(-27.348 -191.586)" fill="#cae1e5"/>
    <path id="Path_13821" data-name="Path 13821" d="M451.971,456.466c-.081.02-6.648-16.012-14.674-35.813s-7.438-18.038-7.357-18.058-.405-1.844,7.621,17.957S452.053,456.425,451.971,456.466Z" transform="translate(-323.485 -348.253)" fill="#4e7b96"/>
    <path id="Path_13822" data-name="Path 13822" d="M537.323,672.55c-.04,0,.061-.507.162-1.439a12.031,12.031,0,0,0-.345-3.891,11.5,11.5,0,0,0-2.736-5.047,11.873,11.873,0,0,0-2.655-2.148,12.685,12.685,0,0,0-3.4-1.338,12.962,12.962,0,0,0-3.648-.2,11.607,11.607,0,0,0-3.3.811,11.772,11.772,0,0,0-4.581,3.425,12.257,12.257,0,0,0-1.946,3.385c-.3.871-.426,1.378-.466,1.378l.061-.365a9.8,9.8,0,0,1,.284-1.034,11.642,11.642,0,0,1,1.885-3.486,11.344,11.344,0,0,1,4.662-3.547,12.062,12.062,0,0,1,3.385-.871,11.685,11.685,0,0,1,7.236,1.581,10.911,10.911,0,0,1,2.7,2.209,12.259,12.259,0,0,1,1.8,2.615,12.824,12.824,0,0,1,.953,2.594,11.185,11.185,0,0,1,.263,3.932,8.785,8.785,0,0,1-.182,1.054A1.222,1.222,0,0,1,537.323,672.55Z" transform="translate(-390.93 -551.964)" fill="#4e7b96"/>
    <path id="Path_13823" data-name="Path 13823" d="M513.765,701.8c.041,0-.061.507-.162,1.439a12.031,12.031,0,0,0,.345,3.891,11.5,11.5,0,0,0,2.736,5.047,11.867,11.867,0,0,0,2.655,2.148,12.676,12.676,0,0,0,3.405,1.338,12.958,12.958,0,0,0,3.648.2,12.358,12.358,0,0,0,3.3-.831,11.951,11.951,0,0,0,2.655-1.54,11.29,11.29,0,0,0,1.925-1.885,11.5,11.5,0,0,0,1.946-3.385c.3-.871.426-1.378.466-1.378l-.061.365a9.82,9.82,0,0,1-.284,1.034,11.641,11.641,0,0,1-1.885,3.486,11.055,11.055,0,0,1-1.946,1.946,12.6,12.6,0,0,1-2.716,1.6,12.058,12.058,0,0,1-3.385.871,11.683,11.683,0,0,1-7.236-1.581,10.9,10.9,0,0,1-2.7-2.209,12.642,12.642,0,0,1-1.8-2.594,13.282,13.282,0,0,1-.953-2.594,10.828,10.828,0,0,1-.243-3.952,8.818,8.818,0,0,1,.182-1.054A.827.827,0,0,1,513.765,701.8Z" transform="translate(-390.132 -586.767)" fill="#4e7b96"/>
    <path id="Path_13824" data-name="Path 13824" d="M610.3,589.722c-.061-.061,4.256-4.56,9.627-10.073s11.188-11.512,11.249-11.451-5.655,6.161-11.026,11.654S610.358,589.783,610.3,589.722Z" transform="translate(-467.463 -480.295)" fill="#4e7b96"/>
    <g id="freepik--character-3--inject-71" transform="translate(153.502 35.495)">
      <path id="Path_13825" data-name="Path 13825" d="M720.182,338.225s0-.162-.02-.446,0-.75-.061-1.338a27.217,27.217,0,0,0-1.966-8.573,29.781,29.781,0,0,0-1.946-3.952,27.971,27.971,0,0,0-18.89-13.154,28.41,28.41,0,0,0-10.944.122,26.438,26.438,0,0,0-3.75,1.074,28.063,28.063,0,0,0-12.992,9.749,26.3,26.3,0,0,0-2.27,3.668,27.127,27.127,0,0,0-1.723,4.033,27.915,27.915,0,0,0,0,17.633c.223.709.507,1.378.77,2.067.284.669.588,1.338.932,1.986a27.918,27.918,0,0,0,15.261,13.4,30,30,0,0,0,3.729,1.054,28.408,28.408,0,0,0,10.944.122,28.016,28.016,0,0,0,18.89-13.154,25.527,25.527,0,0,0,1.946-3.952,27.748,27.748,0,0,0,1.946-8.573c.061-.588.04-1.034.061-1.338l.02-.446s0,.608-.041,1.784a28.615,28.615,0,0,1-.77,5.067A28.082,28.082,0,0,1,697.28,365.85a28.829,28.829,0,0,1-11.026-.122,30.7,30.7,0,0,1-3.77-1.074,28.2,28.2,0,0,1-13.073-9.81,25.383,25.383,0,0,1-2.27-3.689c-.345-.648-.648-1.317-.952-2.006a19.865,19.865,0,0,1-.77-2.088,28.008,28.008,0,0,1,0-17.754,27.575,27.575,0,0,1,1.723-4.074,28.712,28.712,0,0,1,2.29-3.689,28.256,28.256,0,0,1,13.093-9.81,30.711,30.711,0,0,1,3.77-1.074,28.828,28.828,0,0,1,11.026-.122,28.029,28.029,0,0,1,18.95,13.275,28.587,28.587,0,0,1,1.946,3.952,27.368,27.368,0,0,1,1.905,8.614C720.2,337.617,720.182,338.225,720.182,338.225Z" transform="translate(-663.975 -310.066)" fill="#3c97d3"/>
      <circle id="Ellipse_364" data-name="Ellipse 364" cx="24.929" cy="24.929" r="24.929" transform="translate(3.248 3.473)" fill="#3c97d3"/>
    </g>
    <g id="freepik--character-3--inject-71-2" transform="translate(61.146 -12.48)">
      <path id="Path_13826" data-name="Path 13826" d="M272.4,107.543s0-.182-.02-.547,0-.892-.061-1.581a33.028,33.028,0,0,0-2.31-10.154A32.174,32.174,0,0,0,267.7,90.6a33.623,33.623,0,0,0-8.411-9.4,32.79,32.79,0,0,0-13.944-6.161,33.265,33.265,0,0,0-12.971.162,36.653,36.653,0,0,0-4.418,1.257,33.14,33.14,0,0,0-18.079,15.87,31.934,31.934,0,0,0-2.027,4.783,33.129,33.129,0,0,0,0,20.876c.263.831.588,1.642.912,2.452a20.739,20.739,0,0,0,1.115,2.351,33.107,33.107,0,0,0,18.079,15.87,36.653,36.653,0,0,0,4.418,1.257,33.658,33.658,0,0,0,12.971.162A33.114,33.114,0,0,0,267.7,124.507a32.173,32.173,0,0,0,2.311-4.662,33.028,33.028,0,0,0,2.31-10.154c.061-.689.041-1.216.061-1.581s.02-.547.02-.568c0,.02,0,.75-.061,2.128a33.123,33.123,0,0,1-27,30.6,34.075,34.075,0,0,1-13.052-.142,37.289,37.289,0,0,1-4.459-1.257,33.285,33.285,0,0,1-15.484-11.613,32.231,32.231,0,0,1-2.716-4.378c-.405-.77-.75-1.561-1.115-2.371a25.711,25.711,0,0,1-.912-2.473A33.347,33.347,0,0,1,207.6,97a29.707,29.707,0,0,1,2.047-4.824,34.939,34.939,0,0,1,2.716-4.378A33.489,33.489,0,0,1,227.85,76.189a33.682,33.682,0,0,1,17.511-1.4A33.395,33.395,0,0,1,270.108,95.2a32.178,32.178,0,0,1,2.25,10.195C272.419,106.813,272.4,107.543,272.4,107.543Z" transform="translate(-205.9 -74.228)" fill="#4e7b96"/>
      <circle id="Ellipse_365" data-name="Ellipse 365" cx="29.53" cy="29.53" r="29.53" transform="translate(3.77 4.088)" fill="#4e7b96"/>
    </g>
    <path id="Path_13827" data-name="Path 13827" d="M234.3,500.4l-3.466,26.571a7.983,7.983,0,0,0,6.891,8.938h0a2.264,2.264,0,0,0,.385.04h0a7.988,7.988,0,0,0,8.553-6.932c.263-2.007.486-3.669.507-3.871,0,0,6.85.243,8.208-6.384.669-3.2,1.48-9.911,2.148-15.991a12.626,12.626,0,0,0-10.154-13.762l-.649-.122C239.732,487.957,235.03,493.389,234.3,500.4Z" transform="translate(-164.555 -416.977)" fill="#ffbe9d"/>
    <path id="Path_13828" data-name="Path 13828" d="M279.688,651.455A15.765,15.765,0,0,1,271.5,647.3s1.135,5.168,7.884,5.857Z" transform="translate(-197.045 -543.352)" fill="#eb996e"/>
    <path id="Path_13829" data-name="Path 13829" d="M345.958,572.087a.97.97,0,0,1-1.094.77.925.925,0,1,1,.3-1.824A.933.933,0,0,1,345.958,572.087Z" transform="translate(-254.95 -482.568)" fill="#263238"/>
    <path id="Path_13830" data-name="Path 13830" d="M338.959,564.936c-.142.1-.75-.588-1.784-.77s-1.865.162-1.946,0,.122-.264.486-.446a2.554,2.554,0,0,1,1.6-.162,2.477,2.477,0,0,1,1.378.77C338.959,564.652,339.02,564.9,338.959,564.936Z" transform="translate(-247.887 -476.575)" fill="#263238"/>
    <path id="Path_13831" data-name="Path 13831" d="M295.1,564.987a.994.994,0,0,1-1.115.79.932.932,0,0,1-.811-1.034v-.02a.97.97,0,0,1,1.094-.77.943.943,0,0,1,.831,1.013Z" transform="translate(-214.33 -476.93)" fill="#263238"/>
    <path id="Path_13832" data-name="Path 13832" d="M288.453,557.036c-.142.1-.77-.588-1.784-.77s-1.865.162-1.966,0,.122-.264.486-.446a2.693,2.693,0,0,1,3,.608C288.453,556.752,288.514,557,288.453,557.036Z" transform="translate(-207.558 -470.28)" fill="#263238"/>
    <path id="Path_13833" data-name="Path 13833" d="M314,570.833a6.133,6.133,0,0,1,1.723,0c.264,0,.527,0,.588-.162a1.382,1.382,0,0,0,0-.811l-.385-2.128a34.739,34.739,0,0,1-.73-5.533,36.682,36.682,0,0,1,1.2,5.452c.122.75.243,1.459.345,2.148a1.575,1.575,0,0,1-.061,1.054.678.678,0,0,1-.507.3,1.643,1.643,0,0,1-.446,0A7,7,0,0,1,314,570.833Z" transform="translate(-230.957 -475.533)" fill="#263238"/>
    <path id="Path_13834" data-name="Path 13834" d="M288,547.7c-.162.263-1.155-.061-2.371-.162s-2.25.061-2.371-.223c-.061-.142.162-.365.588-.547a4.154,4.154,0,0,1,3.628.284C287.9,547.312,288.085,547.555,288,547.7Z" transform="translate(-206.42 -463.012)" fill="#263238"/>
    <path id="Path_13835" data-name="Path 13835" d="M342.5,546.547c-.223.2-.892-.182-1.723-.365s-1.6-.142-1.7-.405c-.041-.142.1-.345.466-.507a2.538,2.538,0,0,1,2.777.588C342.539,546.182,342.6,546.445,342.5,546.547Z" transform="translate(-250.962 -461.903)" fill="#263238"/>
    <path id="Path_13836" data-name="Path 13836" d="M226.046,568.665c-.1-.061-4.317-2.229-5.047,2.331s4.013,4.358,4.033,4.236S226.046,568.665,226.046,568.665Z" transform="translate(-156.679 -480.235)" fill="#ffbe9d"/>
    <path id="Path_13837" data-name="Path 13837" d="M228.529,578.87a1.558,1.558,0,0,1-.223.081.738.738,0,0,1-.588-.081,1.916,1.916,0,0,1-.628-1.905,2.566,2.566,0,0,1,.405-1.115.89.89,0,0,1,.689-.507.386.386,0,0,1,.426.284.494.494,0,0,1,0,.243c0,.02.1-.061.1-.263a.522.522,0,0,0-.142-.324.675.675,0,0,0-.426-.182,1.164,1.164,0,0,0-.953.588,2.736,2.736,0,0,0-.486,1.236,2.108,2.108,0,0,0,.851,2.169.963.963,0,0,0,.75,0C228.488,578.971,228.549,578.87,228.529,578.87Z" transform="translate(-161.271 -485.819)" fill="#eb996e"/>
    <path id="Path_13838" data-name="Path 13838" d="M233.728,500.807a2.4,2.4,0,0,1,1.966,1.54c.182.709.1,1.459.263,2.148s.73,1.419,1.439,1.4a1.45,1.45,0,0,0,1.155-.851,4.466,4.466,0,0,0,.3-1.459c.142-2.169.1-4.378.426-6.546a11.1,11.1,0,0,1,2.533-5.938,6.133,6.133,0,0,1,5.9-1.966c1.4.385,2.533,1.378,3.912,1.844a5.675,5.675,0,0,0,4.9-.649,1.508,1.508,0,0,1,.243-.142,1.252,1.252,0,0,0,.709-1.338,1.015,1.015,0,0,0-.182-.486c-2.29-3.081-7.175-4.763-11.026-4.54a13.547,13.547,0,0,0-10.053,5.29c-2.25,3.142-2.7,8.046-2.493,11.695" transform="translate(-166.879 -413.045)" fill="#263238"/>
    <path id="Path_13839" data-name="Path 13839" d="M319.2,645.4a2.871,2.871,0,0,1-.568,1.236,6.832,6.832,0,0,1-2.493,2.128,11.932,11.932,0,0,1-3.1,1.054,4.326,4.326,0,0,1-1.338.162,7.328,7.328,0,0,1,1.3-.385,14.437,14.437,0,0,0,3-1.115,7.792,7.792,0,0,0,2.452-1.986C318.956,645.864,319.159,645.377,319.2,645.4Z" transform="translate(-229.127 -541.837)" fill="#eb996e"/>
    <path id="Path_13840" data-name="Path 13840" d="M299.5,616.7s4.418,2.716,6.749,1.4C304.729,619.355,301.648,619.416,299.5,616.7Z" transform="translate(-219.389 -518.972)" fill="#263238"/>
    <path id="Path_13841" data-name="Path 13841" d="M235.286,488.455c0,.1-.02.182-.02.284-.1,4.074,1.905,8.979,1.905,8.979,3.02.182,2.554-5.574,2.554-5.574,3.79-1.277,2.635-6.911,3.608-7.722s3-2.7,10.62,1.621a15.044,15.044,0,0,0,9.2,1.4.891.891,0,0,0,.2-.041h.041c.02,0,.041-.02.061-.02a6.651,6.651,0,0,0,2.027-.77,3.819,3.819,0,0,0,1.723-1.763,2.162,2.162,0,0,0-.324-2.331,4.7,4.7,0,0,0,1.216-2.452,2.713,2.713,0,0,0-.912-2.493,1.962,1.962,0,0,0-2.533.081,2.275,2.275,0,0,0-1.824-2.837c-1.216-.122-2.27.75-3.466,1.013a5.483,5.483,0,0,1-3.446-.547c-1.074-.486-2.088-1.135-3.182-1.6a9.56,9.56,0,0,0-7.215-.02c-2.29.932-4.074,1.885-5.047,4.155-1.6-.568-3.466.507-4.621,1.763,0,0-1.642,1.378-1.135,5.067C235.164,487.948,235.286,488.455,235.286,488.455Z" transform="translate(-167.638 -404.404)" fill="#1a2e35"/>
    <path id="Path_13842" data-name="Path 13842" d="M684.441,366.319l20.592-4.885a.7.7,0,0,1,.831.507l6.85,28.8a.7.7,0,0,1-.507.831l-20.592,4.884a.7.7,0,0,1-.831-.507l-6.85-28.8A.687.687,0,0,1,684.441,366.319Z" transform="translate(-526.248 -315.511)" fill="#4e7b96"/>
    <rect id="Rectangle_1028" data-name="Rectangle 1028" width="20.024" height="28.841" transform="matrix(0.973, -0.231, 0.231, 0.973, 158.923, 51.313)" fill="#ebebeb"/>
    <path id="Path_13843" data-name="Path 13843" d="M718.4,364.089l8.472-2.007-.365-.426a2.436,2.436,0,0,0-2.412-.831l-.426.1-.3-1.236a1.692,1.692,0,0,0-2.027-1.257h0a1.692,1.692,0,0,0-1.256,2.027l.263,1.2a2.459,2.459,0,0,0-1.824,1.824Zm2.412-3.79h0a.907.907,0,1,1,1.095.669.923.923,0,0,1-1.095-.669c.02,0,.02-.02,0,0Z" transform="translate(-553.706 -313.128)" fill="#263238"/>
    <path id="Path_13844" data-name="Path 13844" d="M755.2,388.457c.892-.142,1.784-.324,2.655-.547a24.08,24.08,0,0,0,2.635-.709c-.892.142-1.784.324-2.655.547A25.39,25.39,0,0,0,755.2,388.457Z" transform="translate(-583.065 -336.087)" fill="#263238"/>
    <path id="Path_13845" data-name="Path 13845" d="M769.8,392.188a5.6,5.6,0,0,0,1.3-.223,6.855,6.855,0,0,0,1.257-.365,5.606,5.606,0,0,0-1.3.223A6.844,6.844,0,0,0,769.8,392.188Z" transform="translate(-594.709 -339.594)" fill="#263238"/>
    <path id="Path_13846" data-name="Path 13846" d="M711.5,407.58c0,.04,3.3-.709,7.378-1.662s7.337-1.784,7.337-1.824-3.3.709-7.377,1.662S711.479,407.539,711.5,407.58Z" transform="translate(-548.217 -349.547)" fill="#263238"/>
    <path id="Path_13847" data-name="Path 13847" d="M713.1,414.48c0,.041,3.3-.709,7.378-1.662s7.337-1.784,7.337-1.824-3.3.709-7.377,1.662S713.079,414.439,713.1,414.48Z" transform="translate(-549.493 -355.045)" fill="#263238"/>
    <path id="Path_13848" data-name="Path 13848" d="M714.7,421.48c0,.041,3.3-.709,7.377-1.662s7.337-1.784,7.337-1.824-3.3.709-7.377,1.662S714.7,421.439,714.7,421.48Z" transform="translate(-550.771 -360.623)" fill="#263238"/>
    <path id="Path_13849" data-name="Path 13849" d="M716.4,428.38c0,.041,3.3-.709,7.377-1.662s7.337-1.784,7.337-1.824-3.3.709-7.377,1.682S716.379,428.339,716.4,428.38Z" transform="translate(-552.127 -366.122)" fill="#263238"/>
    <path id="Path_13850" data-name="Path 13850" d="M718,435.28c0,.041,3.3-.709,7.378-1.662s7.337-1.784,7.337-1.824-3.3.709-7.377,1.662S718,435.239,718,435.28Z" transform="translate(-553.405 -371.62)" fill="#263238"/>
    <path id="Path_13851" data-name="Path 13851" d="M719.7,442.18c0,.041,3.3-.709,7.378-1.662s7.337-1.784,7.337-1.824-3.3.709-7.377,1.662S719.679,442.139,719.7,442.18Z" transform="translate(-554.761 -377.119)" fill="#263238"/>
    <path id="Path_13852" data-name="Path 13852" d="M721.2,448.48c0,.04,3.3-.709,7.378-1.662s7.337-1.784,7.337-1.824-3.3.709-7.377,1.662S721.2,448.439,721.2,448.48Z" transform="translate(-555.958 -382.139)" fill="#263238"/>
    <path id="Path_13853" data-name="Path 13853" d="M722.8,454.78c0,.041,3.3-.709,7.377-1.662s7.337-1.783,7.337-1.824-3.3.709-7.377,1.662S722.8,454.739,722.8,454.78Z" transform="translate(-557.236 -387.16)" fill="#263238"/>
    <path id="Path_13854" data-name="Path 13854" d="M724.4,461.08c0,.04,3.3-.709,7.377-1.662s7.337-1.784,7.337-1.824-3.3.709-7.377,1.662S724.4,461.039,724.4,461.08Z" transform="translate(-558.513 -392.18)" fill="#263238"/>
    <path id="Path_13855" data-name="Path 13855" d="M726,467.28c0,.041,3.3-.709,7.377-1.662s7.337-1.784,7.337-1.824-3.3.709-7.377,1.662S726,467.26,726,467.28Z" transform="translate(-559.789 -397.121)" fill="#263238"/>
    <path id="Path_13856" data-name="Path 13856" d="M727.6,473.58c0,.04,3.3-.709,7.377-1.662s7.337-1.784,7.337-1.824-3.3.709-7.377,1.662S727.6,473.539,727.6,473.58Z" transform="translate(-561.066 -402.141)" fill="#263238"/>
    <path id="Path_13857" data-name="Path 13857" d="M729.2,479.88c0,.041,3.3-.709,7.377-1.662s7.337-1.784,7.337-1.824-3.3.709-7.377,1.662S729.2,479.839,729.2,479.88Z" transform="translate(-562.343 -407.161)" fill="#263238"/>
    <path id="Path_13858" data-name="Path 13858" d="M730.8,486.18c0,.041,3.3-.709,7.377-1.662s7.337-1.784,7.337-1.824-3.3.709-7.377,1.662S730.8,486.139,730.8,486.18Z" transform="translate(-563.62 -412.182)" fill="#263238"/>
    <path id="Path_13859" data-name="Path 13859" d="M732.4,492.38c0,.04,3.3-.709,7.377-1.662s7.337-1.784,7.337-1.824-3.3.709-7.377,1.662S732.4,492.36,732.4,492.38Z" transform="translate(-564.897 -417.122)" fill="#263238"/>
    <path id="Path_13860" data-name="Path 13860" d="M704.2,402.568a10.211,10.211,0,0,0,2.351-.568A10.474,10.474,0,0,0,704.2,402.568Z" transform="translate(-542.356 -347.882)" fill="#263238"/>
    <path id="Path_13861" data-name="Path 13861" d="M757.715,369.479l7.844-33.077a.791.791,0,0,1,.953-.588l23.652,5.614a.791.791,0,0,1,.588.953l-7.844,33.077a.791.791,0,0,1-.953.588L758.3,370.432A.791.791,0,0,1,757.715,369.479Z" transform="translate(-585.197 -295.088)" fill="#78aa41"/>
    <rect id="Rectangle_1029" data-name="Rectangle 1029" width="33.117" height="23.004" transform="matrix(0.231, -0.973, 0.973, 0.231, 174.137, 73.846)" fill="#ebebeb"/>
    <path id="Path_13862" data-name="Path 13862" d="M842.887,338.191A2.809,2.809,0,0,0,840.8,336.1l.3-1.378a1.947,1.947,0,0,0-1.439-2.331h0a1.932,1.932,0,0,0-2.331,1.439h0l-.344,1.419-.486-.1a2.826,2.826,0,0,0-2.777.953l-.426.507,9.728,2.31Zm-3.871-2.878a1.042,1.042,0,1,1,1.257-.77h0A1.072,1.072,0,0,1,839.015,335.313Z" transform="translate(-645.48 -292.368)" fill="#263238"/>
    <path id="Path_13863" data-name="Path 13863" d="M815.16,366.939a29.917,29.917,0,0,1-3.04-.628c-1.013-.223-2.027-.486-3.02-.811,1.034.162,2.047.365,3.06.628A26.241,26.241,0,0,1,815.16,366.939Z" transform="translate(-626.185 -318.795)" fill="#263238"/>
    <path id="Path_13864" data-name="Path 13864" d="M810.819,371.189a6.129,6.129,0,0,1-1.48-.264,7.311,7.311,0,0,1-1.439-.426,13.5,13.5,0,0,1,2.919.689Z" transform="translate(-625.228 -322.78)" fill="#263238"/>
    <path id="Path_13865" data-name="Path 13865" d="M822.9,388.9c0,.04-3.81-.811-8.472-1.925S806,384.949,806,384.888s3.81.811,8.472,1.925S822.9,388.861,822.9,388.9Z" transform="translate(-623.713 -334.241)" fill="#263238"/>
    <path id="Path_13866" data-name="Path 13866" d="M821,396.808c0,.04-3.81-.811-8.472-1.925s-8.431-2.047-8.431-2.088,3.81.811,8.472,1.925S821,396.767,821,396.808Z" transform="translate(-622.198 -340.542)" fill="#263238"/>
    <path id="Path_13867" data-name="Path 13867" d="M819.1,404.808c0,.04-3.81-.811-8.472-1.925s-8.431-2.047-8.431-2.088,3.81.811,8.472,1.925S819.1,404.767,819.1,404.808Z" transform="translate(-620.683 -346.917)" fill="#263238"/>
    <path id="Path_13868" data-name="Path 13868" d="M817.2,412.708c0,.041-3.81-.811-8.472-1.925s-8.431-2.047-8.431-2.088,3.81.811,8.472,1.925S817.224,412.667,817.2,412.708Z" transform="translate(-619.168 -353.213)" fill="#263238"/>
    <path id="Path_13869" data-name="Path 13869" d="M815.3,420.708c0,.041-3.81-.811-8.472-1.925s-8.431-2.047-8.431-2.088,3.81.811,8.472,1.925S815.323,420.667,815.3,420.708Z" transform="translate(-617.654 -359.588)" fill="#263238"/>
    <path id="Path_13870" data-name="Path 13870" d="M813.4,428.708c0,.04-3.81-.811-8.472-1.925s-8.431-2.047-8.431-2.088,3.81.811,8.472,1.925S813.424,428.647,813.4,428.708Z" transform="translate(-616.139 -365.963)" fill="#263238"/>
    <path id="Path_13871" data-name="Path 13871" d="M811.6,435.908c0,.04-3.81-.811-8.472-1.925s-8.431-2.047-8.431-2.088,3.81.811,8.472,1.925S811.623,435.847,811.6,435.908Z" transform="translate(-614.703 -371.7)" fill="#263238"/>
    <path id="Path_13872" data-name="Path 13872" d="M809.8,443.108c0,.041-3.81-.811-8.472-1.925s-8.431-2.047-8.431-2.088,3.81.811,8.472,1.925S809.8,443.047,809.8,443.108Z" transform="translate(-613.268 -377.438)" fill="#263238"/>
    <path id="Path_13873" data-name="Path 13873" d="M807.9,450.308c0,.04-3.81-.811-8.472-1.925S791,446.335,791,446.295s3.81.811,8.472,1.925S807.924,450.267,807.9,450.308Z" transform="translate(-611.753 -383.175)" fill="#263238"/>
    <path id="Path_13874" data-name="Path 13874" d="M806.1,457.508c0,.04-3.81-.811-8.472-1.925s-8.431-2.047-8.431-2.088,3.81.811,8.472,1.925S806.124,457.467,806.1,457.508Z" transform="translate(-610.318 -388.913)" fill="#263238"/>
    <path id="Path_13875" data-name="Path 13875" d="M804.3,464.708c0,.041-3.81-.811-8.472-1.925s-8.431-2.047-8.431-2.088,3.81.811,8.472,1.925S804.3,464.667,804.3,464.708Z" transform="translate(-608.883 -394.65)" fill="#263238"/>
    <path id="Path_13876" data-name="Path 13876" d="M802.5,471.908c0,.041-3.81-.811-8.472-1.925s-8.431-2.047-8.431-2.088,3.81.811,8.472,1.925S802.5,471.867,802.5,471.908Z" transform="translate(-607.448 -400.388)" fill="#263238"/>
    <path id="Path_13877" data-name="Path 13877" d="M800.6,479.108c0,.041-3.81-.811-8.472-1.925s-8.431-2.047-8.431-2.088,3.81.811,8.472,1.925S800.624,479.067,800.6,479.108Z" transform="translate(-605.933 -406.126)" fill="#263238"/>
    <path id="Path_13878" data-name="Path 13878" d="M798.8,486.308c0,.04-3.81-.811-8.472-1.925s-8.431-2.047-8.431-2.088,3.81.811,8.472,1.925S798.8,486.267,798.8,486.308Z" transform="translate(-604.498 -411.863)" fill="#263238"/>
    <path id="Path_13879" data-name="Path 13879" d="M887.016,383.149a5.321,5.321,0,0,1-1.378-.243,6.012,6.012,0,0,1-1.338-.405A11.3,11.3,0,0,1,887.016,383.149Z" transform="translate(-686.144 -332.342)" fill="#263238"/>
    <g id="freepik--Character--inject-54" transform="translate(46.185 102.858)">
      <path id="Path_13880" data-name="Path 13880" d="M558.05,696.256l-5.553,9.2-2.8,2.858,1.378-6.465,4.641-7.094a1.37,1.37,0,0,1,1.885-.405h0A1.383,1.383,0,0,1,558.05,696.256Z" transform="translate(-464.86 -683.406)" fill="#263238"/>
      <path id="Path_13881" data-name="Path 13881" d="M463,740.7c.365-.142,9.546-8.735,9.546-9.424s-.77-2.27,1.155-3.729,3.851-3.081,3.851-3.081l4.094-5.857s1.743-.1.993,2.088a22.86,22.86,0,0,1-1.581,3.527c-.324.628.588.77.588.77l5.634-8.593a8.4,8.4,0,0,1-.04,4.479l-.507,1.865a3.07,3.07,0,0,1,.385,3.466c-.993,2.047-2.006,6.749-4.6,7.9s-4.378,2.088-4.378,2.088l-11.086,12.08Z" transform="translate(-395.732 -701.159)" fill="#ffbe9d"/>
      <path id="Path_13882" data-name="Path 13882" d="M569.859,744a11.746,11.746,0,0,1-1.257,2.412,12.652,12.652,0,0,1-1.52,2.25,13.129,13.129,0,0,1,1.257-2.412A11.491,11.491,0,0,1,569.859,744Z" transform="translate(-478.715 -723.16)" fill="#eb996e"/>
      <path id="Path_13883" data-name="Path 13883" d="M223.9,648.334l2.351-7.134,15.525,7.175-.709,7.56-7.742,2.189-7.58-4.641Z" transform="translate(-205.092 -641.2)" fill="#78aa41"/>
      <path id="Path_13884" data-name="Path 13884" d="M171.331,695.8v41.488q-6.81-.03-13.62-.081c-.73,0-1.459-.02-2.169-.02-4.378-.041-8.776-.061-13.154-.1h-.324l-.02.02a.02.02,0,0,1,.02-.02c-.628,0-1.257,0-1.885-.02l-6.526-.061-2.554-.041c.02-.223.02-.446.041-.648.365-6.709.79-14.41,1.257-21.828.73-11.9,1.5-23.085,2.108-28.456,1.236-10.864,11.735-14.836,15.768-15.951h0c.973-.263,1.581-.385,1.581-.385l8.046,1.966.081.02,4.8,1.176.122.02v.993a22.564,22.564,0,0,1,2.331,3.668A41.892,41.892,0,0,1,171.331,695.8Z" transform="translate(-131.1 -663.924)" fill="#78aa41"/>
      <path id="Path_13885" data-name="Path 13885" d="M187.675,988.1a4.035,4.035,0,0,1-.486.669c-.263.324-.628.77-1.074,1.3-.122.142-.243.264-.365.405l-.426.486H185c.2-.223.385-.426.568-.628l.243-.264,1.257-1.378A5.436,5.436,0,0,1,187.675,988.1Z" transform="translate(-174.076 -917.792)" fill="#263238"/>
      <g id="Group_580" data-name="Group 580" transform="translate(9.039 71.545)" opacity="0.2">
        <path id="Path_13886" data-name="Path 13886" d="M177.909,994.93a3.627,3.627,0,0,1-.324.892c-.628,0-1.257,0-1.885-.02.385-.3.79-.588,1.2-.851.345-.243.709-.507,1.074-.75A2.8,2.8,0,0,1,177.909,994.93Z" transform="translate(-175.7 -994.2)"/>
      </g>
      <path id="Path_13887" data-name="Path 13887" d="M247.5,654.654a14.945,14.945,0,0,1,1.257-4.054,7.158,7.158,0,0,1-.486,2.067A7.913,7.913,0,0,1,247.5,654.654Z" transform="translate(-223.908 -648.695)" fill="#263238"/>
      <path id="Path_13888" data-name="Path 13888" d="M273.892,660.6a7.188,7.188,0,0,1-.3,2.067,7.478,7.478,0,0,1-.588,1.986,6.487,6.487,0,0,1,.324-2.067A6.2,6.2,0,0,1,273.892,660.6Z" transform="translate(-244.24 -656.668)" fill="#263238"/>
      <path id="Path_13889" data-name="Path 13889" d="M144.2,843.666c.73-.061,1.48-.1,2.209-.142l2.209-.1c1.48-.061,2.939-.122,4.418-.162s2.939-.061,4.418-.061h2.209c.73,0,1.48,0,2.209.04-.73.061-1.48.1-2.209.142l-2.209.1c-1.48.061-2.939.122-4.418.162s-2.939.061-4.418.061h-2.209C145.68,843.686,144.93,843.686,144.2,843.666Z" transform="translate(-141.545 -802.259)" fill="#fff"/>
      <path id="Path_13890" data-name="Path 13890" d="M144.2,856.766c.73-.061,1.48-.1,2.209-.142l2.209-.1c1.48-.061,2.939-.121,4.418-.162s2.939-.061,4.418-.061h2.209c.73,0,1.48,0,2.209.041-.73.061-1.48.1-2.209.142l-2.209.1c-1.48.061-2.939.122-4.418.162s-2.939.061-4.418.061h-2.209C145.68,856.787,144.93,856.807,144.2,856.766Z" transform="translate(-141.545 -812.704)" fill="#fff"/>
      <path id="Path_13891" data-name="Path 13891" d="M297.507,671.7a8.185,8.185,0,0,1-.162,1.865,8.27,8.27,0,0,1-.263,1.865,4.317,4.317,0,0,1,0-1.905A4.713,4.713,0,0,1,297.507,671.7Z" transform="translate(-263.356 -665.518)" fill="#263238"/>
      <g id="Group_581" data-name="Group 581" transform="translate(9.526 31.638)" opacity="0.2">
        <path id="Path_13892" data-name="Path 13892" d="M178.1,797.3a161.355,161.355,0,0,0,17.329,28.821c1.743,2.371,3.608,4.763,6.121,6.242s4.155,1.094,6.688-.426a15.923,15.923,0,0,1-5.938-2.9,28.6,28.6,0,0,1-6-6.4c-5.938-8.168-11.735-16.6-17.694-24.767Z" transform="translate(-178.1 -797.3)"/>
      </g>
      <path id="Path_13893" data-name="Path 13893" d="M171.148,715.137a10.791,10.791,0,0,0-2.675,15.018h0c.081.122.162.223.243.345l21.707,28.6a16.28,16.28,0,0,0,20.065,4.7h0c5.857-2.878,7.884-6.04,14.694-12.343l15.809-14.572-5.837-7.621-30.928,14.187-18.079-25.7A10.79,10.79,0,0,0,171.148,715.137Z" transform="translate(-159.352 -698.598)" fill="#78aa41"/>
      <path id="Path_13894" data-name="Path 13894" d="M207.235,762.59a1.565,1.565,0,0,0-.3.041l-.912.1c-.811.061-2.007.182-3.567.2a17,17,0,0,1-5.533-.77,15.674,15.674,0,0,1-6.121-4.155,77.963,77.963,0,0,1-5.736-6.911c-1.946-2.574-3.993-5.351-6.121-8.289s-4.317-6.04-6.587-9.283l-3.425-4.945c-.284-.426-.588-.851-.871-1.277l-.426-.649a4.485,4.485,0,0,1-.365-.689,10.608,10.608,0,0,1-.973-3,10.33,10.33,0,0,1-.061-3.162,9.866,9.866,0,0,1,.3-1.541,11.307,11.307,0,0,1,.527-1.459,10.786,10.786,0,0,1,.709-1.358,13.894,13.894,0,0,1,.912-1.236,11.144,11.144,0,0,1,2.229-2.027,12,12,0,0,1,2.655-1.317,10.578,10.578,0,0,1,2.858-.507,10.845,10.845,0,0,1,5.452,1.2,11.137,11.137,0,0,1,3.993,3.526c.993,1.419,1.946,2.8,2.858,4.114l5.107,7.377,7.377,10.7,2.007,2.919c.223.324.385.588.507.77l.162.263c-.061-.081-.142-.162-.2-.243l-.527-.75-2.006-2.878-7.5-10.641-5.128-7.357-2.858-4.094a10.74,10.74,0,0,0-3.891-3.425,10.627,10.627,0,0,0-8.107-.588,12.349,12.349,0,0,0-2.594,1.277,10.6,10.6,0,0,0-3.06,3.162,10.422,10.422,0,0,0-.689,1.338,11.952,11.952,0,0,0-.527,1.419,12.245,12.245,0,0,0-.284,1.5,10.534,10.534,0,0,0,1.013,5.938,23.081,23.081,0,0,0,1.621,2.594l3.446,4.945c2.25,3.243,4.459,6.344,6.567,9.282s4.155,5.736,6.1,8.31a80.8,80.8,0,0,0,5.7,6.932,15.622,15.622,0,0,0,6,4.155,17.341,17.341,0,0,0,5.493.811c1.54,0,2.716-.1,3.527-.142l.912-.061A.6.6,0,0,1,207.235,762.59Z" transform="translate(-159.039 -696.335)" fill="#263238"/>
      <path id="Path_13895" data-name="Path 13895" d="M352.8,869.8a12.642,12.642,0,0,0-1.5-9.4,4.086,4.086,0,0,1,.831,1.2,10.1,10.1,0,0,1,1.135,3.324,10.717,10.717,0,0,1-.041,3.506A4.186,4.186,0,0,1,352.8,869.8Z" transform="translate(-306.671 -815.973)" fill="#263238"/>
    </g>
    <path id="Path_13896" data-name="Path 13896" d="M191.1,759.916c.567-.466,1.155-.912,1.743-1.358l1.763-1.338c1.176-.892,2.371-1.743,3.567-2.615s2.392-1.7,3.608-2.534l1.824-1.256c.608-.405,1.236-.811,1.844-1.216-.567.466-1.155.912-1.743,1.358l-1.763,1.317c-1.176.892-2.371,1.743-3.567,2.615s-2.392,1.7-3.608,2.534l-1.824,1.257C192.336,759.106,191.728,759.511,191.1,759.916Z" transform="translate(-132.884 -624.864)" fill="#fff"/>
    <path id="Path_13897" data-name="Path 13897" d="M199.6,770.1c.567-.466,1.155-.912,1.743-1.358l1.763-1.317c1.176-.892,2.371-1.743,3.567-2.615s2.392-1.7,3.608-2.533l1.824-1.257c.608-.405,1.216-.811,1.844-1.216-.567.466-1.155.912-1.743,1.358l-1.763,1.317c-1.176.892-2.371,1.743-3.567,2.615s-2.392,1.7-3.608,2.534l-1.824,1.257C200.836,769.285,200.228,769.691,199.6,770.1Z" transform="translate(-139.668 -632.992)" fill="#fff"/>
    <path id="Path_13898" data-name="Path 13898" d="M216.6,997.209l-6,.1-5.978.1-12,.162-12,.122-12,.1h-.464l-11.552.061-12,.041-23.992.04-23.992-.04c-3.474-.02-6.947-.041-10.421-.041q-6.786-.03-13.571-.081c-.727,0-1.454-.02-2.161-.02-4.362-.041-8.745-.061-13.107-.1h-.323c-.626,0-1.252,0-1.878-.02l-6.5-.061-2.545-.041-9.532-.122-6-.081-6-.122,6-.1,6-.1,9.512-.122,2.5-.041c2.565-.02,5.13-.061,7.695-.081h1.818c3.575-.041,7.169-.061,10.744-.081,1.252,0,2.484-.02,3.736-.02,4.524-.041,9.068-.061,13.592-.081,3.474-.02,6.927-.02,10.4-.041l23.992-.041,23.992.041,12,.041,12,.061h1.192l10.8.081,12,.122,12,.162,6,.081Z" transform="translate(0 -821.631)" fill="#f6fcff"/>
    <path id="Path_13899" data-name="Path 13899" d="M530,304.7c1.257.466,2.513.953,3.77,1.419l3.75,1.48c2.493.973,4.986,2.007,7.5,3s4.966,2.047,7.458,3.081l3.709,1.581c1.236.527,2.473,1.054,3.689,1.6-1.257-.466-2.513-.953-3.77-1.419l-3.75-1.459c-2.493-.993-4.986-2.007-7.5-3s-4.966-2.027-7.459-3.081l-3.709-1.581C532.473,305.774,531.236,305.247,530,304.7Z" transform="translate(-403.398 -270.337)" fill="#4e7b96"/>
    <g id="Group_585" data-name="Group 585" transform="translate(70.608 -23.692)">
      <g id="Group_584" data-name="Group 584" clip-path="url(#clip-path)">
        <g id="freepik--character-4--inject-113" transform="translate(2.576 0.885)">
          <path id="Path_13900" data-name="Path 13900" d="M349.634,32.317a5.587,5.587,0,0,1-1.642-2.331c-.2-.851.122-1.824-.3-2.594-.547-.932-1.925-1.034-2.594-1.905-.324-.426-.426-.973-.73-1.4a2.631,2.631,0,0,0-2.432-.79c-.892.1-1.743.446-2.635.527-1.216.1-2.493-.284-3.668.081-1.3.405-2.067,1.561-2.9,2.7l-1.074,1.3a5.276,5.276,0,0,1-.73.608,8.125,8.125,0,0,0-1.378.912,2.155,2.155,0,0,0,.122,3.06h0a.279.279,0,0,0,.081.061,2.345,2.345,0,0,0-1.54,2.29,6.211,6.211,0,0,0,.446,1.561,2.3,2.3,0,0,1,.061,1.6,1.014,1.014,0,0,1-1.317.588,2.439,2.439,0,0,0,1.358,1.6,1.5,1.5,0,0,1-.973.446c1.034,2.311,3.75,3.506,6.283,3.486a19.535,19.535,0,0,0,7.3-2.007l6.79-1.885c.608-.142.831-.872.811-1.5a5,5,0,0,1,.02-1.824c.284-.79,1.2-1.216,1.5-2.007A2.679,2.679,0,0,0,349.634,32.317Z" transform="translate(-314.836 -23.272)" fill="#263238"/>
          <path id="Path_13901" data-name="Path 13901" d="M362.627,31.72l-.385-.02c-4.074.061-6.283,3.547-6.1,7.6L356,53.285a4.762,4.762,0,0,0,4.459,4.8h0A4.759,4.759,0,0,0,365.5,53.65h0v-.081c.041-.73.061-1.257.061-1.257s3.932-.446,4.135-4.337c.1-1.885,0-5.776-.122-9.283A7.29,7.29,0,0,0,362.627,31.72Z" transform="translate(-337.638 -29.992)" fill="#ffbe9d"/>
          <path id="Path_13902" data-name="Path 13902" d="M383.506,126.723A9.414,9.414,0,0,1,378.5,125s1.034,2.9,4.945,2.716Z" transform="translate(-355.579 -104.382)" fill="#eb996e"/>
          <path id="Path_13903" data-name="Path 13903" d="M410.515,79.522a.563.563,0,0,1-.567.547.52.52,0,0,1-.547-.486h0v-.041a.576.576,0,0,1,.567-.547.52.52,0,0,1,.547.486Z" transform="translate(-380.216 -67.7)" fill="#263238"/>
          <path id="Path_13904" data-name="Path 13904" d="M409.849,71.7c-.081.061-.486-.263-1.074-.284s-1.054.263-1.115.182c-.041-.041.04-.162.243-.284a1.543,1.543,0,0,1,.892-.223,1.476,1.476,0,0,1,.851.324C409.829,71.534,409.89,71.655,409.849,71.7Z" transform="translate(-378.821 -61.394)" fill="#263238"/>
          <path id="Path_13905" data-name="Path 13905" d="M382.515,79.681a.576.576,0,0,1-.568.547.512.512,0,0,1-.547-.507h0a.559.559,0,0,1,.568-.527.52.52,0,0,1,.547.486Z" transform="translate(-357.891 -67.86)" fill="#263238"/>
          <path id="Path_13906" data-name="Path 13906" d="M380.849,71.528c-.081.061-.486-.263-1.074-.284s-1.034.263-1.115.182c-.041-.041.04-.162.243-.284a1.736,1.736,0,0,1,.892-.243,1.475,1.475,0,0,1,.851.324C380.829,71.366,380.89,71.508,380.849,71.528Z" transform="translate(-355.698 -61.247)" fill="#263238"/>
          <path id="Path_13907" data-name="Path 13907" d="M398.756,77.505a5.365,5.365,0,0,1,.973-.142c.162,0,.3-.041.324-.142a.741.741,0,0,0-.081-.466l-.405-1.176a20.121,20.121,0,0,1-.892-3.081,22.127,22.127,0,0,1,1.135,3c.142.426.263.811.385,1.2a1.035,1.035,0,0,1,.061.608.42.42,0,0,1-.263.223,1.156,1.156,0,0,1-.264.02A3.892,3.892,0,0,1,398.756,77.505Z" transform="translate(-371.66 -62.522)" fill="#263238"/>
          <path id="Path_13908" data-name="Path 13908" d="M389.986,98.8c.1,0,.081.649.608,1.135s1.236.446,1.236.527c0,.041-.162.122-.446.122a1.509,1.509,0,0,1-1.034-.405,1.346,1.346,0,0,1-.466-.953C389.864,98.962,389.925,98.8,389.986,98.8Z" transform="translate(-364.653 -83.492)" fill="#263238"/>
          <path id="Path_13909" data-name="Path 13909" d="M379.022,60.071c-.061.162-.669.061-1.378.1s-1.277.223-1.378.081c-.04-.081.061-.223.3-.365a2.272,2.272,0,0,1,1.034-.3,2.616,2.616,0,0,1,1.054.162C378.921,59.869,379.043,60.011,379.022,60.071Z" transform="translate(-353.791 -52.222)" fill="#263238"/>
          <path id="Path_13910" data-name="Path 13910" d="M409.687,61.528c-.122.122-.527-.02-1.013-.061s-.912.061-1.013-.1c-.041-.081.04-.2.223-.324a1.326,1.326,0,0,1,.831-.182,1.413,1.413,0,0,1,.79.3C409.687,61.325,409.747,61.467,409.687,61.528Z" transform="translate(-378.821 -53.233)" fill="#263238"/>
          <path id="Path_13911" data-name="Path 13911" d="M347.073,82.942c-.061-.041-2.635-.912-2.675,1.763a1.993,1.993,0,0,0,2.655,2.067C347.053,86.691,347.073,82.942,347.073,82.942Z" transform="translate(-328.388 -70.715)" fill="#ffbe9d"/>
          <path id="Path_13912" data-name="Path 13912" d="M349.04,89c-.02,0-.04.041-.122.061a.5.5,0,0,1-.345,0,1.136,1.136,0,0,1-.527-1.034,1.59,1.59,0,0,1,.142-.669.561.561,0,0,1,.345-.365.272.272,0,0,1,.284.122c.041.081.02.122.041.142s.061-.041.04-.162a.278.278,0,0,0-.1-.162.323.323,0,0,0-.263-.061.661.661,0,0,0-.486.405,1.36,1.36,0,0,0-.162.75,1.2,1.2,0,0,0,.669,1.155.523.523,0,0,0,.426-.061C349.04,89.079,349.06,89.018,349.04,89Z" transform="translate(-331.166 -73.974)" fill="#eb996e"/>
          <path id="Path_13913" data-name="Path 13913" d="M352.516,30.448a5.423,5.423,0,0,1,1.743-1.905,7.71,7.71,0,0,1,2.574-1.459,5.785,5.785,0,0,1,4.5.263,3.456,3.456,0,0,1,1.277,1.074c.953.588,1.905,1.7,1.52,1.905l-.527-.567a4.179,4.179,0,0,1-1.2,1.216c-.02.02-.041.041-.061.041a1.29,1.29,0,0,1-.284.162l-.061.041a4.108,4.108,0,0,1-3.02-.162c-.79-.263-1.5-.709-2.25-1.034a2.76,2.76,0,0,0-1.824.689,1.915,1.915,0,0,0-.2.2,1.55,1.55,0,0,0-.182,1.338c.1.446.3.872.446,1.317a7.572,7.572,0,0,1,.162,2.533,7.791,7.791,0,0,1-.709,3.486c-.264.486-.872.973-1.358.446a1.081,1.081,0,0,1-.284-.811c.041-.811-.689-1.2-1.034-1.784a3.136,3.136,0,0,1-.405-1.642A10.254,10.254,0,0,1,352.516,30.448Z" transform="translate(-333.911 -26.045)" fill="#263238"/>
          <path id="Path_13914" data-name="Path 13914" d="M357.6,137s3.2,2.979,5.8,2.959,3.2-1.378,3.2-1.378l1.459,1.865s.142,12.08.3,12.282-1.52,1.257-1.52,1.257l-8.573-12.3Z" transform="translate(-338.915 -113.95)" fill="#3c97d3"/>
          <path id="Path_13915" data-name="Path 13915" d="M426.31,209.851a2.554,2.554,0,0,0,1.54-1.52c.324-1.115-.567-12.363-.567-12.363l-.689-.669.527-.426v-3.587l-1.216-7.519s-1.2-10.337-2.655-11.066L421,182.935l1.662,24Z" transform="translate(-389.465 -142.414)" fill="#ebebeb"/>
          <path id="Path_13916" data-name="Path 13916" d="M328.566,134.913h0l.162-1.034a14.4,14.4,0,0,1,1.419,1.925c1.419,1.2,4.4,4.236,4.945,5.432.79,1.682.851,9.445.851,9.445l-.385,38.387-25.659.041.405-17.39.811-34.293,6.3-3.162L319.1,132.4l10.62,17.288-.081-11.654A5.151,5.151,0,0,0,328.566,134.913Z" transform="translate(-300.882 -110.282)" fill="#ebebeb"/>
          <path id="Path_13917" data-name="Path 13917" d="M266.035,185.764a5.641,5.641,0,0,1-.385-4.216c1.439-4.824,5.938-19.741,6.749-21.605a7.8,7.8,0,0,1,3.466-3.243l3.932,10.357-1.013,4.824-3.608,10.3h0l10.559,12.363-7.56,6.2s-11.39-13.458-12.161-14.917Z" transform="translate(-265.408 -129.657)" fill="#ebebeb"/>
          <path id="Path_13918" data-name="Path 13918" d="M350.524,346.747a24.891,24.891,0,0,1-3.263.324,17.337,17.337,0,0,0-2.858-.547c-1.236-.1-2.594-.324-2.594-.324l-5.209,4.276,2.148.77a7.839,7.839,0,0,0,3.283-.385,42.042,42.042,0,0,0,5.067-2.189,12.719,12.719,0,0,0,2.148-.1C350.139,348.409,351.639,347.173,350.524,346.747Z" transform="translate(-322.171 -280.75)" fill="#ffbe9d"/>
          <path id="Path_13919" data-name="Path 13919" d="M408.226,252.237v-1.6c0-1.034.02-2.533.02-4.358.02-3.668.081-8.756.081-14.37,0-2.8-.02-5.472-.081-7.9-.02-1.216-.061-2.371-.081-3.446s-.1-2.088-.142-3c-.081-1.824-.142-3.324-.182-4.358-.02-.507-.041-.912-.041-1.2v-.3a1.536,1.536,0,0,0,.02.3c.02.284.04.669.081,1.176.061,1.034.142,2.513.223,4.358.04.912.1,1.925.162,3s.061,2.229.081,3.445c.041,2.432.081,5.107.081,7.9,0,5.614-.061,10.7-.122,14.37-.02,1.824-.061,3.324-.081,4.358,0,.507-.02.912-.02,1.176v.3A.321.321,0,0,1,408.226,252.237Z" transform="translate(-378.94 -173.43)" fill="#263238"/>
          <path id="Path_13920" data-name="Path 13920" d="M347.1,141.5a.422.422,0,0,1,.081.122l.243.345.872,1.317,3,4.6-.04-.02,2.25.567.081.02-.041.081c-.264.486-.527,1.013-.79,1.54a2.219,2.219,0,0,1-.122.223v-.061l4.925,6.384c.608.811,1.115,1.48,1.48,1.946l.405.527.1.142c.02.02.041.041.02.041l-.041-.041-.1-.122-.405-.527-1.52-1.905-4.945-6.4-.02-.041.02-.041.122-.243.79-1.54.041.1-2.25-.567h-.02l-.02-.02-2.959-4.621-.831-1.338-.223-.365A.167.167,0,0,1,347.1,141.5Z" transform="translate(-330.543 -117.538)" fill="#263238"/>
          <path id="Path_13921" data-name="Path 13921" d="M408.7,165.313l.061-.182c.04-.122.1-.263.182-.486.162-.426.345-1.034.568-1.824.426-1.561.912-3.77,1.338-6.242v.041l-.2-.324-1.054-1.743-.081-.142.162.041,1.257.3-.081.081c-.568-1.662-1.034-3.1-1.378-4.135l-.385-1.2-.1-.324c-.041,0-.061-.041-.041-.061s.041-.061.061-.041c.02,0,.041.041.041.061a.044.044,0,0,1-.041.041c.041.081.061.182.122.3.1.284.243.689.426,1.176.365,1.034.851,2.452,1.439,4.114l.041.1-.1-.02-1.257-.3.061-.1c.345.547.709,1.135,1.074,1.723l.2.324v.041a59.076,59.076,0,0,1-1.378,6.242c-.223.79-.446,1.4-.608,1.824-.081.223-.162.365-.2.486A.617.617,0,0,0,408.7,165.313Z" transform="translate(-379.658 -123.576)" fill="#263238"/>
          <path id="Path_13922" data-name="Path 13922" d="M424.713,332.4a11.667,11.667,0,0,0-2.554.405c-.608.284-1.034,1.236-1.54,1.621s-1.216.588-1.034,1.074a1.154,1.154,0,0,0,1.459.608,13.411,13.411,0,0,0,1.338-.608h3.081s.608-2.432.669-2.412A3.171,3.171,0,0,0,424.713,332.4Z" transform="translate(-388.313 -269.747)" fill="#ffbe9d"/>
          <path id="Path_13923" data-name="Path 13923" d="M437.461,203.4c.041,0,.061,5.878.061,13.133s-.02,13.133-.061,13.133-.061-5.878-.061-13.133S437.42,203.4,437.461,203.4Z" transform="translate(-402.541 -166.892)" fill="#263238"/>
          <path id="Path_13924" data-name="Path 13924" d="M297.2,252.681l.122.122.345.405c.3.365.73.871,1.3,1.52,1.115,1.317,2.716,3.223,4.641,5.513h-.081l7.54-6.222v.1l-2.432-2.837-8.127-9.526-.02-.02V241.7c1.094-3.1,2.007-5.675,2.635-7.479l.75-2.088.2-.547a.835.835,0,0,1,.081-.182l-.061.182c-.041.122-.1.324-.182.547-.162.486-.405,1.2-.709,2.088l-2.594,7.519v-.061l8.127,9.506,2.432,2.837.041.041-.041.041-7.56,6.2-.041.041-.04-.041-4.621-5.553-1.277-1.54-.324-.405A.534.534,0,0,0,297.2,252.681Z" transform="translate(-290.757 -189.217)" fill="#263238"/>
          <path id="Path_13925" data-name="Path 13925" d="M308.2,163.6h.426a5.667,5.667,0,0,1,1.155.162,6.891,6.891,0,0,1,5.209,5.148,5.664,5.664,0,0,1,.162,1.155v.405a3.033,3.033,0,0,1-.04-.426,7.225,7.225,0,0,0-6.486-6.425A1.5,1.5,0,0,1,308.2,163.6Z" transform="translate(-299.527 -135.159)" fill="#263238"/>
          <path id="Path_13926" data-name="Path 13926" d="M293.6,282.592a1.823,1.823,0,0,1,.527-.345,4.569,4.569,0,0,1,2.919-.486,2.255,2.255,0,0,1,.608.162,5.889,5.889,0,0,0-4.053.669Z" transform="translate(-287.886 -229.323)" fill="#263238"/>
          <path id="Path_13927" data-name="Path 13927" d="M430.821,347.7h2.594l-3.243,9.749-.973-6.81Z" transform="translate(-396.003 -281.946)" fill="#ebebeb"/>
          <path id="Path_13928" data-name="Path 13928" d="M433.5,347.461a.988.988,0,0,1,.243-.02l.689-.02,2.432-.02h.081l-.02.081c-.3.953-.689,2.088-1.074,3.283-.588,1.784-1.135,3.385-1.54,4.56l-.486,1.378-.142.365-.061.122c0-.041.02-.1.02-.142l.122-.385c.1-.345.264-.811.446-1.4.385-1.176.912-2.8,1.5-4.56l1.094-3.283.061.081-2.432-.02-.689-.02A.493.493,0,0,1,433.5,347.461Z" transform="translate(-399.432 -281.707)" fill="#263238"/>
          <path id="Path_13929" data-name="Path 13929" d="M437.7,332.193a1.789,1.789,0,0,1,.3-.1,4.1,4.1,0,0,1,.871-.1,2.191,2.191,0,0,1,2.229,1.54,2.661,2.661,0,0,1-.446,2.736,2.55,2.55,0,0,1-.73.486,1.781,1.781,0,0,1-.3.1,1.238,1.238,0,0,1,.284-.142,3.257,3.257,0,0,0,.689-.486,2.591,2.591,0,0,0,.385-2.615,2.205,2.205,0,0,0-.912-1.176,2.441,2.441,0,0,0-1.2-.3A5.725,5.725,0,0,0,437.7,332.193Z" transform="translate(-402.78 -269.418)" fill="#263238"/>
          <path id="Path_13930" data-name="Path 13930" d="M341,361.248a5.071,5.071,0,0,0,1.439.3,6.119,6.119,0,0,0,1.6-.142,11.958,11.958,0,0,0,1.885-.588c1.317-.486,2.513-.932,3.385-1.236l1.034-.365c.122-.041.263-.081.385-.122a2.867,2.867,0,0,1-.365.162l-1.013.405c-.851.324-2.047.79-3.364,1.277a15.893,15.893,0,0,1-1.905.588,5.43,5.43,0,0,1-1.621.122,3.9,3.9,0,0,1-1.074-.223c-.1-.04-.182-.081-.284-.122A.45.45,0,0,1,341,361.248Z" transform="translate(-325.679 -291.036)" fill="#263238"/>
          <path id="Path_13931" data-name="Path 13931" d="M340.962,383.3c-.041,0-.223-1.6-.405-3.587s-.324-3.608-.284-3.608.223,1.6.426,3.587S341,383.3,340.962,383.3Z" transform="translate(-325.094 -304.59)" fill="#263238"/>
          <path id="Path_13932" data-name="Path 13932" d="M378,374.041a2.346,2.346,0,0,1,.385-.162,3.064,3.064,0,0,0,.912-.588,4.585,4.585,0,0,0,.932-1.317,7.972,7.972,0,0,0,.588-1.905,16.894,16.894,0,0,0,.2-3.648c-.02-.466-.041-.851-.061-1.115a2.713,2.713,0,0,1-.02-.405,2.877,2.877,0,0,1,.081.405,10.662,10.662,0,0,1,.1,1.115,14.857,14.857,0,0,1-.162,3.668,8.334,8.334,0,0,1-.608,1.946,4.29,4.29,0,0,1-.973,1.338,3.048,3.048,0,0,1-.953.568,1.5,1.5,0,0,1-.284.081A.457.457,0,0,1,378,374.041Z" transform="translate(-355.18 -295.66)" fill="#263238"/>
          <path id="Path_13933" data-name="Path 13933" d="M341.1,372.7c.02-.02.223.263.608.628a8.655,8.655,0,0,0,3.567,2.169,5.309,5.309,0,0,1,.851.263.988.988,0,0,1-.243-.02,5.71,5.71,0,0,1-.628-.142,7.774,7.774,0,0,1-3.608-2.209,4.936,4.936,0,0,1-.405-.507A.441.441,0,0,1,341.1,372.7Z" transform="translate(-325.759 -301.875)" fill="#263238"/>
          <path id="Path_13934" data-name="Path 13934" d="M386.2,229.9a.826.826,0,0,1,.3.649c-.02.405,0,3.162,0,3.162s.1.405-.3.405Z" transform="translate(-361.718 -188.021)" fill="#263238"/>
          <rect id="Rectangle_1030" data-name="Rectangle 1030" width="0.851" height="1.378" transform="translate(23.732 41.433)" fill="#263238"/>
          <path id="Path_13935" data-name="Path 13935" d="M383.3,225.39h.527v-.527a.268.268,0,0,0-.263-.264h0a.268.268,0,0,0-.263.264h0Z" transform="translate(-359.406 -183.796)" fill="#263238"/>
          <path id="Path_13936" data-name="Path 13936" d="M351,233.861c0-.041,1.885-.061,4.236-.061s4.236.02,4.236.061-1.905.061-4.236.061S351,233.881,351,233.861Z" transform="translate(-333.652 -191.131)" fill="#263238"/>
          <g id="Group_582" data-name="Group 582" transform="translate(17.874 26.009)" opacity="0.2">
            <path id="Path_13937" data-name="Path 13937" d="M364.038,166.4l-.385-.385-7.114-6.79.77-2.229h-1.236L353.6,151.6l2.817,4.358,2.25.567-.892,1.763" transform="translate(-353.6 -151.6)"/>
          </g>
          <g id="Group_583" data-name="Group 583" transform="translate(18.482 47.695)" opacity="0.2">
            <path id="Path_13938" data-name="Path 13938" d="M360.491,260.87a4.008,4.008,0,0,0,1.986-.608,3.5,3.5,0,0,0,1.135-1.662,8.906,8.906,0,0,1-.324,1.784,2.632,2.632,0,0,1-.993,1.338,3,3,0,0,1-1.885.324,7.885,7.885,0,0,1-2.533-.628c-.568-.243-1.176-.628-1.277-1.236A8.013,8.013,0,0,0,360.491,260.87Z" transform="translate(-356.6 -258.6)"/>
          </g>
        </g>
      </g>
    </g>
  </g>
</svg>
