<svg xmlns="http://www.w3.org/2000/svg" xmlns:xlink="http://www.w3.org/1999/xlink" width="215" height="200" viewBox="0 0 215 200">
  <defs>
    <clipPath id="clip-path">
      <path id="Path_14532" data-name="Path 14532" d="M519,25.386V138.159a7.206,7.206,0,0,1-7.206,7.206H441.073L410.6,165.742l23.267-27.562V25.406a7.219,7.219,0,0,1,7.206-7.206h70.718A7.189,7.189,0,0,1,519,25.386Z" transform="translate(-410.6 -18.2)"/>
    </clipPath>
  </defs>
  <g id="Illustrations-05" transform="translate(116.7 -18.2)">
    <path id="Path_14530" data-name="Path 14530" d="M44.178,594.339a74.338,74.338,0,0,1-3.766,23.43v.02H-100.514a.377.377,0,0,1-.041-.143,74.149,74.149,0,0,1-3.746-23.308,73.875,73.875,0,0,1,11.074-39.023h0a74.336,74.336,0,0,1,8.468-11.176h0a1.832,1.832,0,0,0,.183-.2l1.1-1.16c.957-1,1.934-1.954,2.952-2.891.366-.326.712-.651,1.079-.977a72.606,72.606,0,0,1,8.814-6.738c.081-.061.183-.122.265-.183l1.16-.733A73.861,73.861,0,0,1-52.7,523.622h0a1.714,1.714,0,0,1,.346-.1,74.109,74.109,0,0,1,12.621-2.789,75.635,75.635,0,0,1,9.669-.631A73.956,73.956,0,0,1,19.3,538.889,74.08,74.08,0,0,1,44.178,594.339Z" transform="translate(-9.876 -399.732)" fill="#cae1e5"/>
    <path id="Path_14531" data-name="Path 14531" d="M519,25.386V138.159a7.206,7.206,0,0,1-7.206,7.206H441.073L410.6,165.742l23.267-27.562V25.406a7.219,7.219,0,0,1,7.206-7.206h70.718A7.189,7.189,0,0,1,519,25.386Z" transform="translate(-420.697)" fill="#dfe7ec"/>
    <g id="Group_621" data-name="Group 621" transform="translate(-10.097 18.2)">
      <g id="Group_620" data-name="Group 620" transform="translate(0 0)">
        <g id="Group_619" data-name="Group 619" clip-path="url(#clip-path)">
          <rect id="Rectangle_1045" data-name="Rectangle 1045" width="104.753" height="28.316" transform="translate(13.618 -5.802)" fill="#63aad8"/>
        </g>
      </g>
    </g>
    <g id="freepik--character-2--inject-4" transform="translate(-103.163 85.248)">
      <path id="Path_14533" data-name="Path 14533" d="M255.978,796.689,264.1,800.5s-7.858,13.415-11.949,18.728a31.209,31.209,0,0,1-2.911,3.216,5.437,5.437,0,0,1-7.695-.081,5.2,5.2,0,0,1-1.3-2.178,24.964,24.964,0,0,1-1.14-4.723c-.2-3.094-1.3-26.015-1.3-26.015l11.4-.142v14.9l2.952-3.684Z" transform="translate(-179.174 -699.381)" fill="#78aa41"/>
      <path id="Path_14534" data-name="Path 14534" d="M270.36,846c-1.242,1.445-2.382,2.748-3.2,3.644a15.73,15.73,0,0,0-1.364,1.486,6.362,6.362,0,0,0,1.567-1.282,48.554,48.554,0,0,0,3.318-3.583c1.242-1.445,2.28-2.789,3.094-3.746A13.59,13.59,0,0,0,275,840.887,52.989,52.989,0,0,0,270.36,846Z" transform="translate(-201.474 -740.464)" fill="#263238"/>
      <path id="Path_14535" data-name="Path 14535" d="M76.986,372.336l.814.122a15.843,15.843,0,0,1,13.455,16.794c-.529,7.674-1.242,16.142-1.913,20.193-1.384,8.387-10.015,8.427-10.015,8.427-.041.265-.265,2.361-.468,4.885-.468,5.333-3.135,12.6-11.013,12.8h0c-9.059-.407-9.466-8.9-8.936-14.616L61.963,387.4C62.553,378.525,68.192,371.5,76.986,372.336Z" transform="translate(-36.579 -367.242)" fill="#ffbe9d"/>
      <path id="Path_14536" data-name="Path 14536" d="M118.739,579.184c-8.509-.529-10.239-7.084-10.239-7.084a20.643,20.643,0,0,0,10.463,4.926Z" transform="translate(-76.195 -526.395)" fill="#eb996e"/>
      <path id="Path_14537" data-name="Path 14537" d="M125.994,471.8a3.536,3.536,0,0,1-2.137.427,3.481,3.481,0,0,1-1.995-.916c-.407-.387-.651-.631-.448-.794s1.1.692,2.524.875,2.5-.448,2.646-.244C126.666,471.212,126.462,471.517,125.994,471.8Z" transform="translate(-86.421 -445.476)" fill="#263238"/>
      <path id="Path_14538" data-name="Path 14538" d="M161.658,474.655a1.8,1.8,0,0,0,.57.041.819.819,0,0,0,.611-.407,1.854,1.854,0,0,0,.02-1.323c-.183-.855-.366-1.73-.55-2.667a42.966,42.966,0,0,0-1.751-6.8,44,44,0,0,0,1.181,6.9c.224.936.427,1.832.611,2.667a1.734,1.734,0,0,1,.061,1.018c-.081.2-.407.244-.753.224a9.571,9.571,0,0,0-2.158.061A8.855,8.855,0,0,0,161.658,474.655Z" transform="translate(-116.813 -439.901)" fill="#263238"/>
      <path id="Path_14539" data-name="Path 14539" d="M126.839,446.533a4.5,4.5,0,0,0-3.684-1.649c-.529.041-.855.2-.855.387.02.346,1.14.57,2.382,1.12s2.158,1.262,2.422,1.038C127.226,447.326,127.165,446.96,126.839,446.533Z" transform="translate(-87.185 -425.071)" fill="#263238"/>
      <path id="Path_14540" data-name="Path 14540" d="M191.341,460.107a5.041,5.041,0,0,0-3.969,0c-.448.224-.672.468-.611.59.163.265,1.262,0,2.606.02s2.463.224,2.606-.041C192.054,460.575,191.81,460.331,191.341,460.107Z" transform="translate(-138.517 -436.875)" fill="#263238"/>
      <path id="Path_14541" data-name="Path 14541" d="M47.785,483.589c-.041.163-5.964.651-5.293-5.13s6.087-3.257,6.229-3.176C48.721,475.3,47.805,483.426,47.785,483.589Z" transform="translate(-23.581 -448.794)" fill="#ffbe9d"/>
      <path id="Path_14542" data-name="Path 14542" d="M52.041,488.608a1.079,1.079,0,0,1-.936.041,2.619,2.619,0,0,1-1.16-2.667,3.308,3.308,0,0,1,.55-1.608,1.426,1.426,0,0,1,1.16-.774.786.786,0,0,1,.55.224.578.578,0,0,1,.183.387c.02.244-.061.346-.122.326s.02-.122-.041-.285a.513.513,0,0,0-.57-.346,1.188,1.188,0,0,0-.875.672,3.168,3.168,0,0,0-.448,1.4,2.452,2.452,0,0,0,.9,2.361.976.976,0,0,0,.753.061c.1-.041.2-.081.285-.122A.629.629,0,0,1,52.041,488.608Z" transform="translate(-29.547 -455.91)" fill="#eb996e"/>
      <path id="Path_14543" data-name="Path 14543" d="M84.094,364.453a5.3,5.3,0,0,1-3.074.427,1.591,1.591,0,0,1,.835,1.323,1.865,1.865,0,0,1-1.445,1.73,2.4,2.4,0,0,1-2.2-.753,2.93,2.93,0,0,1,.651.774,1.471,1.471,0,0,1-.529,2.036,1.508,1.508,0,0,1-1.812-.224h0a12.177,12.177,0,0,0-.774,1.3h0l-.061.081c-.142.244-.305.509-.489.774h0l-2.26,3.664c.081-2.463.529-5.781.59-8.163a13.293,13.293,0,0,1-9.12-5.13c-1.2-1.506-2.1-3.4-3.766-4.4-2.158-1.282-4.906-.692-7.328-.041l.1-.081a10.382,10.382,0,0,0-3.461,2.1,33.39,33.39,0,0,1-2.524,13.863c-.285.672-1,1.995-1.669,2.219-1.364.387-1.567-.957-2.321-1.73a3.551,3.551,0,0,0-2.321-.774A51.846,51.846,0,0,1,40,367.3a5.3,5.3,0,0,1-2.463-.041c.285-.57.59-1.16.9-1.73a2.55,2.55,0,0,1-1.079.387.978.978,0,0,1-.957-.509c-.183-.468.163-.957.448-1.364,1.364-1.954,1.832-4.356,2.687-6.6s2.3-4.478,4.6-5.109h.041c2.076-.651,4.58-.468,6.087,1.059.651-2.992,3.481-5.171,6.494-5.7A19.82,19.82,0,0,1,67.2,349.349c2.117,1.059,4.092,3.013,6.433,5.863a27.4,27.4,0,0,1,2.667,3.827,12.345,12.345,0,0,0,6.209,2.443,4.411,4.411,0,0,1,2.137.509,1.4,1.4,0,0,1,.59.875C85.4,363.639,84.746,364.148,84.094,364.453Z" transform="translate(-18.73 -347.572)" fill="#263238"/>
      <path id="Path_14544" data-name="Path 14544" d="M64.1,382.753a5.839,5.839,0,0,0-1.588,2.707,11.2,11.2,0,0,0-.407,2.158c-.081.794-.081,1.628-.1,2.524a24.882,24.882,0,0,1-.163,2.748,8.454,8.454,0,0,1-.305,1.425,2.852,2.852,0,0,1-.651,1.282,1.034,1.034,0,0,1-1.038.244,1.673,1.673,0,0,1-.916-.611,4.108,4.108,0,0,1-.651-2.117l-.02-.305-.142.265a6.623,6.623,0,0,1-1.14,1.649,2.364,2.364,0,0,1-1.588.692,1.43,1.43,0,0,1-.814-.2,1.164,1.164,0,0,1-.489-.55,1.073,1.073,0,0,1,.142-1.242l-.081-.081a5.578,5.578,0,0,1-1.873,1.242c-.244.1-.448.163-.57.2l-.2.061.2-.041a2.662,2.662,0,0,0,.57-.183,5.67,5.67,0,0,0,1.934-1.221l-.081-.081a.958.958,0,0,0-.326.631,1.55,1.55,0,0,0,.122.753,1.387,1.387,0,0,0,.55.631,1.583,1.583,0,0,0,.855.224,2.612,2.612,0,0,0,1.71-.774,7.335,7.335,0,0,0,1.16-1.69l-.183-.02a4.273,4.273,0,0,0,.651,2.219,1.991,1.991,0,0,0,1.018.692,1.336,1.336,0,0,0,1.242-.305,3.142,3.142,0,0,0,.712-1.364,8.687,8.687,0,0,0,.305-1.445,25.25,25.25,0,0,0,.163-2.768c0-.875.02-1.69.081-2.5a10.961,10.961,0,0,1,.387-2.137,6.2,6.2,0,0,1,2.4-3.461A3.965,3.965,0,0,0,64.1,382.753Z" transform="translate(-30.798 -374.992)" fill="#455a64"/>
      <path id="Path_14545" data-name="Path 14545" d="M143.419,376.006a7.821,7.821,0,0,1-3.623.305,9.629,9.629,0,0,1-4.865-2.28A16.872,16.872,0,0,1,131,368.7c-.529-1.059-.957-2.158-1.425-3.176a11.492,11.492,0,0,0-1.73-2.768,6.123,6.123,0,0,0-2.4-1.71,4.222,4.222,0,0,0-1.323-.244,4.34,4.34,0,0,0-1.242.163,4.6,4.6,0,0,0-1.873.977,5.4,5.4,0,0,0-1.059,1.2,3.785,3.785,0,0,0-.387.936.563.563,0,0,0-.061.265v.081a5.411,5.411,0,0,1,.529-1.221,4.872,4.872,0,0,1,2.891-2.1,4.732,4.732,0,0,1,1.2-.142,4.473,4.473,0,0,1,1.262.244,5.76,5.76,0,0,1,2.321,1.669,11.178,11.178,0,0,1,1.71,2.728c.427,1.018.855,2.1,1.384,3.176a16.554,16.554,0,0,0,3.99,5.394,9.623,9.623,0,0,0,4.967,2.28,7.48,7.48,0,0,0,3.664-.366,3.245,3.245,0,0,0,.55-.244,3.294,3.294,0,0,0,.366-.2.841.841,0,0,0,.224-.142l.081-.061A8.359,8.359,0,0,1,143.419,376.006Z" transform="translate(-84.955 -358.107)" fill="#455a64"/>
      <path id="Path_14546" data-name="Path 14546" d="M211.874,413.655a10.231,10.231,0,0,1-3.237.387,13.076,13.076,0,0,1-1.791-.244,8.071,8.071,0,0,1-1.4-.448c-.774-.305-1.242-.55-1.242-.55a.918.918,0,0,0,.285.2,5.369,5.369,0,0,0,.9.468,9.058,9.058,0,0,0,1.425.489,9.267,9.267,0,0,0,3.664.183,12.73,12.73,0,0,0,1.466-.346,7.55,7.55,0,0,0,.936-.387,1.684,1.684,0,0,0,.326-.183A8.849,8.849,0,0,0,211.874,413.655Z" transform="translate(-152.414 -399.522)" fill="#455a64"/>
      <path id="Path_14547" data-name="Path 14547" d="M188.894,481.7a3.536,3.536,0,0,1-2.137.427,3.482,3.482,0,0,1-1.995-.916c-.407-.387-.651-.631-.448-.794s1.12.692,2.524.875,2.5-.448,2.646-.244C189.566,481.112,189.362,481.417,188.894,481.7Z" transform="translate(-136.517 -453.361)" fill="#263238"/>
      <path id="Path_14548" data-name="Path 14548" d="M47.718,610.7l-9.995.366L26.1,604.616l8.489-3.216L52.6,602.438l9.771,3.827Z" transform="translate(-10.568 -549.73)" fill="#ffbe9d"/>
      <path id="Path_14549" data-name="Path 14549" d="M36.073,641.473v.1H26.75l.163,23.735v.061l.041,5.048h0l.061,9.221.387,2.606.1.712H-29.8l.02-.326,1.323-34.28.081-5.415h0l.041-2.85h0l.041-2.137,1.364-12.763,1.69-15.837v-.02l.02-.183.305-2.768h0c.122-.041,1.669-.57,3.746-1.282.9-.305,1.893-.651,2.911-.977,2.341-.794,4.845-1.629,6.656-2.219h0a1.78,1.78,0,0,0,.163.143c.081.061.183.163.305.265A15.483,15.483,0,0,0-8.528,604.1a21.053,21.053,0,0,0,10.015,2.585h.651a43.626,43.626,0,0,0,5.374-.387c.285-.041.529-.081.794-.122,2.891-.509,4.051-1.242,4.377-1.506a1.245,1.245,0,0,0,.122-.1l1.16.448.305.122,1.018.387h0l.224.081h0l.163.061,9.445,3.623s8.753,3.135,10.26,7.023C36.806,619.976,36.134,639.885,36.073,641.473Z" transform="translate(33.953 -550.128)" fill="#78aa41"/>
      <path id="Path_14550" data-name="Path 14550" d="M29.5,770.875c1.771-.143,3.542-.244,5.313-.326s3.542-.122,5.313-.143c3.542-.061,7.084,0,10.626.122l1.323.041,1.323.061,2.646.142c1.771.122,3.542.224,5.293.407l2.646.244,2.667.305c.448.061.875.1,1.323.163l1.323.183,2.626.366-2.646-.305-1.323-.163-1.323-.122-2.646-.265c-.875-.081-1.771-.143-2.646-.2-1.771-.143-3.542-.244-5.293-.366l-2.646-.122-1.323-.061-1.323-.041c-.9-.041-1.771-.081-2.646-.1l-2.646-.061-2.646-.02H40.167q-2.656,0-5.313.061C33.083,770.712,31.271,770.773,29.5,770.875Z" transform="translate(-13.276 -684.314)" fill="#fff"/>
      <path id="Path_14551" data-name="Path 14551" d="M29.5,794.674c1.771-.142,3.542-.244,5.313-.326s3.542-.122,5.313-.142c3.542-.061,7.084,0,10.626.122l1.323.041,1.323.061,2.646.143c1.771.122,3.542.224,5.293.407l2.646.244,2.646.305c.448.061.875.1,1.323.163l1.323.183,2.626.366-2.646-.305-1.323-.163-1.323-.122-2.646-.265c-.875-.081-1.771-.143-2.646-.224-1.771-.143-3.542-.244-5.293-.366l-2.646-.122-1.323-.061-1.323-.041c-.9-.041-1.771-.081-2.646-.1l-2.646-.061-2.646-.02H40.146q-2.656,0-5.313.061C33.062,794.491,31.271,794.573,29.5,794.674Z" transform="translate(-13.276 -703.269)" fill="#fff"/>
      <path id="Path_14552" data-name="Path 14552" d="M254.075,700.026c-.041.224-.1.59-.183,1.038a27.155,27.155,0,0,1-1.1,3.807c-.692,1.893-1.486,3.766-2.361,5.6-.916,2.117-1.771,4.56-2.667,7.227v-.041c.02,3.176.081,6.656.081,10.28.041,8.122.1,15.471.1,20.824V756.8a2.859,2.859,0,0,1,0,.59,2.859,2.859,0,0,1,0-.59,15.985,15.985,0,0,1-.041-1.71c-.041-1.527-.061-3.664-.122-6.31-.061-5.354-.122-12.723-.224-20.824-.02-3.644-.061-7.125-.061-10.3v-.061a62.822,62.822,0,0,1,2.748-7.226,58.68,58.68,0,0,0,2.463-5.537,35.075,35.075,0,0,0,1.181-3.766c.081-.427.163-.753.224-1.018a1.72,1.72,0,0,1,.1-.346A1.134,1.134,0,0,1,254.075,700.026Z" transform="translate(-186.899 -628.02)" fill="#263238"/>
      <g id="Group_622" data-name="Group 622" transform="translate(61.496 73.553)" opacity="0.3">
        <path id="Path_14553" data-name="Path 14553" d="M251.9,724.717a22.213,22.213,0,0,0,5.8-15.817C256.093,714.152,253.1,719.241,251.9,724.717Z" transform="translate(-251.9 -708.9)"/>
      </g>
      <g id="Group_623" data-name="Group 623" transform="translate(26.728 104.454)" opacity="0.3">
        <path id="Path_14554" data-name="Path 14554" d="M81.1,860.7a27.1,27.1,0,0,0,2.789,10.83,33.46,33.46,0,0,0,4.763,6.88,10.99,10.99,0,0,0,7.084,3.949C89.589,877.209,84.52,869.921,81.1,860.7Z" transform="translate(-81.1 -860.7)"/>
      </g>
      <path id="Path_14555" data-name="Path 14555" d="M75.8,841.166c.081.244.163.529.285.936s.265.916.448,1.486.387,1.221.672,1.934a52.24,52.24,0,0,0,2.1,4.906,50.077,50.077,0,0,0,7.186,10.83,46.97,46.97,0,0,0,3.725,3.807c.55.529,1.079.957,1.547,1.344s.855.712,1.2.977l.753.611a.7.7,0,0,1,.244.244,1.3,1.3,0,0,1-.285-.163l-.814-.55c-.366-.244-.774-.55-1.242-.916s-1.018-.794-1.588-1.323a43.848,43.848,0,0,1-3.746-3.786,49.9,49.9,0,0,1-4.01-5.211A52.969,52.969,0,0,1,79,850.551a47.966,47.966,0,0,1-2.036-4.967c-.265-.712-.448-1.384-.631-1.975a13.784,13.784,0,0,1-.387-1.506l-.2-.957a2.005,2.005,0,0,1-.041-.346A.908.908,0,0,1,75.8,841.166Z" transform="translate(-50.071 -740.397)" fill="#263238"/>
      <path id="Path_14556" data-name="Path 14556" d="M84.2,759.829c.081.387.2.875.346,1.527s.326,1.466.57,2.4.489,1.995.875,3.155c.183.59.346,1.181.55,1.812s.448,1.262.692,1.934c.427,1.344,1.038,2.748,1.629,4.234a73.015,73.015,0,0,0,10.85,17.73c1.038,1.221,2.015,2.4,3.013,3.4.489.509.936,1.038,1.4,1.506l1.364,1.323c.855.875,1.69,1.547,2.4,2.219s1.344,1.221,1.873,1.629l1.2,1a2.289,2.289,0,0,1,.407.366,3.465,3.465,0,0,1-.448-.305l-1.242-.936c-.55-.407-1.2-.916-1.934-1.547s-1.588-1.323-2.463-2.178l-1.384-1.3c-.489-.448-.957-.977-1.445-1.486-1.018-1.018-1.995-2.178-3.053-3.4A71.037,71.037,0,0,1,88.519,775.1c-.59-1.486-1.2-2.891-1.628-4.275-.224-.672-.468-1.323-.672-1.954l-.55-1.832c-.366-1.16-.59-2.219-.814-3.176s-.387-1.812-.509-2.463-.2-1.16-.265-1.547A5.117,5.117,0,0,1,84,759.3,1.3,1.3,0,0,1,84.2,759.829Z" transform="translate(-56.682 -675.488)" fill="#263238"/>
      <path id="Path_14557" data-name="Path 14557" d="M303.076,744.186c-1.649,2.5-8.305,12.641-10.28,15.634a.454.454,0,0,0,.122.631.575.575,0,0,0,.305.081l11.847-1.486a.437.437,0,0,0,.305-.183l11.318-15.45a.478.478,0,0,0-.1-.651.412.412,0,0,0-.305-.081l-12.193.9A1.337,1.337,0,0,0,303.076,744.186Z" transform="translate(-222.913 -662.246)" fill="#455a64"/>
      <path id="Path_14558" data-name="Path 14558" d="M302.822,743.888a.366.366,0,0,1,.1-.142,1.4,1.4,0,0,1,.366-.326,1.767,1.767,0,0,1,.794-.2l1.12-.081,7.043-.55,2.321-.183,1.242-.1h.326a.531.531,0,0,1,.509.57.577.577,0,0,1-.081.265l-3.3,4.519-7.552,10.321c-.183.244-.326.448-.509.692a.731.731,0,0,1-.2.143.864.864,0,0,1-.224.041l-.407.041-1.649.2-3.277.448-6.127.773c-.122,0-.224.041-.366.041a.556.556,0,0,1-.55-.55.585.585,0,0,1,.142-.366c.265-.407.529-.794.774-1.181.509-.773,1.018-1.527,1.486-2.26.957-1.466,1.852-2.809,2.687-4.071l3.908-5.863,1.059-1.588.285-.407a.618.618,0,0,1,.1-.142s-.02.041-.081.142l-.265.427-1.038,1.608-3.847,5.9-2.667,4.071-1.486,2.26-.774,1.181a.714.714,0,0,0-.122.285.349.349,0,0,0,.366.366,2.24,2.24,0,0,0,.366-.041l6.127-.773,3.237-.407,1.649-.2.427-.041a.593.593,0,0,0,.183-.041.617.617,0,0,0,.142-.1l.489-.672,7.552-10.341,3.3-4.5a.374.374,0,0,0-.122-.529.329.329,0,0,0-.183-.061h-.305l-1.242.081-2.321.163-7.043.489-1.12.061a2.026,2.026,0,0,0-.774.163A1.709,1.709,0,0,0,302.822,743.888Z" transform="translate(-222.66 -661.948)" fill="#263238"/>
      <path id="Path_14559" data-name="Path 14559" d="M320.2,746.2a1.023,1.023,0,0,1-.244.041l-.712.081-2.667.244-9.1.733.081-.041c-.57.855-1.16,1.73-1.751,2.626-2.4,3.7-4.5,7.084-6.087,9.506-.794,1.221-1.445,2.178-1.893,2.85l-.529.733a1.306,1.306,0,0,1-.2.265,2.031,2.031,0,0,1,.163-.285l.509-.774,1.852-2.87c1.547-2.443,3.644-5.842,6.025-9.527.59-.916,1.181-1.791,1.751-2.626l.02-.041h.041l9.1-.672,2.687-.183.712-.041A.993.993,0,0,1,320.2,746.2Z" transform="translate(-226.403 -665.054)" fill="#263238"/>
      <path id="Path_14560" data-name="Path 14560" d="M348.962,754.4l-3.013.122a.234.234,0,0,0-.224.122l-1.751,2.4a.316.316,0,0,0,.061.427.328.328,0,0,0,.183.061h3.115a.247.247,0,0,0,.244-.143l1.649-2.5a.3.3,0,0,0-.081-.427A.328.328,0,0,0,348.962,754.4Z" transform="translate(-263.689 -671.585)" fill="#263238"/>
      <path id="Path_14561" data-name="Path 14561" d="M353.771,755.7a.45.45,0,0,0-.509-.326h-.02a1.008,1.008,0,0,0-.57.326.585.585,0,0,0-.1.733c.2.265.672.163.916-.061A.746.746,0,0,0,353.771,755.7Z" transform="translate(-270.514 -672.354)" fill="#a2a4a5"/>
      <path id="Path_14562" data-name="Path 14562" d="M350.071,763.4a.45.45,0,0,0-.509-.326h-.02a1.008,1.008,0,0,0-.57.326.585.585,0,0,0-.1.733c.2.265.672.163.916-.061A.791.791,0,0,0,350.071,763.4Z" transform="translate(-267.567 -678.487)" fill="#a2a4a5"/>
      <path id="Path_14563" data-name="Path 14563" d="M358.971,760.3a.45.45,0,0,0-.509-.326h-.02a1.008,1.008,0,0,0-.57.326.585.585,0,0,0-.1.733c.2.265.672.163.916-.061A.746.746,0,0,0,358.971,760.3Z" transform="translate(-274.655 -676.018)" fill="#a2a4a5"/>
      <path id="Path_14564" data-name="Path 14564" d="M304.589,781.117c-2.219.346-1.2,2.687-1.2,2.687-.468.9.326,1.344.875,2.137s8.977,4.845,10.972,5.008,4.132-2.382,4.132-2.382c1.954-.387,1.629-3.013,1.629-3.013s.448.631,1.628-1.506-1.038-4.132-1.038-4.132c.794-2.707-2.952-3.094-2.952-3.094a92.555,92.555,0,0,0-9.506,0c-2.626.326-1.588,2.789-1.588,2.789C304.691,779.183,304.528,781.117,304.589,781.117Z" transform="translate(-231.225 -689.346)" fill="#ffbe9d"/>
      <path id="Path_14565" data-name="Path 14565" d="M335.275,790.875c-1.1-.061-2.626-.122-4.275-.122a36.642,36.642,0,0,1-4.234-.122,4.895,4.895,0,0,1-1.588-.631c-.061,0,.387.672,1.527.936a25.23,25.23,0,0,0,4.3.265h4.275a7.343,7.343,0,0,0,1.771-.122A7.508,7.508,0,0,0,335.275,790.875Z" transform="translate(-248.761 -699.938)" fill="#eb996e"/>
      <path id="Path_14566" data-name="Path 14566" d="M320.259,798.83a12.909,12.909,0,0,1-2.3-.509l-2.789-.936a11.869,11.869,0,0,0-2.931-.57,4.114,4.114,0,0,1-2.26-.346,1.017,1.017,0,0,1-.489-1.242.919.919,0,0,1,.326-.448c0-.02-.285,0-.489.387a1.185,1.185,0,0,0-.1.753,1.372,1.372,0,0,0,.57.814,4.448,4.448,0,0,0,2.4.489,13.417,13.417,0,0,1,2.83.57c.977.305,1.913.631,2.809.875a11.94,11.94,0,0,0,2.382.427,6.213,6.213,0,0,0,1.629-.1,1.91,1.91,0,0,0,.57-.2A10.922,10.922,0,0,1,320.259,798.83Z" transform="translate(-236.045 -703.741)" fill="#eb996e"/>
      <path id="Path_14567" data-name="Path 14567" d="M308.942,814.29c-3.216-1.018-5.842-1.954-5.842-1.832a7.022,7.022,0,0,0,1.629.773c1.038.407,2.483.957,4.092,1.486s3.094.957,4.173,1.221a7.377,7.377,0,0,0,1.771.346A49.229,49.229,0,0,0,308.942,814.29Z" transform="translate(-231.181 -717.816)" fill="#eb996e"/>
      <path id="Path_14568" data-name="Path 14568" d="M322.9,830.213a35.513,35.513,0,0,0-4.6-1.954,5.316,5.316,0,0,0,1.262.753c.794.427,1.893,1.018,3.155,1.588a17.778,17.778,0,0,0,3.359,1.181,3.968,3.968,0,0,0,1.466.163C327.562,831.862,325.384,831.353,322.9,830.213Z" transform="translate(-243.287 -730.401)" fill="#eb996e"/>
      <path id="Path_14569" data-name="Path 14569" d="M59.6,577.149l.448-6.249s10.158,6.453,14.738,6.453,4.234,7.613,4.234,7.613l-18.952-4.682Z" transform="translate(-37.249 -525.439)" fill="#78aa41"/>
      <path id="Path_14570" data-name="Path 14570" d="M-32.438,643.72l6.066,12.865.265,1.486L-12.693,630l7.389,6.433s-4.377,19.461-7.878,29.394-15.573,15.817-22.046,8.163C-41.924,666.071-47.4,650.4-47.4,650.4Z" transform="translate(47.97 -572.508)" fill="#78aa41"/>
      <path id="Path_14571" data-name="Path 14571" d="M123.1,554.843c.448-1.914,2.931-12.3,3.6-13.089s7.145-5.781,7.145-5.781c1.71-1.323,3.4,2.341,3.4,2.341l-.081,3.115a4.98,4.98,0,0,1,1.588.672c.875.977-.244,2.321-.244,2.463-.081.611,1.425.631,1.873,1.058s-.672,1.893-.651,2.524-.611,3.888-1.242,4.255a14.29,14.29,0,0,1-2.4.753l-5.639,8.183Z" transform="translate(-87.823 -497.392)" fill="#ffbe9d"/>
      <path id="Path_14572" data-name="Path 14572" d="M123.361,553.336c.1-.387.244-.9.407-1.547.366-1.384.875-3.318,1.506-5.7.305-1.2.692-2.5,1.14-3.908.122-.346.224-.692.366-1.038a2.063,2.063,0,0,1,.692-.814c.59-.509,1.2-1.018,1.852-1.527,1.3-1.038,2.667-2.1,4.092-3.2a4.6,4.6,0,0,1,1.059-.712,1.252,1.252,0,0,1,1.12.305,6.2,6.2,0,0,1,1.588,2.178v.855c-.02.733-.061,1.466-.061,2.178v.163l.163.041a9.617,9.617,0,0,1,1.079.366,1.163,1.163,0,0,1,.427.265,1.464,1.464,0,0,1,.244.427,1.683,1.683,0,0,1-.081,1,5.217,5.217,0,0,1-.224.489l-.142.244v.081a.377.377,0,0,0-.041.143.663.663,0,0,0,.57.651c.183.061.366.122.529.183l.509.163a.864.864,0,0,1,.346.2.628.628,0,0,1,0,.387,3.164,3.164,0,0,1-.163.468c-.122.305-.285.631-.427.977a2.579,2.579,0,0,0-.122.57c0,.143-.041.326-.041.489-.041.326-.1.651-.163.977a13.459,13.459,0,0,1-.489,1.832,2.532,2.532,0,0,1-.387.733,2.724,2.724,0,0,1-.753.326,16.515,16.515,0,0,1-1.649.448h-.061v.041l-4.092,6.025-1.1,1.629a3.445,3.445,0,0,0-.346.59,2.84,2.84,0,0,0,.427-.55l1.16-1.628,4.173-5.944-.081.061c.509-.122,1.059-.265,1.629-.448a2.806,2.806,0,0,0,.875-.387,2.316,2.316,0,0,0,.489-.875,12.219,12.219,0,0,0,.529-1.873c.081-.326.122-.651.183-1,.02-.183.041-.346.061-.529a1.016,1.016,0,0,1,.1-.427c.122-.305.265-.631.407-.957a2.326,2.326,0,0,0,.183-.529.954.954,0,0,0,0-.672,1.046,1.046,0,0,0-.529-.366c-.183-.081-.366-.122-.55-.183a3.433,3.433,0,0,1-.489-.163c-.163-.061-.326-.163-.326-.224v-.061h0V543.5l.142-.244a2.252,2.252,0,0,0,.244-.55,2,2,0,0,0,.1-1.242,1.548,1.548,0,0,0-.305-.57,1.627,1.627,0,0,0-.55-.366,7.513,7.513,0,0,0-1.14-.387l.163.2c.02-.712.061-1.425.061-2.158v-1.018h0a6.75,6.75,0,0,0-1.73-2.341,1.609,1.609,0,0,0-1.466-.346,4.7,4.7,0,0,0-1.181.814c-1.445,1.1-2.809,2.178-4.092,3.216-.631.529-1.262,1.038-1.852,1.567a2.656,2.656,0,0,0-.774.936c-.142.366-.244.712-.366,1.059-.427,1.4-.774,2.728-1.1,3.929-.611,2.463-1.079,4.377-1.384,5.74-.142.651-.244,1.16-.346,1.547a2.562,2.562,0,0,0-.081.55C123.3,553.7,123.341,553.519,123.361,553.336Z" transform="translate(-87.982 -496.393)" fill="#eb996e"/>
      <path id="Path_14573" data-name="Path 14573" d="M150.325,562.852a9.345,9.345,0,0,0-1.832.326,9.924,9.924,0,0,1-2.2,0,4.678,4.678,0,0,0-2.3.285,4.335,4.335,0,0,0-1.547,1.079,2.076,2.076,0,0,0-.651,1.567,4.058,4.058,0,0,1,4.5-2.565,8.705,8.705,0,0,0,2.3,0,11.118,11.118,0,0,1,1.771-.407c1.018-.122,1.69-.041,1.69-.122A5.555,5.555,0,0,0,150.325,562.852Z" transform="translate(-102.711 -519.019)" fill="#eb996e"/>
      <path id="Path_14574" data-name="Path 14574" d="M179.611,555.587c0-.407.081-.753,0-.814s-.387.285-.427.814.224.916.326.875S179.611,555.994,179.611,555.587Z" transform="translate(-132.486 -512.589)" fill="#eb996e"/>
      <path id="Path_14575" data-name="Path 14575" d="M161.477,575.315a4.863,4.863,0,0,0-1.954-.2,2.152,2.152,0,0,0-1.323.977,2.277,2.277,0,0,0-.407,1.4c.183-.427.407-.835.631-1.242a1.935,1.935,0,0,1,1.181-.753,4.823,4.823,0,0,1,1.791.224,13.755,13.755,0,0,0,4.906.387C166.322,575.967,164.123,575.885,161.477,575.315Z" transform="translate(-115.452 -528.775)" fill="#eb996e"/>
      <path id="Path_14576" data-name="Path 14576" d="M174.536,589.934c-.712-.143-1.669-.448-2.789-.672a5.452,5.452,0,0,0-1.628-.122,1.991,1.991,0,0,0-1.242.55,1.417,1.417,0,0,0-.407.814.452.452,0,0,0,.061.326,1.61,1.61,0,0,1,.529-.957,1.763,1.763,0,0,1,1.1-.387,6.2,6.2,0,0,1,1.506.143c1.079.2,2.076.468,2.809.55a2.4,2.4,0,0,0,1.2,0A10.274,10.274,0,0,0,174.536,589.934Z" transform="translate(-123.951 -539.954)" fill="#eb996e"/>
      <path id="Path_14577" data-name="Path 14577" d="M185.477,606.224h-.183v.183l-.081.529a6.052,6.052,0,0,0-.061,2.1,5.508,5.508,0,0,0,.468-2.056,4.334,4.334,0,0,0,.061-.509l-.2.163c1.018,0,1.567-.57,1.486-.631A7.283,7.283,0,0,1,185.477,606.224Z" transform="translate(-137.192 -553.394)" fill="#eb996e"/>
      <path id="Path_14578" data-name="Path 14578" d="M-33.1,640.07l4.5,11.318-15.573,9.262s-6.005-6.412-6.025-20.967,9.018-16.183,9.018-16.183Z" transform="translate(50.2 -567.331)" fill="#78aa41"/>
      <path id="Path_14579" data-name="Path 14579" d="M-9.1,638.214a1.188,1.188,0,0,1,.875.081,3.263,3.263,0,0,1,.774.468,9.394,9.394,0,0,1,1.282,1.262,22.526,22.526,0,0,1,2.056,2.952,63.022,63.022,0,0,1,3.237,6.412c.957,2.2,1.832,4.417,2.667,6.677s1.588,4.519,2.3,6.8h0c.1.55.2,1.12.305,1.669-.142-.55-.265-1.1-.407-1.649h0c-.835-2.239-1.669-4.478-2.524-6.718s-1.751-4.438-2.707-6.636-1.975-4.356-3.135-6.432a23.574,23.574,0,0,0-1.954-2.992,9.121,9.121,0,0,0-1.2-1.3,3.628,3.628,0,0,0-.733-.509A1.442,1.442,0,0,0-9.1,638.214Z" transform="translate(17.466 -579.012)" fill="#263238"/>
      <path id="Path_14580" data-name="Path 14580" d="M160.168,451.2s0,1.262-.468,1.445" transform="translate(-116.972 -430.105)" fill="none" stroke="#eb996e" stroke-width="1"/>
      <path id="Path_14581" data-name="Path 14581" d="M166.3,453.7s.183.977.651,1.221" transform="translate(-122.229 -432.096)" fill="none" stroke="#eb996e" stroke-width="1"/>
      <path id="Path_14582" data-name="Path 14582" d="M171.927,456.7s-.387,1.262,0,1.384" transform="translate(-126.574 -434.486)" fill="none" stroke="#eb996e" stroke-width="1"/>
      <path id="Path_14583" data-name="Path 14583" d="M115.688,519a5.8,5.8,0,0,1,1.364,3.522,4.453,4.453,0,0,1-.366,1.913,5.538,5.538,0,0,1-1.079,1.628A4.524,4.524,0,0,1,113,527.387a5.234,5.234,0,0,1-.977.041,7.714,7.714,0,0,1-3.623-1.181,9.111,9.111,0,0,0,1.771.611,7.122,7.122,0,0,0,1.852.244,4.9,4.9,0,0,0,1.791-.326,3.96,3.96,0,0,0,1.486-1.018,4.833,4.833,0,0,0,1.425-3.257,5.549,5.549,0,0,0-.265-1.832A6.186,6.186,0,0,0,115.688,519Z" transform="translate(-76.115 -484.104)" fill="#eb996e"/>
    </g>
    <path id="Path_14584" data-name="Path 14584" d="M-5.347,662.7l-2.585,9.771-2.626,9.751h0a55.368,55.368,0,0,1-1.567,6.005,50.292,50.292,0,0,1-2.26,5.8,27.9,27.9,0,0,1-3.176,5.354,16.216,16.216,0,0,1-2.117,2.3,10.268,10.268,0,0,1-2.606,1.751,8.372,8.372,0,0,1-3.053.794,11.56,11.56,0,0,1-3.135-.183,14.373,14.373,0,0,1-5.679-2.565,23.763,23.763,0,0,1-4.478-4.336c-.651-.814-1.262-1.649-1.832-2.524a29.769,29.769,0,0,1-1.567-2.687l.041.041a5.46,5.46,0,0,1-.57-.611,7.765,7.765,0,0,1-.489-.651c-.305-.448-.611-.9-.875-1.364a22.135,22.135,0,0,1-1.384-2.891c-.387-1-.733-2.015-1.018-3.033q-.427-1.557-.733-3.115a51.041,51.041,0,0,1-.774-6.351c-.122-2.137-.142-4.275-.061-6.392-.041,2.137.02,4.254.163,6.392a50.588,50.588,0,0,0,.875,6.31c.224,1.038.468,2.076.753,3.094a27.74,27.74,0,0,0,1.038,3.013,19.477,19.477,0,0,0,1.4,2.85c.265.448.55.9.855,1.323a9.422,9.422,0,0,0,1.018,1.181l.02.02.02.02a31.9,31.9,0,0,0,3.379,5.13,23.635,23.635,0,0,0,4.417,4.255,13.915,13.915,0,0,0,5.537,2.483,11.636,11.636,0,0,0,3.033.163,7.893,7.893,0,0,0,2.891-.753,11.167,11.167,0,0,0,2.524-1.69,16.709,16.709,0,0,0,2.076-2.239,28.815,28.815,0,0,0,3.135-5.272,49.383,49.383,0,0,0,2.26-5.74,55.885,55.885,0,0,0,1.628-5.944h0l2.728-9.73Z" transform="translate(-54.763 -513.304)" fill="#263238"/>
    <path id="Path_14585" data-name="Path 14585" d="M74.279,635.019c-1.242-1.059-2.483-2.158-3.725-3.237s-2.463-2.178-3.7-3.257l.2-.041-7.41,16.061-3.664,8.041c-.611,1.344-1.2,2.687-1.791,4.031-.305.672-.59,1.344-.855,2.036-.142.346-.265.692-.407,1.018a6.785,6.785,0,0,0-.326,1.038,6.246,6.246,0,0,1,.285-1.058c.1-.346.244-.692.366-1.038.265-.692.529-1.384.794-2.056.55-1.364,1.12-2.728,1.69-4.071s1.16-2.707,1.771-4.051l1.812-4.031,1.832-4.031,1.873-4.01,1.873-4.01c.631-1.323,1.282-2.646,1.913-3.99l.081-.163.142.122c1.2,1.12,2.422,2.219,3.623,3.338S73.078,633.9,74.279,635.019Z" transform="translate(-134.968 -485.827)" fill="#263238"/>
    <path id="Path_14586" data-name="Path 14586" d="M252.4,865.69a10.329,10.329,0,0,0,1.018,1.934,5.06,5.06,0,0,0,1.547,1.466,3.334,3.334,0,0,0,.977.366,4.559,4.559,0,0,0,1.059.081,6.472,6.472,0,0,0,2.076-.387,9.588,9.588,0,0,0,3.542-2.361,16.346,16.346,0,0,0,2.606-3.42h0l2.646-4.153c.875-1.384,1.771-2.768,2.667-4.153l2.687-4.153c.9-1.384,1.791-2.748,2.707-4.112-.835,1.425-1.71,2.809-2.545,4.214l-2.585,4.193c-.855,1.4-1.73,2.789-2.606,4.193l-2.626,4.173v-.02a16.142,16.142,0,0,1-2.687,3.522,10.013,10.013,0,0,1-3.7,2.422,6.733,6.733,0,0,1-2.2.366,4.119,4.119,0,0,1-1.12-.143,3.908,3.908,0,0,1-1.038-.448,4.74,4.74,0,0,1-1.527-1.588A7.673,7.673,0,0,1,252.4,865.69Z" transform="translate(-294.253 -659.928)" fill="#263238"/>
    <path id="Path_14587" data-name="Path 14587" d="M66.8,578.3a9.28,9.28,0,0,1,.02,1.3c-.02.427-.041.875-.081,1.3s-.1.855-.183,1.282a9.661,9.661,0,0,1-.285,1.282,9.278,9.278,0,0,1-.02-1.3c.02-.427.041-.875.081-1.3s.1-.855.183-1.282A9.664,9.664,0,0,1,66.8,578.3Z" transform="translate(-145.696 -446.085)" fill="#263238"/>
    <path id="Path_14588" data-name="Path 14588" d="M85.8,588.9a9.28,9.28,0,0,1,.02,1.3c-.02.427-.041.855-.081,1.3s-.1.855-.183,1.282-.163.855-.285,1.282a9.277,9.277,0,0,1-.02-1.3c.02-.427.041-.875.081-1.3s.1-.855.183-1.282A8.417,8.417,0,0,1,85.8,588.9Z" transform="translate(-160.828 -454.527)" fill="#263238"/>
    <path id="Path_14589" data-name="Path 14589" d="M106.4,599.8a9.28,9.28,0,0,1,.02,1.3c-.02.427-.041.855-.081,1.3s-.1.855-.183,1.282a9.659,9.659,0,0,1-.285,1.282,9.279,9.279,0,0,1-.02-1.3c.02-.427.041-.875.081-1.3s.1-.855.183-1.282A6.528,6.528,0,0,1,106.4,599.8Z" transform="translate(-177.39 -463.208)" fill="#263238"/>
    <path id="Path_14590" data-name="Path 14590" d="M-39.2,711.874a17.673,17.673,0,0,1,1.242-1.527q.672-.733,1.4-1.4a30.041,30.041,0,0,1,3.094-2.483l.407-.285.407-.265c.285-.163.57-.346.855-.509.59-.305,1.16-.651,1.751-.916.305-.143.59-.285.9-.407l.936-.366c.305-.122.631-.224.936-.326s.631-.2.936-.285a28.442,28.442,0,0,0-3.6,1.588c-.59.285-1.16.611-1.73.936-.285.163-.55.346-.835.529l-.407.265-.407.285c-.265.183-.55.366-.814.57l-.794.59-.774.611c-.244.2-.489.427-.753.631-.489.427-.977.875-1.445,1.344S-38.773,711.365-39.2,711.874Z" transform="translate(-61.724 -545.48)" fill="#fff"/>
    <path id="Path_14591" data-name="Path 14591" d="M-28.8,726.794a17.956,17.956,0,0,1,1.242-1.547c.448-.489.916-.957,1.384-1.4a26.229,26.229,0,0,1,3.094-2.483l.407-.285.427-.265c.285-.163.55-.346.855-.509.59-.305,1.14-.651,1.751-.916.305-.143.59-.285.9-.407l.916-.366c.305-.122.631-.224.936-.326s.631-.2.936-.285a31.57,31.57,0,0,0-3.6,1.567c-.59.285-1.16.631-1.73.936-.285.163-.55.346-.835.529l-.407.265-.407.285c-.265.183-.55.366-.814.57l-.794.59-.774.611c-.244.2-.489.427-.753.631-.489.427-.977.875-1.445,1.344C-27.9,725.8-28.352,726.285-28.8,726.794Z" transform="translate(-70.007 -557.347)" fill="#fff"/>
    <path id="Path_14592" data-name="Path 14592" d="M257.307,786.356c-1.4.163-2.809.244-4.193.305s-2.809.081-4.214.02c1.4-.163,2.789-.244,4.214-.305S255.9,786.295,257.307,786.356Z" transform="translate(-291.442 -611.759)" fill="#fff"/>
    <path id="Path_14593" data-name="Path 14593" d="M257.307,797.789c-1.4.163-2.809.244-4.193.305s-2.809.081-4.214.02c1.4-.163,2.789-.244,4.214-.305S255.9,797.748,257.307,797.789Z" transform="translate(-291.442 -620.871)" fill="#fff"/>
    <circle id="Ellipse_3-2" cx="6.819" cy="6.819" r="6.819" transform="translate(49.127 155.177)" fill="#cae1e5"/>
    <path id="Path_14594" data-name="Path 14594" d="M30.516,997.153h0l-140.906-.02c.02.041.02.1.041.143-2.117-.041-4.234-.081-6.351-.143,2.076-.041,4.173-.1,6.249-.142,3.807-.081,7.613-.143,11.44-.2,6.412-.1,12.845-.163,19.257-.224,6.148-.061,12.316-.081,18.463-.122l18.463-.041h.977l17.486.041c6.148.041,12.316.041,18.463.122,12.132.1,24.244.244,36.377.55a5.342,5.342,0,0,1,.57.02A4.96,4.96,0,0,0,30.516,997.153Z" transform="translate(0 -779.075)" fill="#fff"/>
    <text id="Care_Plan" data-name="Care Plan" transform="translate(40.427 31.97)" fill="#fff" font-size="7" font-family="Lato" font-weight="700"><tspan x="0" y="0">Care Plan</tspan></text>
    <path id="Path_14595" data-name="Path 14595" d="M568.116,375h66.076a.912.912,0,0,1,.916.916v2.952a.912.912,0,0,1-.916.916H568.116a.912.912,0,0,1-.916-.916v-2.952A.925.925,0,0,1,568.116,375Z" transform="translate(-545.419 -284.169)" fill="#63aad8"/>
    <path id="Path_14596" data-name="Path 14596" d="M568.116,409.2h66.076a.912.912,0,0,1,.916.916v2.952a.912.912,0,0,1-.916.916H568.116a.912.912,0,0,1-.916-.916v-2.952A.925.925,0,0,1,568.116,409.2Z" transform="translate(-545.419 -311.407)" fill="#63aad8"/>
    <path id="Path_14597" data-name="Path 14597" d="M568.116,443.5h66.076a.912.912,0,0,1,.916.916v2.952a.912.912,0,0,1-.916.916H568.116a.912.912,0,0,1-.916-.916v-2.952A.912.912,0,0,1,568.116,443.5Z" transform="translate(-545.419 -338.725)" fill="#63aad8"/>
    <text id="Visit_the_doctor_in_1-2_days" data-name="Visit the doctor in 1-2 days" transform="translate(21.622 52.932)" fill="#4e7b96" font-size="5" font-family="Lato" font-weight="700"><tspan x="0" y="0">Visit the doctor in 1-2 days</tspan></text>
    <path id="Path_14598" data-name="Path 14598" d="M548.92,179.348,550.2,177.9l-1.3-1.3" transform="translate(-530.574 -126.156)" fill="none" stroke="#fff" stroke-linecap="round" stroke-width="1"/>
    <text id="High_Urgency" data-name="High Urgency" transform="translate(21.807 69.991)" fill="#e63946" font-size="5" font-family="Lato" font-weight="700"><tspan x="0" y="0">High Urgency</tspan></text>
    <path id="Path_14599" data-name="Path 14599" d="M548.92,263.148,550.2,261.7l-1.3-1.3" transform="translate(-530.574 -192.897)" fill="none" stroke="#fff" stroke-linecap="round" stroke-width="1"/>
    <text id="Prescription" transform="translate(21.813 86.76)" fill="#4e7b96" font-size="5" font-family="Lato" font-weight="700"><tspan x="0" y="0">Prescription</tspan></text>
    <path id="Path_14600" data-name="Path 14600" d="M548.92,345.468l1.282-1.445-1.3-1.323" transform="translate(-530.574 -258.444)" fill="none" stroke="#fff" stroke-linecap="round" stroke-width="1"/>
    <text id="A_care_plan_anyone_can_understand" data-name="A care plan anyone can 
understand" transform="translate(21.622 123.273)" fill="#4e7b96" font-size="5" font-family="Lato" font-weight="700"><tspan x="0" y="0">A care plan anyone can </tspan><tspan x="0" y="6">understand</tspan></text>
    <path id="Path_14601" data-name="Path 14601" d="M548.92,524.868l1.282-1.445-1.3-1.323" transform="translate(-530.574 -401.325)" fill="none" stroke="#fff" stroke-linecap="round" stroke-width="1"/>
  </g>
</svg>
