<svg xmlns="http://www.w3.org/2000/svg" width="200" height="200" viewBox="0 0 200 200">
  <g id="Illustrations-04" transform="translate(-46.359 -10)">
    <path id="Rectangle_1079" d="M5730.022-3514h102.172a4.034,4.034,0,0,1,4.022,4.022v20.113a4.034,4.034,0,0,1-4.022,4.022H5730.022a4.034,4.034,0,0,1-4.022-4.022v-20.113A4.034,4.034,0,0,1,5730.022-3514Z" transform="translate(-5679.641 3605.053)" fill="#3c97d3" opacity="0.2"/>
    <text id="Dr._Powell_has_a_question_for_you" data-name="Dr. Powell has a question for you" transform="translate(52.393 112.747)" fill="#fff" font-size="5" font-family="Lato"><tspan x="0" y="0">Dr. Powell has a question for you</tspan></text>
    <g id="Group_663" transform="translate(52.393 96.082)">
      <text id="_09:32" data-name="09:32" transform="translate(84.674 5.805)" fill="#fff" font-size="5" font-family="Lato"><tspan x="0" y="0">09:32</tspan></text>
      <g id="Logo-01" transform="translate(0 0)">
        <g id="Group_1" transform="translate(18.504 3.998)">
          <path id="Path_1" d="M10.382,10a.275.275,0,0,1,.282.282v2.655a.357.357,0,0,1-.08.2.258.258,0,0,1-.2.08.27.27,0,0,1-.282-.261V10.282a.258.258,0,0,1,.08-.2A.233.233,0,0,1,10.382,10Zm-.02,1.327h2.051v.523H10.361ZM12.393,10a.27.27,0,0,1,.282.261v2.675a.258.258,0,0,1-.08.2.3.3,0,0,1-.221.08.275.275,0,0,1-.282-.282V10.282a.357.357,0,0,1,.08-.2A.374.374,0,0,1,12.393,10Z" transform="translate(-10.1 -10)" fill="#fff"/>
          <path id="Path_2" d="M25.487,16.134a1.37,1.37,0,0,1-.684-.161,1.169,1.169,0,0,1-.442-.442,1.369,1.369,0,0,1-.161-.623,1.715,1.715,0,0,1,.161-.7,1.169,1.169,0,0,1,.442-.442,1.138,1.138,0,0,1,.563-.161,1.1,1.1,0,0,1,.442.1,1.194,1.194,0,0,1,.362.261,1.612,1.612,0,0,1,.261.382,1.193,1.193,0,0,1,.1.463.3.3,0,0,1-.08.181.34.34,0,0,1-.2.06H24.5l-.141-.463H26.05l-.08.1v-.121a.418.418,0,0,0-.1-.241.511.511,0,0,0-.2-.161.619.619,0,0,0-.261-.06,1.177,1.177,0,0,0-.261.04.417.417,0,0,0-.2.121.7.7,0,0,0-.141.241,1.139,1.139,0,0,0-.06.362,1,1,0,0,0,.1.422.683.683,0,0,0,.6.342,1.063,1.063,0,0,0,.261-.02,1.386,1.386,0,0,0,.161-.06l.121-.06a.379.379,0,0,1,.161-.04.241.241,0,0,1,.241.221h0a.273.273,0,0,1-.121.221,1.118,1.118,0,0,1-.342.181A2.937,2.937,0,0,1,25.487,16.134Z" transform="translate(-21.364 -12.876)" fill="#fff"/>
          <path id="Path_3" d="M38.572,13.5a.275.275,0,0,1,.282.282v1.931a.258.258,0,0,1-.08.2.306.306,0,0,1-.4,0,.258.258,0,0,1-.08-.2v-.221l.1.04a.183.183,0,0,1-.06.141.475.475,0,0,1-.181.161,1.084,1.084,0,0,1-.261.141.911.911,0,0,1-.322.06A1.081,1.081,0,0,1,37,15.873a.951.951,0,0,1-.4-.442,1.536,1.536,0,0,1,0-1.327,1.07,1.07,0,0,1,.4-.442,1.081,1.081,0,0,1,.563-.161,1.139,1.139,0,0,1,.362.06.789.789,0,0,1,.282.161.768.768,0,0,1,.181.181.228.228,0,0,1,.06.161l-.161.06v-.342a.258.258,0,0,1,.08-.2A.425.425,0,0,1,38.572,13.5Zm-.925,2.051a.82.82,0,0,0,.362-.1.669.669,0,0,0,.241-.282.872.872,0,0,0,.08-.382.959.959,0,0,0-.08-.4.819.819,0,0,0-.241-.282.7.7,0,0,0-.362-.1.678.678,0,0,0-.342.1.669.669,0,0,0-.241.282.9.9,0,0,0-.08.4.768.768,0,0,0,.322.664.678.678,0,0,0,.342.1Z" transform="translate(-31.15 -12.796)" fill="#fff"/>
          <path id="Path_4" d="M50.963,13.016a.2.2,0,0,1-.08.181.292.292,0,0,1-.4,0,.218.218,0,0,1-.08-.181V10.361a.2.2,0,0,1,.08-.181.292.292,0,0,1,.4,0,.3.3,0,0,1,.08.181v2.655Z" transform="translate(-42.295 -10.08)" fill="#fff"/>
          <path id="Path_5" d="M54.261,11.683h1.086a.249.249,0,0,1,.261.241v.02a.246.246,0,0,1-.08.181.3.3,0,0,1-.181.08H54.261A.249.249,0,0,1,54,11.965v-.02a.246.246,0,0,1,.08-.181A.218.218,0,0,1,54.261,11.683Zm.483-.583a.275.275,0,0,1,.282.282v2.031a.151.151,0,0,0,.02.1l.06.06a.343.343,0,0,0,.2,0,.181.181,0,0,1,.1-.02.174.174,0,0,1,.121.06.251.251,0,0,1-.04.342c-.02.02-.02.02-.04.02a.568.568,0,0,1-.3.08.825.825,0,0,1-.221-.02.72.72,0,0,1-.221-.08.519.519,0,0,1-.181-.181.559.559,0,0,1-.06-.362V11.382a.3.3,0,0,1,.282-.282Z" transform="translate(-45.171 -10.879)" fill="#fff"/>
          <path id="Path_6" d="M64.427,10.8a.739.739,0,0,1,.5.141.7.7,0,0,1,.241.382,2.319,2.319,0,0,1,.06.523v1.167a.258.258,0,0,1-.08.2.306.306,0,0,1-.4,0,.258.258,0,0,1-.08-.2V11.85a1.358,1.358,0,0,0-.04-.282.34.34,0,0,0-.141-.2.462.462,0,0,0-.282-.08.568.568,0,0,0-.3.08.44.44,0,0,0-.181.2.642.642,0,0,0-.06.282v1.167a.258.258,0,0,1-.08.2.306.306,0,0,1-.4,0,.258.258,0,0,1-.08-.2V10.4a.258.258,0,0,1,.08-.2.306.306,0,0,1,.4,0,.258.258,0,0,1,.08.2v.945l-.06-.02a1.116,1.116,0,0,1,.121-.161A1.3,1.3,0,0,1,63.9,11a1.52,1.52,0,0,1,.523-.2Z" transform="translate(-52.44 -10.1)" fill="#fff"/>
        </g>
        <g id="Group_3" transform="translate(4.559 4.026)">
          <g id="Group_2" transform="translate(0 0)">
            <path id="Path_7" d="M10.987,13.2a1.081,1.081,0,0,1,.563.161,1.225,1.225,0,0,1,.4.442,1.406,1.406,0,0,1,0,1.267,1.209,1.209,0,0,1-.4.442,1.081,1.081,0,0,1-.563.161,1.76,1.76,0,0,1-.322-.04,1.839,1.839,0,0,1-.282-.141,1.054,1.054,0,0,1-.221-.2A1.14,1.14,0,0,1,10,15.03l.08-.06v1.468a.154.154,0,0,1-.04.1.134.134,0,0,1-.2,0h0a.154.154,0,0,1-.04-.1V13.361a.141.141,0,1,1,.282,0v.5l-.06-.04a1.084,1.084,0,0,1,.141-.261.98.98,0,0,1,.483-.322A1.117,1.117,0,0,1,10.987,13.2Zm-.02.261a.811.811,0,0,0-.442.121.83.83,0,0,0-.3.342,1.108,1.108,0,0,0,0,1.006.83.83,0,0,0,.3.342.872.872,0,0,0,.885,0,.83.83,0,0,0,.3-.342,1.108,1.108,0,0,0,0-1.006.83.83,0,0,0-.3-.342A.861.861,0,0,0,10.967,13.461Z" transform="translate(-9.8 -12.556)" fill="#fff"/>
            <path id="Path_8" d="M22.241,15.474a.137.137,0,0,1-.141-.141V13.2a.154.154,0,0,1,.04-.1.134.134,0,0,1,.2,0h0a.154.154,0,0,1,.04.1v.7l-.08.02a1.507,1.507,0,0,1,.08-.322,1.2,1.2,0,0,1,.181-.3.978.978,0,0,1,.282-.221.789.789,0,0,1,.362-.08.379.379,0,0,1,.161.04.136.136,0,0,1,.08.121.14.14,0,0,1-.121.141.181.181,0,0,1-.1-.02.255.255,0,0,0-.121-.02.4.4,0,0,0-.261.08.8.8,0,0,0-.241.2.757.757,0,0,0-.181.3.911.911,0,0,0-.06.322v1.167a.113.113,0,0,1-.121.141Z" transform="translate(-19.626 -12.397)" fill="#fff"/>
            <path id="Path_9" d="M30.413,14.327a1.451,1.451,0,0,1-.161.644,1.118,1.118,0,0,1-.422.442,1.18,1.18,0,0,1-1.207,0,1.118,1.118,0,0,1-.422-.442,1.448,1.448,0,0,1,0-1.287,1.118,1.118,0,0,1,.422-.442,1.18,1.18,0,0,1,1.207,0,1.118,1.118,0,0,1,.422.442A1.327,1.327,0,0,1,30.413,14.327Zm-.282,0a1.033,1.033,0,0,0-.121-.5,1.1,1.1,0,0,0-.322-.362.89.89,0,0,0-.945,0,.811.811,0,0,0-.322.362,1.153,1.153,0,0,0-.121.5,1.033,1.033,0,0,0,.121.5,1.1,1.1,0,0,0,.322.362.763.763,0,0,0,.463.121.934.934,0,0,0,.463-.121.811.811,0,0,0,.322-.362.955.955,0,0,0,.141-.5Z" transform="translate(-24.379 -12.457)" fill="#fff"/>
            <path id="Path_10" d="M41.786,13.2a.754.754,0,0,1,.5.161.856.856,0,0,1,.282.463l-.06.02.02-.08a.653.653,0,0,1,.2-.261,1.081,1.081,0,0,1,.322-.2,1.176,1.176,0,0,1,.382-.08,1.011,1.011,0,0,1,.483.121.633.633,0,0,1,.261.342,1.352,1.352,0,0,1,.08.483v1.348a.154.154,0,0,1-.04.1.134.134,0,0,1-.2,0h0a.154.154,0,0,1-.04-.1V14.165a1.139,1.139,0,0,0-.06-.362.515.515,0,0,0-.2-.261.7.7,0,0,0-.362-.1.753.753,0,0,0-.362.1.593.593,0,0,0-.282.261.562.562,0,0,0-.121.362v1.327a.154.154,0,0,1-.04.1.134.134,0,0,1-.2,0h0a.154.154,0,0,1-.04-.1V14.145a.939.939,0,0,0-.06-.342.549.549,0,0,0-.181-.241.678.678,0,0,0-.342-.1.753.753,0,0,0-.362.1.819.819,0,0,0-.282.241.526.526,0,0,0-.1.342v1.348a.137.137,0,0,1-.141.141.137.137,0,0,1-.141-.141V13.361a.154.154,0,0,1,.04-.1.134.134,0,0,1,.2,0h0a.154.154,0,0,1,.04.1V13.8l-.121.181a.676.676,0,0,1,.1-.282,1.291,1.291,0,0,1,.2-.261.844.844,0,0,1,.282-.181A.939.939,0,0,1,41.786,13.2Z" transform="translate(-34.485 -12.556)" fill="#fff"/>
            <path id="Path_11" d="M61.167,13.2a1.081,1.081,0,0,1,.563.161,1.225,1.225,0,0,1,.4.442,1.406,1.406,0,0,1,0,1.267,1.209,1.209,0,0,1-.4.442,1.081,1.081,0,0,1-.563.161,1.76,1.76,0,0,1-.322-.04,1.084,1.084,0,0,1-.261-.141,1.054,1.054,0,0,1-.221-.2,1.14,1.14,0,0,1-.161-.261l.08-.06v1.468a.154.154,0,0,1-.04.1.134.134,0,0,1-.2,0h0a.154.154,0,0,1-.04-.1V13.361a.141.141,0,1,1,.282,0v.5l-.06-.04a1.084,1.084,0,0,1,.141-.261.98.98,0,0,1,.483-.322A.941.941,0,0,1,61.167,13.2Zm-.02.261a.811.811,0,0,0-.442.121.83.83,0,0,0-.3.342,1.108,1.108,0,0,0,0,1.006.83.83,0,0,0,.3.342.872.872,0,0,0,.885,0,.83.83,0,0,0,.3-.342,1.108,1.108,0,0,0,0-1.006.83.83,0,0,0-.3-.342A.861.861,0,0,0,61.146,13.461Z" transform="translate(-49.903 -12.556)" fill="#fff"/>
            <path id="Path_12" d="M70.941,10.664h1.106c.04,0,.06.02.1.04a.154.154,0,0,1,.04.1.1.1,0,0,1-.04.08.154.154,0,0,1-.1.04H70.941a.137.137,0,0,1-.141-.141c0-.04.02-.06.04-.1A.871.871,0,0,1,70.941,10.664ZM71.423,10a.137.137,0,0,1,.141.141v2.373a.363.363,0,0,0,.04.2.134.134,0,0,0,.1.08.255.255,0,0,0,.121.02.074.074,0,0,0,.06-.02c.02,0,.04-.02.06-.02a.142.142,0,0,1,.121.121.165.165,0,0,1-.08.121.3.3,0,0,1-.181.04h-.121A.324.324,0,0,1,71.5,13a.358.358,0,0,1-.141-.161.911.911,0,0,1-.06-.322V10.141a.154.154,0,0,1,.04-.1c0-.02.04-.04.08-.04Z" transform="translate(-58.531 -10)" fill="#fff"/>
          </g>
        </g>
        <g id="Group_4" transform="translate(0 0)">
          <circle id="Ellipse_1" cx="0.503" cy="0.503" r="0.503" transform="translate(3.057 3.982)" fill="#fff"/>
          <circle id="Ellipse_2" cx="1.026" cy="1.026" r="1.026" transform="translate(1.006 4.425)" fill="#fff"/>
          <circle id="Ellipse_3" cx="2.031" cy="2.031" r="2.031" transform="translate(0 0)" fill="#fff"/>
        </g>
      </g>
    </g>
    <path id="Rectangle_1079-2" d="M5730.022-3514h102.172a4.034,4.034,0,0,1,4.022,4.022v26.549a4.034,4.034,0,0,1-4.022,4.022H5730.022a4.034,4.034,0,0,1-4.022-4.022v-26.549A4.034,4.034,0,0,1,5730.022-3514Z" transform="translate(-5679.641 3564.627)" fill="#3c97d3" opacity="0.2"/>
    <text id="Your_prompt_has_been_assigned_to" data-name="Your prompt has been assigned to" transform="translate(52.393 72.32)" fill="#fff" font-size="5" font-family="Lato"><tspan x="0" y="0">Your prompt has been assigned to</tspan></text>
    <text id="Dr._Powell" data-name="Dr. Powell" transform="translate(52.393 78.837)" fill="#fff" font-size="5" font-family="Lato"><tspan x="0" y="0">Dr. Powell</tspan></text>
    <g id="Group_663-2" transform="translate(52.393 55.655)">
      <text id="_09:28" data-name="09:28" transform="translate(84.674 5.805)" fill="#fff" font-size="5" font-family="Lato"><tspan x="0" y="0">09:28</tspan></text>
      <g id="Logo-01-2" transform="translate(0 0)">
        <g id="Group_1-2" transform="translate(18.504 3.998)">
          <path id="Path_1-2" d="M10.382,10a.275.275,0,0,1,.282.282v2.655a.357.357,0,0,1-.08.2.258.258,0,0,1-.2.08.27.27,0,0,1-.282-.261V10.282a.258.258,0,0,1,.08-.2A.233.233,0,0,1,10.382,10Zm-.02,1.327h2.051v.523H10.361ZM12.393,10a.27.27,0,0,1,.282.261v2.675a.258.258,0,0,1-.08.2.3.3,0,0,1-.221.08.275.275,0,0,1-.282-.282V10.282a.357.357,0,0,1,.08-.2A.374.374,0,0,1,12.393,10Z" transform="translate(-10.1 -10)" fill="#fff"/>
          <path id="Path_2-2" d="M25.487,16.134a1.37,1.37,0,0,1-.684-.161,1.169,1.169,0,0,1-.442-.442,1.369,1.369,0,0,1-.161-.623,1.715,1.715,0,0,1,.161-.7,1.169,1.169,0,0,1,.442-.442,1.138,1.138,0,0,1,.563-.161,1.1,1.1,0,0,1,.442.1,1.194,1.194,0,0,1,.362.261,1.612,1.612,0,0,1,.261.382,1.193,1.193,0,0,1,.1.463.3.3,0,0,1-.08.181.34.34,0,0,1-.2.06H24.5l-.141-.463H26.05l-.08.1v-.121a.418.418,0,0,0-.1-.241.511.511,0,0,0-.2-.161.619.619,0,0,0-.261-.06,1.177,1.177,0,0,0-.261.04.417.417,0,0,0-.2.121.7.7,0,0,0-.141.241,1.139,1.139,0,0,0-.06.362,1,1,0,0,0,.1.422.683.683,0,0,0,.6.342,1.063,1.063,0,0,0,.261-.02,1.386,1.386,0,0,0,.161-.06l.121-.06a.379.379,0,0,1,.161-.04.241.241,0,0,1,.241.221h0a.273.273,0,0,1-.121.221,1.118,1.118,0,0,1-.342.181A2.937,2.937,0,0,1,25.487,16.134Z" transform="translate(-21.364 -12.876)" fill="#fff"/>
          <path id="Path_3-2" d="M38.572,13.5a.275.275,0,0,1,.282.282v1.931a.258.258,0,0,1-.08.2.306.306,0,0,1-.4,0,.258.258,0,0,1-.08-.2v-.221l.1.04a.183.183,0,0,1-.06.141.475.475,0,0,1-.181.161,1.084,1.084,0,0,1-.261.141.911.911,0,0,1-.322.06A1.081,1.081,0,0,1,37,15.873a.951.951,0,0,1-.4-.442,1.536,1.536,0,0,1,0-1.327,1.07,1.07,0,0,1,.4-.442,1.081,1.081,0,0,1,.563-.161,1.139,1.139,0,0,1,.362.06.789.789,0,0,1,.282.161.768.768,0,0,1,.181.181.228.228,0,0,1,.06.161l-.161.06v-.342a.258.258,0,0,1,.08-.2A.425.425,0,0,1,38.572,13.5Zm-.925,2.051a.82.82,0,0,0,.362-.1.669.669,0,0,0,.241-.282.872.872,0,0,0,.08-.382.959.959,0,0,0-.08-.4.819.819,0,0,0-.241-.282.7.7,0,0,0-.362-.1.678.678,0,0,0-.342.1.669.669,0,0,0-.241.282.9.9,0,0,0-.08.4.768.768,0,0,0,.322.664.678.678,0,0,0,.342.1Z" transform="translate(-31.15 -12.796)" fill="#fff"/>
          <path id="Path_4-2" d="M50.963,13.016a.2.2,0,0,1-.08.181.292.292,0,0,1-.4,0,.218.218,0,0,1-.08-.181V10.361a.2.2,0,0,1,.08-.181.292.292,0,0,1,.4,0,.3.3,0,0,1,.08.181v2.655Z" transform="translate(-42.295 -10.08)" fill="#fff"/>
          <path id="Path_5-2" d="M54.261,11.683h1.086a.249.249,0,0,1,.261.241v.02a.246.246,0,0,1-.08.181.3.3,0,0,1-.181.08H54.261A.249.249,0,0,1,54,11.965v-.02a.246.246,0,0,1,.08-.181A.218.218,0,0,1,54.261,11.683Zm.483-.583a.275.275,0,0,1,.282.282v2.031a.151.151,0,0,0,.02.1l.06.06a.343.343,0,0,0,.2,0,.181.181,0,0,1,.1-.02.174.174,0,0,1,.121.06.251.251,0,0,1-.04.342c-.02.02-.02.02-.04.02a.568.568,0,0,1-.3.08.825.825,0,0,1-.221-.02.72.72,0,0,1-.221-.08.519.519,0,0,1-.181-.181.559.559,0,0,1-.06-.362V11.382a.3.3,0,0,1,.282-.282Z" transform="translate(-45.171 -10.879)" fill="#fff"/>
          <path id="Path_6-2" d="M64.427,10.8a.739.739,0,0,1,.5.141.7.7,0,0,1,.241.382,2.319,2.319,0,0,1,.06.523v1.167a.258.258,0,0,1-.08.2.306.306,0,0,1-.4,0,.258.258,0,0,1-.08-.2V11.85a1.358,1.358,0,0,0-.04-.282.34.34,0,0,0-.141-.2.462.462,0,0,0-.282-.08.568.568,0,0,0-.3.08.44.44,0,0,0-.181.2.642.642,0,0,0-.06.282v1.167a.258.258,0,0,1-.08.2.306.306,0,0,1-.4,0,.258.258,0,0,1-.08-.2V10.4a.258.258,0,0,1,.08-.2.306.306,0,0,1,.4,0,.258.258,0,0,1,.08.2v.945l-.06-.02a1.116,1.116,0,0,1,.121-.161A1.3,1.3,0,0,1,63.9,11a1.52,1.52,0,0,1,.523-.2Z" transform="translate(-52.44 -10.1)" fill="#fff"/>
        </g>
        <g id="Group_3-2" transform="translate(4.559 4.026)">
          <g id="Group_2-2" transform="translate(0 0)">
            <path id="Path_7-2" d="M10.987,13.2a1.081,1.081,0,0,1,.563.161,1.225,1.225,0,0,1,.4.442,1.406,1.406,0,0,1,0,1.267,1.209,1.209,0,0,1-.4.442,1.081,1.081,0,0,1-.563.161,1.76,1.76,0,0,1-.322-.04,1.839,1.839,0,0,1-.282-.141,1.054,1.054,0,0,1-.221-.2A1.14,1.14,0,0,1,10,15.03l.08-.06v1.468a.154.154,0,0,1-.04.1.134.134,0,0,1-.2,0h0a.154.154,0,0,1-.04-.1V13.361a.141.141,0,1,1,.282,0v.5l-.06-.04a1.084,1.084,0,0,1,.141-.261.98.98,0,0,1,.483-.322A1.117,1.117,0,0,1,10.987,13.2Zm-.02.261a.811.811,0,0,0-.442.121.83.83,0,0,0-.3.342,1.108,1.108,0,0,0,0,1.006.83.83,0,0,0,.3.342.872.872,0,0,0,.885,0,.83.83,0,0,0,.3-.342,1.108,1.108,0,0,0,0-1.006.83.83,0,0,0-.3-.342A.861.861,0,0,0,10.967,13.461Z" transform="translate(-9.8 -12.556)" fill="#fff"/>
            <path id="Path_8-2" d="M22.241,15.474a.137.137,0,0,1-.141-.141V13.2a.154.154,0,0,1,.04-.1.134.134,0,0,1,.2,0h0a.154.154,0,0,1,.04.1v.7l-.08.02a1.507,1.507,0,0,1,.08-.322,1.2,1.2,0,0,1,.181-.3.978.978,0,0,1,.282-.221.789.789,0,0,1,.362-.08.379.379,0,0,1,.161.04.136.136,0,0,1,.08.121.14.14,0,0,1-.121.141.181.181,0,0,1-.1-.02.255.255,0,0,0-.121-.02.4.4,0,0,0-.261.08.8.8,0,0,0-.241.2.757.757,0,0,0-.181.3.911.911,0,0,0-.06.322v1.167a.113.113,0,0,1-.121.141Z" transform="translate(-19.626 -12.397)" fill="#fff"/>
            <path id="Path_9-2" d="M30.413,14.327a1.451,1.451,0,0,1-.161.644,1.118,1.118,0,0,1-.422.442,1.18,1.18,0,0,1-1.207,0,1.118,1.118,0,0,1-.422-.442,1.448,1.448,0,0,1,0-1.287,1.118,1.118,0,0,1,.422-.442,1.18,1.18,0,0,1,1.207,0,1.118,1.118,0,0,1,.422.442A1.327,1.327,0,0,1,30.413,14.327Zm-.282,0a1.033,1.033,0,0,0-.121-.5,1.1,1.1,0,0,0-.322-.362.89.89,0,0,0-.945,0,.811.811,0,0,0-.322.362,1.153,1.153,0,0,0-.121.5,1.033,1.033,0,0,0,.121.5,1.1,1.1,0,0,0,.322.362.763.763,0,0,0,.463.121.934.934,0,0,0,.463-.121.811.811,0,0,0,.322-.362.955.955,0,0,0,.141-.5Z" transform="translate(-24.379 -12.457)" fill="#fff"/>
            <path id="Path_10-2" d="M41.786,13.2a.754.754,0,0,1,.5.161.856.856,0,0,1,.282.463l-.06.02.02-.08a.653.653,0,0,1,.2-.261,1.081,1.081,0,0,1,.322-.2,1.176,1.176,0,0,1,.382-.08,1.011,1.011,0,0,1,.483.121.633.633,0,0,1,.261.342,1.352,1.352,0,0,1,.08.483v1.348a.154.154,0,0,1-.04.1.134.134,0,0,1-.2,0h0a.154.154,0,0,1-.04-.1V14.165a1.139,1.139,0,0,0-.06-.362.515.515,0,0,0-.2-.261.7.7,0,0,0-.362-.1.753.753,0,0,0-.362.1.593.593,0,0,0-.282.261.562.562,0,0,0-.121.362v1.327a.154.154,0,0,1-.04.1.134.134,0,0,1-.2,0h0a.154.154,0,0,1-.04-.1V14.145a.939.939,0,0,0-.06-.342.549.549,0,0,0-.181-.241.678.678,0,0,0-.342-.1.753.753,0,0,0-.362.1.819.819,0,0,0-.282.241.526.526,0,0,0-.1.342v1.348a.137.137,0,0,1-.141.141.137.137,0,0,1-.141-.141V13.361a.154.154,0,0,1,.04-.1.134.134,0,0,1,.2,0h0a.154.154,0,0,1,.04.1V13.8l-.121.181a.676.676,0,0,1,.1-.282,1.291,1.291,0,0,1,.2-.261.844.844,0,0,1,.282-.181A.939.939,0,0,1,41.786,13.2Z" transform="translate(-34.485 -12.556)" fill="#fff"/>
            <path id="Path_11-2" d="M61.167,13.2a1.081,1.081,0,0,1,.563.161,1.225,1.225,0,0,1,.4.442,1.406,1.406,0,0,1,0,1.267,1.209,1.209,0,0,1-.4.442,1.081,1.081,0,0,1-.563.161,1.76,1.76,0,0,1-.322-.04,1.084,1.084,0,0,1-.261-.141,1.054,1.054,0,0,1-.221-.2,1.14,1.14,0,0,1-.161-.261l.08-.06v1.468a.154.154,0,0,1-.04.1.134.134,0,0,1-.2,0h0a.154.154,0,0,1-.04-.1V13.361a.141.141,0,1,1,.282,0v.5l-.06-.04a1.084,1.084,0,0,1,.141-.261.98.98,0,0,1,.483-.322A.941.941,0,0,1,61.167,13.2Zm-.02.261a.811.811,0,0,0-.442.121.83.83,0,0,0-.3.342,1.108,1.108,0,0,0,0,1.006.83.83,0,0,0,.3.342.872.872,0,0,0,.885,0,.83.83,0,0,0,.3-.342,1.108,1.108,0,0,0,0-1.006.83.83,0,0,0-.3-.342A.861.861,0,0,0,61.146,13.461Z" transform="translate(-49.903 -12.556)" fill="#fff"/>
            <path id="Path_12-2" d="M70.941,10.664h1.106c.04,0,.06.02.1.04a.154.154,0,0,1,.04.1.1.1,0,0,1-.04.08.154.154,0,0,1-.1.04H70.941a.137.137,0,0,1-.141-.141c0-.04.02-.06.04-.1A.871.871,0,0,1,70.941,10.664ZM71.423,10a.137.137,0,0,1,.141.141v2.373a.363.363,0,0,0,.04.2.134.134,0,0,0,.1.08.255.255,0,0,0,.121.02.074.074,0,0,0,.06-.02c.02,0,.04-.02.06-.02a.142.142,0,0,1,.121.121.165.165,0,0,1-.08.121.3.3,0,0,1-.181.04h-.121A.324.324,0,0,1,71.5,13a.358.358,0,0,1-.141-.161.911.911,0,0,1-.06-.322V10.141a.154.154,0,0,1,.04-.1c0-.02.04-.04.08-.04Z" transform="translate(-58.531 -10)" fill="#fff"/>
          </g>
        </g>
        <g id="Group_4-2" transform="translate(0 0)">
          <circle id="Ellipse_1-2" cx="0.503" cy="0.503" r="0.503" transform="translate(3.057 3.982)" fill="#fff"/>
          <circle id="Ellipse_2-2" cx="1.026" cy="1.026" r="1.026" transform="translate(1.006 4.425)" fill="#fff"/>
          <circle id="Ellipse_3-2_1_" cx="2.031" cy="2.031" r="2.031" transform="translate(0 0)" fill="#fff"/>
        </g>
      </g>
    </g>
    <path id="Rectangle_1079-3" d="M5730.022-3514h102.172a4.034,4.034,0,0,1,4.022,4.022v26.549a4.034,4.034,0,0,1-4.022,4.022H5730.022a4.034,4.034,0,0,1-4.022-4.022v-26.549A4.034,4.034,0,0,1,5730.022-3514Z" transform="translate(-5679.641 3524)" fill="#3c97d3" opacity="0.2"/>
    <text id="Your_prompt_has_been_viewed_by_the_care" data-name="Your prompt has been viewed by the care" transform="translate(52.393 31.693)" fill="#fff" font-size="5" font-family="Lato"><tspan x="0" y="0">Your prompt has been viewed by the care</tspan></text>
    <text id="team" transform="translate(52.393 38.209)" fill="#fff" font-size="5" font-family="Lato"><tspan x="0" y="0">team</tspan></text>
    <g id="Group_663-3" transform="translate(52.393 15.028)">
      <text id="_09:24" data-name="09:24" transform="translate(84.674 5.805)" fill="#fff" font-size="5" font-family="Lato"><tspan x="0" y="0">09:24</tspan></text>
      <g id="Logo-01-3" transform="translate(0 0)">
        <g id="Group_1-3" transform="translate(18.504 3.998)">
          <path id="Path_1-3" d="M10.382,10a.275.275,0,0,1,.282.282v2.655a.357.357,0,0,1-.08.2.258.258,0,0,1-.2.08.27.27,0,0,1-.282-.261V10.282a.258.258,0,0,1,.08-.2A.233.233,0,0,1,10.382,10Zm-.02,1.327h2.051v.523H10.361ZM12.393,10a.27.27,0,0,1,.282.261v2.675a.258.258,0,0,1-.08.2.3.3,0,0,1-.221.08.275.275,0,0,1-.282-.282V10.282a.357.357,0,0,1,.08-.2A.374.374,0,0,1,12.393,10Z" transform="translate(-10.1 -10)" fill="#fff"/>
          <path id="Path_2-3" d="M25.487,16.134a1.37,1.37,0,0,1-.684-.161,1.169,1.169,0,0,1-.442-.442,1.369,1.369,0,0,1-.161-.623,1.715,1.715,0,0,1,.161-.7,1.169,1.169,0,0,1,.442-.442,1.138,1.138,0,0,1,.563-.161,1.1,1.1,0,0,1,.442.1,1.194,1.194,0,0,1,.362.261,1.612,1.612,0,0,1,.261.382,1.193,1.193,0,0,1,.1.463.3.3,0,0,1-.08.181.34.34,0,0,1-.2.06H24.5l-.141-.463H26.05l-.08.1v-.121a.418.418,0,0,0-.1-.241.511.511,0,0,0-.2-.161.619.619,0,0,0-.261-.06,1.177,1.177,0,0,0-.261.04.417.417,0,0,0-.2.121.7.7,0,0,0-.141.241,1.139,1.139,0,0,0-.06.362,1,1,0,0,0,.1.422.683.683,0,0,0,.6.342,1.063,1.063,0,0,0,.261-.02,1.386,1.386,0,0,0,.161-.06l.121-.06a.379.379,0,0,1,.161-.04.241.241,0,0,1,.241.221h0a.273.273,0,0,1-.121.221,1.118,1.118,0,0,1-.342.181A2.937,2.937,0,0,1,25.487,16.134Z" transform="translate(-21.364 -12.876)" fill="#fff"/>
          <path id="Path_3-3" d="M38.572,13.5a.275.275,0,0,1,.282.282v1.931a.258.258,0,0,1-.08.2.306.306,0,0,1-.4,0,.258.258,0,0,1-.08-.2v-.221l.1.04a.183.183,0,0,1-.06.141.475.475,0,0,1-.181.161,1.084,1.084,0,0,1-.261.141.911.911,0,0,1-.322.06A1.081,1.081,0,0,1,37,15.873a.951.951,0,0,1-.4-.442,1.536,1.536,0,0,1,0-1.327,1.07,1.07,0,0,1,.4-.442,1.081,1.081,0,0,1,.563-.161,1.139,1.139,0,0,1,.362.06.789.789,0,0,1,.282.161.768.768,0,0,1,.181.181.228.228,0,0,1,.06.161l-.161.06v-.342a.258.258,0,0,1,.08-.2A.425.425,0,0,1,38.572,13.5Zm-.925,2.051a.82.82,0,0,0,.362-.1.669.669,0,0,0,.241-.282.872.872,0,0,0,.08-.382.959.959,0,0,0-.08-.4.819.819,0,0,0-.241-.282.7.7,0,0,0-.362-.1.678.678,0,0,0-.342.1.669.669,0,0,0-.241.282.9.9,0,0,0-.08.4.768.768,0,0,0,.322.664.678.678,0,0,0,.342.1Z" transform="translate(-31.15 -12.796)" fill="#fff"/>
          <path id="Path_4-3" d="M50.963,13.016a.2.2,0,0,1-.08.181.292.292,0,0,1-.4,0,.218.218,0,0,1-.08-.181V10.361a.2.2,0,0,1,.08-.181.292.292,0,0,1,.4,0,.3.3,0,0,1,.08.181v2.655Z" transform="translate(-42.295 -10.08)" fill="#fff"/>
          <path id="Path_5-3" d="M54.261,11.683h1.086a.249.249,0,0,1,.261.241v.02a.246.246,0,0,1-.08.181.3.3,0,0,1-.181.08H54.261A.249.249,0,0,1,54,11.965v-.02a.246.246,0,0,1,.08-.181A.218.218,0,0,1,54.261,11.683Zm.483-.583a.275.275,0,0,1,.282.282v2.031a.151.151,0,0,0,.02.1l.06.06a.343.343,0,0,0,.2,0,.181.181,0,0,1,.1-.02.174.174,0,0,1,.121.06.251.251,0,0,1-.04.342c-.02.02-.02.02-.04.02a.568.568,0,0,1-.3.08.825.825,0,0,1-.221-.02.72.72,0,0,1-.221-.08.519.519,0,0,1-.181-.181.559.559,0,0,1-.06-.362V11.382a.3.3,0,0,1,.282-.282Z" transform="translate(-45.171 -10.879)" fill="#fff"/>
          <path id="Path_6-3" d="M64.427,10.8a.739.739,0,0,1,.5.141.7.7,0,0,1,.241.382,2.319,2.319,0,0,1,.06.523v1.167a.258.258,0,0,1-.08.2.306.306,0,0,1-.4,0,.258.258,0,0,1-.08-.2V11.85a1.358,1.358,0,0,0-.04-.282.34.34,0,0,0-.141-.2.462.462,0,0,0-.282-.08.568.568,0,0,0-.3.08.44.44,0,0,0-.181.2.642.642,0,0,0-.06.282v1.167a.258.258,0,0,1-.08.2.306.306,0,0,1-.4,0,.258.258,0,0,1-.08-.2V10.4a.258.258,0,0,1,.08-.2.306.306,0,0,1,.4,0,.258.258,0,0,1,.08.2v.945l-.06-.02a1.116,1.116,0,0,1,.121-.161A1.3,1.3,0,0,1,63.9,11a1.52,1.52,0,0,1,.523-.2Z" transform="translate(-52.44 -10.1)" fill="#fff"/>
        </g>
        <g id="Group_3-3" transform="translate(4.559 4.026)">
          <g id="Group_2-3" transform="translate(0 0)">
            <path id="Path_7-3" d="M10.987,13.2a1.081,1.081,0,0,1,.563.161,1.225,1.225,0,0,1,.4.442,1.406,1.406,0,0,1,0,1.267,1.209,1.209,0,0,1-.4.442,1.081,1.081,0,0,1-.563.161,1.76,1.76,0,0,1-.322-.04,1.839,1.839,0,0,1-.282-.141,1.054,1.054,0,0,1-.221-.2A1.14,1.14,0,0,1,10,15.03l.08-.06v1.468a.154.154,0,0,1-.04.1.134.134,0,0,1-.2,0h0a.154.154,0,0,1-.04-.1V13.361a.141.141,0,1,1,.282,0v.5l-.06-.04a1.084,1.084,0,0,1,.141-.261.98.98,0,0,1,.483-.322A1.117,1.117,0,0,1,10.987,13.2Zm-.02.261a.811.811,0,0,0-.442.121.83.83,0,0,0-.3.342,1.108,1.108,0,0,0,0,1.006.83.83,0,0,0,.3.342.872.872,0,0,0,.885,0,.83.83,0,0,0,.3-.342,1.108,1.108,0,0,0,0-1.006.83.83,0,0,0-.3-.342A.861.861,0,0,0,10.967,13.461Z" transform="translate(-9.8 -12.556)" fill="#fff"/>
            <path id="Path_8-3" d="M22.241,15.474a.137.137,0,0,1-.141-.141V13.2a.154.154,0,0,1,.04-.1.134.134,0,0,1,.2,0h0a.154.154,0,0,1,.04.1v.7l-.08.02a1.507,1.507,0,0,1,.08-.322,1.2,1.2,0,0,1,.181-.3.978.978,0,0,1,.282-.221.789.789,0,0,1,.362-.08.379.379,0,0,1,.161.04.136.136,0,0,1,.08.121.14.14,0,0,1-.121.141.181.181,0,0,1-.1-.02.255.255,0,0,0-.121-.02.4.4,0,0,0-.261.08.8.8,0,0,0-.241.2.757.757,0,0,0-.181.3.911.911,0,0,0-.06.322v1.167a.113.113,0,0,1-.121.141Z" transform="translate(-19.626 -12.397)" fill="#fff"/>
            <path id="Path_9-3" d="M30.413,14.327a1.451,1.451,0,0,1-.161.644,1.118,1.118,0,0,1-.422.442,1.18,1.18,0,0,1-1.207,0,1.118,1.118,0,0,1-.422-.442,1.448,1.448,0,0,1,0-1.287,1.118,1.118,0,0,1,.422-.442,1.18,1.18,0,0,1,1.207,0,1.118,1.118,0,0,1,.422.442A1.327,1.327,0,0,1,30.413,14.327Zm-.282,0a1.033,1.033,0,0,0-.121-.5,1.1,1.1,0,0,0-.322-.362.89.89,0,0,0-.945,0,.811.811,0,0,0-.322.362,1.153,1.153,0,0,0-.121.5,1.033,1.033,0,0,0,.121.5,1.1,1.1,0,0,0,.322.362.763.763,0,0,0,.463.121.934.934,0,0,0,.463-.121.811.811,0,0,0,.322-.362.955.955,0,0,0,.141-.5Z" transform="translate(-24.379 -12.457)" fill="#fff"/>
            <path id="Path_10-3" d="M41.786,13.2a.754.754,0,0,1,.5.161.856.856,0,0,1,.282.463l-.06.02.02-.08a.653.653,0,0,1,.2-.261,1.081,1.081,0,0,1,.322-.2,1.176,1.176,0,0,1,.382-.08,1.011,1.011,0,0,1,.483.121.633.633,0,0,1,.261.342,1.352,1.352,0,0,1,.08.483v1.348a.154.154,0,0,1-.04.1.134.134,0,0,1-.2,0h0a.154.154,0,0,1-.04-.1V14.165a1.139,1.139,0,0,0-.06-.362.515.515,0,0,0-.2-.261.7.7,0,0,0-.362-.1.753.753,0,0,0-.362.1.593.593,0,0,0-.282.261.562.562,0,0,0-.121.362v1.327a.154.154,0,0,1-.04.1.134.134,0,0,1-.2,0h0a.154.154,0,0,1-.04-.1V14.145a.939.939,0,0,0-.06-.342.549.549,0,0,0-.181-.241.678.678,0,0,0-.342-.1.753.753,0,0,0-.362.1.819.819,0,0,0-.282.241.526.526,0,0,0-.1.342v1.348a.137.137,0,0,1-.141.141.137.137,0,0,1-.141-.141V13.361a.154.154,0,0,1,.04-.1.134.134,0,0,1,.2,0h0a.154.154,0,0,1,.04.1V13.8l-.121.181a.676.676,0,0,1,.1-.282,1.291,1.291,0,0,1,.2-.261.844.844,0,0,1,.282-.181A.939.939,0,0,1,41.786,13.2Z" transform="translate(-34.485 -12.556)" fill="#fff"/>
            <path id="Path_11-3" d="M61.167,13.2a1.081,1.081,0,0,1,.563.161,1.225,1.225,0,0,1,.4.442,1.406,1.406,0,0,1,0,1.267,1.209,1.209,0,0,1-.4.442,1.081,1.081,0,0,1-.563.161,1.76,1.76,0,0,1-.322-.04,1.084,1.084,0,0,1-.261-.141,1.054,1.054,0,0,1-.221-.2,1.14,1.14,0,0,1-.161-.261l.08-.06v1.468a.154.154,0,0,1-.04.1.134.134,0,0,1-.2,0h0a.154.154,0,0,1-.04-.1V13.361a.141.141,0,1,1,.282,0v.5l-.06-.04a1.084,1.084,0,0,1,.141-.261.98.98,0,0,1,.483-.322A.941.941,0,0,1,61.167,13.2Zm-.02.261a.811.811,0,0,0-.442.121.83.83,0,0,0-.3.342,1.108,1.108,0,0,0,0,1.006.83.83,0,0,0,.3.342.872.872,0,0,0,.885,0,.83.83,0,0,0,.3-.342,1.108,1.108,0,0,0,0-1.006.83.83,0,0,0-.3-.342A.861.861,0,0,0,61.146,13.461Z" transform="translate(-49.903 -12.556)" fill="#fff"/>
            <path id="Path_12-3" d="M70.941,10.664h1.106c.04,0,.06.02.1.04a.154.154,0,0,1,.04.1.1.1,0,0,1-.04.08.154.154,0,0,1-.1.04H70.941a.137.137,0,0,1-.141-.141c0-.04.02-.06.04-.1A.871.871,0,0,1,70.941,10.664ZM71.423,10a.137.137,0,0,1,.141.141v2.373a.363.363,0,0,0,.04.2.134.134,0,0,0,.1.08.255.255,0,0,0,.121.02.074.074,0,0,0,.06-.02c.02,0,.04-.02.06-.02a.142.142,0,0,1,.121.121.165.165,0,0,1-.08.121.3.3,0,0,1-.181.04h-.121A.324.324,0,0,1,71.5,13a.358.358,0,0,1-.141-.161.911.911,0,0,1-.06-.322V10.141a.154.154,0,0,1,.04-.1c0-.02.04-.04.08-.04Z" transform="translate(-58.531 -10)" fill="#fff"/>
          </g>
        </g>
        <g id="Group_4-3" transform="translate(0 0)">
          <circle id="Ellipse_1-3" cx="0.503" cy="0.503" r="0.503" transform="translate(3.057 3.982)" fill="#fff"/>
          <circle id="Ellipse_2-3" cx="1.026" cy="1.026" r="1.026" transform="translate(1.006 4.425)" fill="#fff"/>
          <circle id="Ellipse_3-3" cx="2.031" cy="2.031" r="2.031" transform="translate(0 0)" fill="#fff"/>
        </g>
      </g>
    </g>
    <path id="Path_14366" data-name="Path 14366" d="M254.049,820.159h-9.031c-2.414,0-2.755-.463-.764-1.046l28.419-8.367a33.875,33.875,0,0,1,7.944-1.046h9.031c2.414,0,2.755.463.764,1.046l-28.419,8.367A34.814,34.814,0,0,1,254.049,820.159Z" transform="translate(-186.104 -638.86)" fill="#9ec1cc"/>
    <path id="Path_14367" data-name="Path 14367" d="M323.749,817.559V846.6a8.169,8.169,0,0,1-.362,2.313,6.535,6.535,0,0,1-.3.8c-.06.121-.121.261-.181.382a4.256,4.256,0,0,1-.221.422c-3.339-.02-6.677-.02-10.016-.04h-2.273l-10.9-.06L284.67,850.3c-2.957-.02-5.913-.06-8.87-.08V827.7a8.707,8.707,0,0,1,2.414-5.792c.161-.161.3-.322.463-.483.141-.141.3-.282.442-.4h0c.08-.06.141-.121.221-.181a9.033,9.033,0,0,1,3.681-1.75l1.307-.282,1.649-.342.2-.04.3-.06.583-.121.1-.02h0l2.8-.583,4.485-.945.925-.2,1.046-.221h0l.141-.02h0l.06-.02h0l.181-.04h.04l2.755-.583.885-.181.6-.121h0l.221-.04h0l.865-.181.583-.121h0l.463-.1h0l.322-.081h0l.442-.1,1.207-.241,8.93-1.891.744-.161,1.629-.342a7.062,7.062,0,0,1,1.428-.161A5.447,5.447,0,0,1,323.749,817.559Z" transform="translate(-212.341 -640.605)" fill="#9ec1cc"/>
    <path id="Path_14368" data-name="Path 14368" d="M422.677,673.1H449.99a6.566,6.566,0,0,1,6.577,6.577v30.048a6.566,6.566,0,0,1-6.577,6.577H422.677a6.566,6.566,0,0,1-6.577-6.577V679.677A6.579,6.579,0,0,1,422.677,673.1Z" transform="translate(-324.423 -529.734)" fill="#9ec1cc"/>
    <path id="Path_14369" data-name="Path 14369" d="M249.339,860.725v25.04c-2.957-.02-5.913-.06-8.87-.08s-5.913-.06-8.87-.1V860.725a4.449,4.449,0,0,1,2.494-3.982h0A4.372,4.372,0,0,1,236,856.3h8.91a4.37,4.37,0,0,1,2.7.925A4.471,4.471,0,0,1,249.339,860.725Z" transform="translate(-177.03 -676.087)" fill="#9ec1cc"/>
    <path id="Path_14370" data-name="Path 14370" d="M367.467,933.437H309L343.071,916.2h58.487Z" transform="translate(-238.863 -723.94)" fill="#93b3ba"/>
    <path id="Path_14371" data-name="Path 14371" d="M416.1,809.1c1.428-.08,2.876-.141,4.324-.2l2.152-.08c.181,0,.362-.02.543-.02l.563.02c.181,0,.362.04.563.06l.282.04.282.06.282.06a1,1,0,0,1,.261.08l.523.181a6.708,6.708,0,0,1,1.006.5,6.877,6.877,0,0,1,1.71,1.428,7.034,7.034,0,0,1,1.73,4.083l.02.563v3.781c-.02,1.448-.02,2.876-.04,4.324-.04,2.876-.121,5.772-.241,8.648-.121-2.876-.2-5.772-.241-8.648-.02-1.448-.04-2.876-.04-4.324V815.88l-.02-.523a7,7,0,0,0-.483-2.011,7.092,7.092,0,0,0-1.086-1.75,6.327,6.327,0,0,0-1.569-1.348,8.093,8.093,0,0,0-.925-.483l-.483-.181a1.136,1.136,0,0,0-.241-.08l-.241-.06-.241-.06-.261-.04a4.62,4.62,0,0,0-.523-.06h-1.086l-2.152-.02C418.976,809.162,417.528,809.162,416.1,809.1Z" transform="translate(-324.423 -638.141)" fill="#93b3ba"/>
    <path id="Path_14372" data-name="Path 14372" d="M355.327,826.5c-2.132.885-4.3,1.73-6.476,2.534l-3.258,1.207-3.278,1.167-3.278,1.146c-1.106.362-2.192.744-3.3,1.106-2.192.724-4.4,1.448-6.637,2.092,2.132-.885,4.3-1.73,6.476-2.534,1.086-.422,2.172-.8,3.258-1.207l3.278-1.167,3.278-1.146c1.106-.362,2.192-.744,3.3-1.106C350.9,827.868,353.114,827.164,355.327,826.5Z" transform="translate(-254.921 -652.281)" fill="#93b3ba"/>
    <path id="Path_14373" data-name="Path 14373" d="M255.4,857.581c1.508-.06,3.017-.1,4.525-.141l2.253-.04h.563c.181,0,.382,0,.583.02a5.829,5.829,0,0,1,.583.08,2.6,2.6,0,0,1,.563.161,5.541,5.541,0,0,1,3.379,3.1,4.648,4.648,0,0,1,.2.563l.08.282.06.3a7.613,7.613,0,0,1,.1,1.167v2.253l-.02,4.525c-.02,1.508-.02,3.017-.04,4.525-.04,3.017-.121,6.014-.241,9.031-.121-3.017-.2-6.014-.241-9.031-.02-1.508-.04-3.017-.04-4.525l-.02-4.525v-2.253a6.187,6.187,0,0,0-.08-1.066,1.228,1.228,0,0,0-.06-.261l-.06-.261a5.2,5.2,0,0,0-3.2-3.379c-.161-.06-.342-.1-.523-.161s-.362-.06-.523-.1a4.583,4.583,0,0,0-.543-.04l-.563-.02-2.232-.06C258.4,857.661,256.888,857.641,255.4,857.581Z" transform="translate(-196.044 -676.966)" fill="#93b3ba"/>
    <circle id="Ellipse_3-2" cx="6.738" cy="6.738" r="6.738" transform="translate(47.812 143.246)" fill="#cae1e5"/>
    <path id="Path_14374" data-name="Path 14374" d="M318.194,826.7v.543a.509.509,0,0,0,.4.543h8.97a4.46,4.46,0,0,0,1.83-.382l9.393-3.922a.535.535,0,0,0,.282-.5l.02-.583-12.168,2.072Z" transform="translate(-246.207 -649.005)" fill="#455a64"/>
    <g id="freepik--Device--inject-67" transform="translate(72.008 173.254)">
      <path id="Path_14375" data-name="Path 14375" d="M330.994,821.7h7.522c.6,0,.845.1.543.241l-9.614,4.023a7.053,7.053,0,0,1-2.192.342h-8.266c-.684,0-.885-.141-.463-.3l10.74-4.063A6.091,6.091,0,0,1,330.994,821.7Z" transform="translate(-318.304 -821.7)" fill="#455a64"/>
      <path id="Path_14376" data-name="Path 14376" d="M340.112,822.1l-9.272,3.882a7.336,7.336,0,0,1-2.333.342h-7.582c-.825,0-1.066-.161-.563-.362h0l10.237-3.882a7.389,7.389,0,0,1,2.092-.282h6.758c.764.02,1.046.141.664.3Z" transform="translate(-319.739 -821.78)" fill="#263238"/>
      <path id="Path_14377" data-name="Path 14377" d="M341.89,843.42c.06,0,.08.02.04.02a.683.683,0,0,1-.2.02H340.18c-.08,0-.1,0-.06-.02a.716.716,0,0,1,.2-.04h1.569Z" transform="translate(-335.716 -839.036)" fill="#455a64"/>
      <path id="Path_14378" data-name="Path 14378" d="M352.3,843.5c.06,0,.1.02.06.02a.685.685,0,0,1-.2.02c-.06,0-.08-.02-.04-.02h0C352.157,843.52,352.238,843.5,352.3,843.5Z" transform="translate(-345.3 -839.115)" fill="#455a64"/>
      <path id="Path_14379" data-name="Path 14379" d="M349.983,843.5c.06,0,.1.02.04.02a.621.621,0,0,1-.2.02c-.06,0-.1-.02-.04-.02h0C349.842,843.52,349.922,843.5,349.983,843.5Z" transform="translate(-343.427 -839.115)" fill="#455a64"/>
      <path id="Path_14380" data-name="Path 14380" d="M336.218,843.5c.06,0,.08.02.04.02a.715.715,0,0,1-.2.04c-.06,0-.08-.02-.04-.04h0C336.077,843.52,336.138,843.5,336.218,843.5Z" transform="translate(-332.438 -839.115)" fill="#455a64"/>
      <path id="Path_14381" data-name="Path 14381" d="M338.418,843.5c.06,0,.08.02.04.02a.685.685,0,0,1-.2.02c-.06,0-.08-.02-.04-.02h0C338.277,843.52,338.338,843.5,338.418,843.5Z" transform="translate(-334.195 -839.115)" fill="#455a64"/>
      <path id="Path_14382" data-name="Path 14382" d="M322.04,826.5h1.468a1.676,1.676,0,0,0,.443-.06l.362-.1a2.023,2.023,0,0,1,.5-.06h3.238c.161,0,.241.02.2.06l-.121.1q-.06.06.181.06h1.468a5.7,5.7,0,0,0,1.83-.282l9.352-3.9c.3-.121.06-.221-.5-.221h-6.919a6.364,6.364,0,0,0-1.629.221l-10.3,3.9C321.2,826.384,321.4,826.5,322.04,826.5Z" transform="translate(-320.774 -822.02)" fill="#fafafa"/>
      <path id="Path_14383" data-name="Path 14383" d="M332.48,843.22h-.08l.06-.02h.08Z" transform="translate(-329.565 -838.876)" fill="#fff"/>
      <path id="Path_14384" data-name="Path 14384" d="M331.68,843.24h-.08l.1-.04h.08Z" transform="translate(-328.926 -838.876)" fill="#fff"/>
      <path id="Path_14385" data-name="Path 14385" d="M330.98,843.24h-.08l.121-.04h.08Z" transform="translate(-328.367 -838.876)" fill="#fff"/>
      <path id="Path_14386" data-name="Path 14386" d="M330.18,843.26h-.08l.161-.06h.08Z" transform="translate(-327.728 -838.876)" fill="#fff"/>
      <path id="Path_14387" data-name="Path 14387" d="M325.223,843.2l-.1.04h-.02l.121-.04Zm-.382,0h-.08l-.06.02h.06l.08-.02Zm-.121.04Z" transform="translate(-323.414 -838.876)" fill="#fff"/>
      <path id="Path_14388" data-name="Path 14388" d="M325.422,843.2l-.1.04H325l.04-.02h.02l.04-.02Z" transform="translate(-323.653 -838.876)" fill="#fff"/>
      <path id="Path_14389" data-name="Path 14389" d="M329.1,843.2Z" transform="translate(-326.929 -838.876)" fill="#fff"/>
      <path id="Path_14390" data-name="Path 14390" d="M328.781,843.3Z" transform="translate(-326.529 -838.956)" fill="#fff"/>
      <path id="Path_14391" data-name="Path 14391" d="M328.221,843.32a.556.556,0,0,0,.181-.02h-.02a.411.411,0,0,1-.221,0h-.06A.255.255,0,0,0,328.221,843.32Z" transform="translate(-326.13 -838.956)" fill="#fff"/>
      <path id="Path_14392" data-name="Path 14392" d="M328.1,843.4h0a.9.9,0,0,1-.221.02.256.256,0,0,1-.121-.02h-.06a.686.686,0,0,0,.4,0Z" transform="translate(-325.81 -839.036)" fill="#fff"/>
    </g>
    <path id="Path_14393" data-name="Path 14393" d="M334.191,835.6h7.985c.282,0,.322.081.1.161l-1.468.6a3.745,3.745,0,0,1-.945.181H331.7c-.282,0-.3-.08-.06-.181l1.589-.6A4.042,4.042,0,0,1,334.191,835.6Z" transform="translate(-256.813 -659.551)" fill="#3c97d3" opacity="0.43"/>
    <path id="Path_14394" data-name="Path 14394" d="M369.651,838.62l-.1.04h-.1a.444.444,0,0,0-.161.02c-.04.02-.04.02.02.02h.141l.241-.1h-.04Zm-.221.08h-.1c-.04,0-.04,0-.02-.02a.255.255,0,0,1,.121-.02h.1Z" transform="translate(-287.004 -661.947)" fill="#fff"/>
    <path id="Path_14395" data-name="Path 14395" d="M368.455,838.62l-.1.04h-.1c-.06,0-.02-.02.02-.02.02,0,.02,0,.04-.02h-.04a.062.062,0,0,0-.04.02l-.02.02h.02c-.04,0-.08.02-.121.02-.04.02-.02.02.02.02h.141l.241-.1h-.06v.02Zm-.221.08h-.1c-.04,0-.04,0-.02-.02a.255.255,0,0,1,.121-.02h.1Z" transform="translate(-286.069 -661.947)" fill="#fff"/>
    <path id="Path_14396" data-name="Path 14396" d="M366.891,838.7a.556.556,0,0,0-.261.06c-.08.02-.1.06,0,.06a.711.711,0,0,0,.282-.06C366.951,838.72,366.971,838.7,366.891,838.7Zm-.04.04a.722.722,0,0,1-.221.04c-.08,0-.06-.02,0-.04a.722.722,0,0,1,.221-.04C366.931,838.7,366.911,838.72,366.851,838.74Z" transform="translate(-284.848 -662.027)" fill="#fff"/>
    <path id="Path_14397" data-name="Path 14397" d="M364.882,838.8h-.04l.121-.08-.322.08h-.04l.241-.1h.02l-.221.08h0l.322-.08h.02l-.1.1h0l.221-.1h.02Z" transform="translate(-283.281 -662.027)" fill="#fff"/>
    <path id="Path_14398" data-name="Path 14398" d="M363.751,838.62l-.1.04h-.1a.444.444,0,0,0-.161.02c-.04.02-.04.02.02.02h.141l.241-.1h-.04Zm-.221.08h-.1c-.04,0-.04,0-.02-.02a.255.255,0,0,1,.121-.02h.1Z" transform="translate(-282.291 -661.947)" fill="#fff"/>
    <path id="Path_14399" data-name="Path 14399" d="M362.221,838.8h-.1l.221-.1h.02l-.221.1h.08Z" transform="translate(-281.204 -662.027)" fill="#fff"/>
    <path id="Path_14400" data-name="Path 14400" d="M360.921,838.8h-.02l.1-.04h-.181l-.1.04h-.02l.241-.1h.02l-.121.04h.181l.121-.04h.02Z" transform="translate(-280.165 -662.027)" fill="#fff"/>
    <path id="Path_14401" data-name="Path 14401" d="M359.6,838.88h0l.08-.04h.02l.1-.04h.04Z" transform="translate(-279.126 -662.107)" fill="#fff"/>
    <path id="Path_14402" data-name="Path 14402" d="M358.8,838.7l-.121.04h-.141l.04-.04h-.04l-.141.1h.04l.362-.1Zm-.322.08.08-.06h.121Z" transform="translate(-278.328 -662.027)" fill="#fff"/>
    <path id="Path_14403" data-name="Path 14403" d="M357.82,838.8h-.02l.221-.1h.04Z" transform="translate(-277.848 -662.027)" fill="#fff"/>
    <path id="Path_14404" data-name="Path 14404" d="M356.141,838.8h-.121l.241-.1h.02l-.241.1Z" transform="translate(-276.33 -662.027)" fill="#fff"/>
    <path id="Path_14405" data-name="Path 14405" d="M354.921,838.8h-.02l.1-.04h-.181l-.1.04h-.02l.261-.1h.02l-.121.04h.181l.121-.04h.02Z" transform="translate(-275.372 -662.027)" fill="#fff"/>
    <text id="Notification" transform="matrix(-0.764, -0.646, 0.646, -0.764, 85.232, 175.713)" font-size="1" font-family="Helvetica Neue LT Std" font-weight="300"><tspan x="0" y="0">Notification</tspan></text>
    <path id="Path_14406" data-name="Path 14406" d="M348.97,830.2h7.763c.282,0,.322.081.1.161l-1.388.563a2.862,2.862,0,0,1-.905.161H346.6c-.282,0-.3-.08-.06-.161l1.508-.563A2.887,2.887,0,0,1,348.97,830.2Z" transform="translate(-268.717 -655.237)" fill="#3c97d3" opacity="0.43"/>
    <path id="Path_14407" data-name="Path 14407" d="M383.451,833.02l-.1.04h-.1c-.06,0-.1.02-.161.02-.04.02-.04.02.02.02h.121l.241-.1h-.02Zm-.2.08h-.1c-.04,0-.04,0-.02-.02a.219.219,0,0,1,.1-.02h.08Z" transform="translate(-298.028 -657.473)" fill="#fff"/>
    <path id="Path_14408" data-name="Path 14408" d="M382.275,833.02l-.1.04h-.1c-.06,0-.02-.02,0-.02l.04-.02h-.04a.07.07,0,0,1-.04.02.02.02,0,0,0-.02.02h.02a.256.256,0,0,0-.121.02c-.04.02-.02.02.02.02h.141l.241-.1h-.04Zm-.221.08h-.1c-.04,0-.04,0-.02-.02a.219.219,0,0,1,.1-.02h.1Z" transform="translate(-297.094 -657.473)" fill="#fff"/>
    <path id="Path_14409" data-name="Path 14409" d="M380.762,833.1a1.175,1.175,0,0,0-.261.04c-.06.02-.08.04.02.04a1.179,1.179,0,0,0,.261-.04C380.842,833.12,380.862,833.1,380.762,833.1Zm-.02.04a.724.724,0,0,1-.221.04c-.06,0-.04-.02,0-.04a.714.714,0,0,1,.2-.04C380.822,833.1,380.8,833.12,380.742,833.14Z" transform="translate(-295.943 -657.553)" fill="#fff"/>
    <path id="Path_14410" data-name="Path 14410" d="M378.882,833.2h-.04l.1-.08-.3.08h-.04l.241-.1h.02l-.2.08h0l.3-.08h.02l-.1.1h0l.2-.1h.02Z" transform="translate(-294.465 -657.553)" fill="#fff"/>
    <path id="Path_14411" data-name="Path 14411" d="M377.751,833.02l-.1.04h-.1c-.06,0-.1.02-.161.02-.04.02-.04.02.02.02h.121l.241-.1h-.02Zm-.221.08h-.1c-.04,0-.04,0-.02-.02a.255.255,0,0,1,.121-.02h.1Z" transform="translate(-293.475 -657.473)" fill="#fff"/>
    <path id="Path_14412" data-name="Path 14412" d="M376.241,833.28h-.121l.221-.08h.02l-.221.08Z" transform="translate(-292.388 -657.633)" fill="#fff"/>
    <path id="Path_14413" data-name="Path 14413" d="M375.021,833.2H375l.1-.04h-.181l-.1.04h-.02l.241-.1h.02l-.121.04h.181l.121-.04h.02Z" transform="translate(-291.429 -657.553)" fill="#fff"/>
    <path id="Path_14414" data-name="Path 14414" d="M373.7,833.28h0l.08-.04h.02l.1-.04h.04Z" transform="translate(-290.391 -657.633)" fill="#fff"/>
    <path id="Path_14415" data-name="Path 14415" d="M373.062,833.1l-.1.02h-.141l.04-.02h-.04l-.121.1h.04l.362-.1Zm-.322.08.06-.04h.121Z" transform="translate(-289.751 -657.553)" fill="#fff"/>
    <path id="Path_14416" data-name="Path 14416" d="M371.92,833.28h-.02l.221-.08h.04Z" transform="translate(-289.112 -657.633)" fill="#fff"/>
    <path id="Path_14417" data-name="Path 14417" d="M370.421,833.28h-.1l.221-.08h.02l-.221.08Z" transform="translate(-287.754 -657.633)" fill="#fff"/>
    <path id="Path_14418" data-name="Path 14418" d="M369.2,833.2h-.02l.1-.04h-.161l-.1.04H369l.241-.1h.02l-.121.04h.181l.121-.04h.02Z" transform="translate(-286.796 -657.553)" fill="#fff"/>
    <text id="Notification-2" data-name="Notification" transform="matrix(-0.764, -0.646, 0.646, -0.764, 87.93, 174.627)" font-size="1" font-family="Helvetica Neue LT Std" font-weight="300"><tspan x="0" y="0">Notification</tspan></text>
    <path id="Path_14419" data-name="Path 14419" d="M363.036,825.1h7.582c.261,0,.322.06.1.161l-1.307.543a2.65,2.65,0,0,1-.885.161h-7.743c-.282,0-.3-.06-.08-.161l1.428-.543A2.394,2.394,0,0,1,363.036,825.1Z" transform="translate(-280.048 -651.162)" fill="#3c97d3" opacity="0.43"/>
    <path id="Path_14420" data-name="Path 14420" d="M396.755,827.72l-.1.04h-.1a.342.342,0,0,0-.141.02c-.04.02-.02.02.02.02h.121l.221-.1h-.02Zm-.221.08h-.1c-.04,0-.04,0-.02-.02a.219.219,0,0,1,.1-.02h.1Z" transform="translate(-308.678 -653.239)" fill="#fff"/>
    <path id="Path_14421" data-name="Path 14421" d="M395.475,827.72l-.1.04h-.1c-.06,0,0-.02,0-.02l.02-.02h-.02a.062.062,0,0,0-.04.02.02.02,0,0,0-.02.02h.02a.255.255,0,0,0-.121.02c-.04.02-.02.02.02.02h.121l.221-.1h0Zm-.2.08h-.1c-.04,0-.04,0-.02-.02.04,0,.06-.02.1-.02h.1Z" transform="translate(-307.639 -653.239)" fill="#fff"/>
    <path id="Path_14422" data-name="Path 14422" d="M394.042,827.8a1.008,1.008,0,0,0-.241.04c-.06.02-.08.04.02.04a1.011,1.011,0,0,0,.241-.04C394.122,827.82,394.122,827.8,394.042,827.8Zm-.02.04a.716.716,0,0,1-.2.04c-.06,0-.04-.02,0-.04a.714.714,0,0,1,.2-.04C394.1,827.8,394.082,827.82,394.022,827.84Z" transform="translate(-306.568 -653.319)" fill="#fff"/>
    <path id="Path_14423" data-name="Path 14423" d="M392.082,827.8h-.04l.1-.081-.3.081h-.04l.221-.1h.02l-.2.08h0l.282-.08h.02l-.06.1h0l.181-.1h.02Z" transform="translate(-305.01 -653.24)" fill="#fff"/>
    <path id="Path_14424" data-name="Path 14424" d="M391.051,827.8l-.1.04h-.02l-.1.04h-.1c-.04,0-.04,0-.02-.02h-.02c-.04.02-.04.02.02.02h.121l.221-.081Z" transform="translate(-304.1 -653.319)" fill="#fff"/>
    <path id="Path_14425" data-name="Path 14425" d="M389.621,827.88h-.1l.2-.081h.02l-.2.081h.08Z" transform="translate(-303.093 -653.319)" fill="#fff"/>
    <path id="Path_14426" data-name="Path 14426" d="M388.5,827.8h-.02l.1-.04h-.161l-.1.04h-.02l.221-.1h.02l-.1.04h.161l.1-.04h.02Z" transform="translate(-302.214 -653.24)" fill="#fff"/>
    <path id="Path_14427" data-name="Path 14427" d="M387.1,827.88h0l.06-.04h.02l.08-.04h.08Z" transform="translate(-301.096 -653.319)" fill="#fff"/>
    <path id="Path_14428" data-name="Path 14428" d="M386.622,827.8l-.1.02H386.4l.04-.02h-.02l-.121.1h.04l.342-.1Zm-.3.081.06-.04h.1Z" transform="translate(-300.616 -653.319)" fill="#fff"/>
    <path id="Path_14429" data-name="Path 14429" d="M385.42,827.88h-.02l.2-.081h.04Z" transform="translate(-299.897 -653.319)" fill="#fff"/>
    <path id="Path_14430" data-name="Path 14430" d="M383.921,827.88h-.1l.2-.081h.02l-.2.081Z" transform="translate(-298.539 -653.319)" fill="#fff"/>
    <path id="Path_14431" data-name="Path 14431" d="M382.8,827.8h-.02l.1-.04h-.161l-.1.04h-.02l.221-.1h.02l-.1.04h.161l.1-.04h.02Z" transform="translate(-297.66 -653.24)" fill="#fff"/>
    <text id="Notification-3" data-name="Notification" transform="matrix(-0.764, -0.646, 0.646, -0.764, 90.625, 173.541)" font-size="1" font-family="Helvetica Neue LT Std" font-weight="300"><tspan x="0" y="0">Notification</tspan></text>
    <text id="now" transform="matrix(-0.764, -0.646, 0.646, -0.764, 77.584, 176.107)" font-size="1" font-family="Helvetica Neue LT Std" font-weight="300"><tspan x="0" y="0">now</tspan></text>
    <text id="now-2" data-name="now" transform="matrix(-0.764, -0.646, 0.646, -0.764, 80.279, 175.021)" font-size="1" font-family="Helvetica Neue LT Std" font-weight="300"><tspan x="0" y="0">now</tspan></text>
    <text id="now-3" data-name="now" transform="matrix(-0.764, -0.646, 0.646, -0.764, 82.975, 173.935)" font-size="1" font-family="Helvetica Neue LT Std" font-weight="300"><tspan x="0" y="0">now</tspan></text>
    <path id="Path_14432" data-name="Path 14432" d="M372.194,838.2h.523c.08,0,.1.02.02.06l-.422.181a.807.807,0,0,1-.3.06h-.523c-.1,0-.1-.02-.02-.06l.442-.181A.643.643,0,0,1,372.194,838.2Z" transform="translate(-288.722 -661.628)" fill="#fff"/>
    <path id="Path_14433" data-name="Path 14433" d="M373.621,838.5h0q0,.03-.06.06l-.1.04q-.121.06,0,.06l-.04.02h.04l.04-.02a1.023,1.023,0,0,0,.342-.06l.1-.04a.373.373,0,0,1,.141-.04l.06-.02Z" transform="translate(-290.311 -661.867)" fill="#78aa41"/>
    <path id="Path_14434" data-name="Path 14434" d="M375.741,838.4h-.1l-.04.02.141-.02Z" transform="translate(-292.068 -661.787)" fill="#78aa41"/>
    <path id="Path_14435" data-name="Path 14435" d="M385.98,832.7h.5c.08,0,.1.02.02.04l-.4.161a1.4,1.4,0,0,1-.282.06h-.5c-.08,0-.1-.02-.02-.06l.4-.161A1.581,1.581,0,0,1,385.98,832.7Z" transform="translate(-299.774 -657.234)" fill="#fff"/>
    <path id="Path_14436" data-name="Path 14436" d="M387.321,833h0q0,.03-.06.06l-.1.04q-.121.06,0,.06l-.04.02h.04l.04-.02a.912.912,0,0,0,.322-.06l.1-.04a1.3,1.3,0,0,1,.141-.04l.06-.02Z" transform="translate(-301.255 -657.474)" fill="#4b7c99"/>
    <path id="Path_14437" data-name="Path 14437" d="M389.441,832.8h0Z" transform="translate(-303.013 -657.314)" fill="#4b7c99"/>
    <path id="Path_14438" data-name="Path 14438" d="M399.124,827.4h.5c.08,0,.1.02.04.04l-.382.161a.639.639,0,0,1-.282.04h-.5c-.08,0-.1-.02-.04-.04l.4-.161A1.175,1.175,0,0,1,399.124,827.4Z" transform="translate(-310.303 -653)" fill="#fff"/>
    <path id="Path_14439" data-name="Path 14439" d="M400.437,827.62h0a.043.043,0,0,1-.04.04l-.1.04c-.08.04-.06.06.02.06l-.04.02h.04l.04-.02a.735.735,0,0,0,.3-.06l.1-.04c.04-.02.08-.02.121-.04l.06-.02-.5.02Z" transform="translate(-311.757 -653.16)" fill="#e1e1e1"/>
    <path id="Path_14440" data-name="Path 14440" d="M402.341,827.5h-.1l-.04.02.141-.02C402.361,827.52,402.361,827.5,402.341,827.5Z" transform="translate(-313.318 -653.08)" fill="#e1e1e1"/>
    <path id="Path_14441" data-name="Path 14441" d="M575.98,540.495v.342a1.838,1.838,0,0,1-.02.342h-.5c-1.066.02-2.132.04-3.2.04h-.141q-6.818.091-13.636.141-8.9.09-17.8.141l-2.112.02-5.089.04-7.2.04-14.38.06H500.779l-6.818.02-10.8.02-23.069-.04H454.4c-1.85,0-3.7-.02-5.551-.02-3.339-.02-6.677-.02-10.016-.04h-2.273c-.06-.121-.141-.241-.2-.362-.08-.121-.141-.261-.221-.382-.121-.241-.261-.5-.382-.744-.181-.362-.362-.764-.523-1.146v-.02a19.531,19.531,0,0,1-1.146-3.761,1.177,1.177,0,0,1-.04-.261,18.155,18.155,0,0,1-.261-2.132,17.478,17.478,0,0,1,.3-4.4c.08-.362.161-.744.261-1.126a25.5,25.5,0,0,1,4.143-8.93,22.373,22.373,0,0,1,5.37-5.129c.181-.121.382-.261.563-.382a26.844,26.844,0,0,1,3.9-2.092h0c.523-.241,1.066-.463,1.609-.664a48.172,48.172,0,0,1,5.973-1.85v-.141c-.08-1.589-.744-16.311,3.4-23.411,1.026-1.77,2.414-4.706,4-8.206l.6-1.327c1.046-2.373,2.172-4.928,3.3-7.542h0c4.3-9.916,8.769-20.374,10.519-21.983,3.017-2.776,6.517-6.476,6.517-6.476s2.051-6.7,3.459-8.125c10.117-10.237,27.574-3.721,30.953-3.721,3.721,0,7.884,6.456,7.381,6.758a93.68,93.68,0,0,1,9.875,4.606,15.053,15.053,0,0,1,7.562,11.122c.965,7.12,2.715,19.087,4.525,26.649a28.6,28.6,0,0,0,1.931,5.994c2.112,3.9,14.521,15.044,20.636,28.54a39.085,39.085,0,0,1,2.715,8.045C575.759,530.4,576.06,537.237,575.98,540.495Z" transform="translate(-338.526 -331.722)" fill="#174b71"/>
    <g id="Group_610" data-name="Group 610" transform="translate(176.693 99.077)" opacity="0.5">
      <path id="Path_14442" data-name="Path 14442" d="M838.8,452.914c.5-.141,7.241.141,9.071,9.393l-7.039.362Z" transform="translate(-838.8 -452.893)"/>
    </g>
    <g id="Group_611" data-name="Group 611" transform="translate(198.073 181.741)" opacity="0.5">
      <path id="Path_14443" data-name="Path 14443" d="M949.2,891.957l-2.112.02-.04-.7-.04-.7-.865-12.47-.02-.2-.443-6.436-.121-1.77-.02-.282-.06-.825-.362-4.525-.02-.161c.2.2.382.382.583.563,2.031,1.79,4.163,2.474,5.652,3.439.08.06.181.1.282.161a11.349,11.349,0,0,0,4.143.644,94.661,94.661,0,0,1,10.539.463c4.485.644,8.689,2.273,10.68,6.6a33.02,33.02,0,0,1,1.569,4.1c0,.02,0,.02.02.04a48.133,48.133,0,0,1,1.991,10.941,2.7,2.7,0,0,1,.02.4c0,.141.02.261.02.4q-6.818.091-13.636.141C961.07,891.877,955.136,891.917,949.2,891.957Z" transform="translate(-945.1 -863.9)"/>
    </g>
    <g id="Group_612" data-name="Group 612" transform="translate(96.565 159.175)" opacity="0.5">
      <path id="Path_14444" data-name="Path 14444" d="M499.29,770.184V802.5l-10.8.02-23.069-.04h-5.692c-1.85,0-3.7-.02-5.551-.02-3.339-.02-6.677-.02-10.016-.04h-.04l-.2-.382-.221-.382-.422-.764-2.393-4.284-.161-.282-.322-.563,2.132-7.14.1-.221.6-1.167h0l.563-1.106,1.026-2.031.08-.141,1.086-2.132,3.278-1.75.422-.221,1.348-.724,3.781-2.011.463-.06,10.338-1.448.241-.04,9.835-1.388s.141-1.368.322-3.339c.221-2.333.543-5.511.8-8.166.02-.121.02-.261.04-.382,0-.06.02-.121.02-.181.241-2.554.422-4.525.422-4.686a10.7,10.7,0,0,1,2.414-1.247c1.83-.8,4.364-1.87,6.476-2.776h0c2.052-.865,3.681-1.569,3.882-1.71h.7c.221,0,1.207,1.951,2.434,4.586h0c.342.744.7,1.549,1.086,2.373l.06.121c.02.04.04.06.04.1.684,1.529,1.388,3.117,2.051,4.626C498,767.126,499.29,770.184,499.29,770.184Z" transform="translate(-440.4 -751.7)"/>
    </g>
    <g id="Group_613" data-name="Group 613" transform="translate(146.062 98.234)" opacity="0.5">
      <path id="Path_14445" data-name="Path 14445" d="M686.5,462.3s2.152-4.807,2.514-5.129a15.848,15.848,0,0,0,.8-3.178,7.95,7.95,0,0,1,1.368-3.3,7.606,7.606,0,0,1,2.373-1.991h0l4.1,9.372-3.218,4.606Z" transform="translate(-686.5 -448.7)"/>
    </g>
    <path id="Path_14446" data-name="Path 14446" d="M709.186,495.508,699.472,494l-28.56,2.434s-10.217,23.471-9.614,24.115c.3.322,8.407,26.167,8.407,26.167l-.563,21.279s-2.9,3.58-3.4,6.134c-1.549,8.045,51.87,10,53.2,5.189V501.281Z" transform="translate(-520.284 -386.655)" fill="#78aa41"/>
    <path id="Path_14447" data-name="Path 14447" d="M696.4,635.6l4.726-.06,4.726-.02,9.453-.02,9.473.02,4.726.02,4.726.06-4.726.04-4.726.02-9.473.04-9.453-.04-4.726-.02Z" transform="translate(-548.347 -499.696)" fill="#fff"/>
    <path id="Path_14448" data-name="Path 14448" d="M696.4,665.2l4.726-.06,4.726-.02,9.453-.02,9.473.02,4.726.02,4.726.06-4.726.04-4.726.04-9.473.02-9.453-.02-4.726-.04Z" transform="translate(-548.347 -523.343)" fill="#fff"/>
    <path id="Path_14449" data-name="Path 14449" d="M623.019,506.1s-9.01.905-11.464,6.939-10.036,40.487-10.036,40.487-1.126,7.482,2.011,11.5c2.675,3.419,10.881,2.7,15.788.463,8.186-3.721,14.662-28.54,14.662-28.54l3.54-8.588-13.274-4.344-6.034,13.053Z" transform="translate(-472.392 -396.322)" fill="#78aa41"/>
    <path id="Path_14450" data-name="Path 14450" d="M803.174,497.4c.5.121,16.09,2.313,18.906,4.887,2.816,2.595,2.494,25.623,2.494,25.623s-2.494,29.043-4.827,30.933-12.59,8.85-18.343-4.324c-1.669-3.841-5.35-8.548-7.663-13.4a182.27,182.27,0,0,1-7.442-18.564l13.113-6.134,10.157,17.2-1.81-24.678Z" transform="translate(-620.166 -389.371)" fill="#78aa41"/>
    <path id="Path_14451" data-name="Path 14451" d="M701.5,339.7a13.949,13.949,0,0,1,10.3-15.869l.7-.181c7.663-1.488,13.214,4.183,14.481,11.887l6.356,30.551a1.412,1.412,0,0,1-.483,1.368l-14.944,12.249-3.5-15.99s-7.542.724-9.493-6.517C703.993,353.7,702.645,346.361,701.5,339.7Z" transform="translate(-552.259 -250.38)" fill="#ffbf9d"/>
    <path id="Path_14452" data-name="Path 14452" d="M766.2,503.109a18.129,18.129,0,0,0,8.789-5.209s-.905,5.792-8.307,7Z" transform="translate(-604.108 -389.771)" fill="#ff9a6c"/>
    <path id="Path_14453" data-name="Path 14453" d="M748.795,421.712a8.2,8.2,0,0,0-1.891.141c-.3.04-.583.06-.664-.121a1.79,1.79,0,0,1-.02-.885c.1-.764.181-1.549.282-2.393a37.612,37.612,0,0,0,.442-6.154,37.321,37.321,0,0,0-.945,6.114c-.08.825-.181,1.629-.241,2.393a1.656,1.656,0,0,0,.141,1.146.733.733,0,0,0,.583.3,2.148,2.148,0,0,0,.5-.06A7.67,7.67,0,0,0,748.795,421.712Z" transform="translate(-587.749 -321.387)" fill="#1a2e35"/>
    <ellipse id="Ellipse_368" data-name="Ellipse 368" cx="0.845" cy="1.227" rx="0.845" ry="1.227" transform="translate(153.383 93.065)" fill="#1a2e35"/>
    <ellipse id="Ellipse_369" data-name="Ellipse 369" cx="0.845" cy="1.227" rx="0.845" ry="1.227" transform="translate(162.353 92.28)" fill="#1a2e35"/>
    <path id="Path_14454" data-name="Path 14454" d="M768.428,398.422c-.241-.221-1.207.422-2.474.905s-2.414.644-2.454.965c0,.161.3.322.825.4a4.58,4.58,0,0,0,3.741-1.428C768.428,398.864,768.548,398.522,768.428,398.422Z" transform="translate(-601.951 -310.264)" fill="#1a2e35"/>
    <path id="Path_14455" data-name="Path 14455" d="M716.228,409.521c-.2-.3-1.207-.161-2.353-.3-1.146-.121-2.092-.483-2.353-.241-.121.121,0,.4.382.7a4.082,4.082,0,0,0,1.85.7,3.816,3.816,0,0,0,1.951-.261C716.147,409.9,716.308,409.661,716.228,409.521Z" transform="translate(-560.391 -318.668)" fill="#1a2e35"/>
    <path id="Path_14456" data-name="Path 14456" d="M830.3,408.582c.1-.08,4.606-2.755,5.712,2.253s-4.143,5.089-4.183,4.948S830.3,408.582,830.3,408.582Z" transform="translate(-655.316 -317.79)" fill="#ffbf9d"/>
    <path id="Path_14457" data-name="Path 14457" d="M839.542,420.431c.02-.02.1.04.261.08a.967.967,0,0,0,.664-.121,2.189,2.189,0,0,0,.563-2.152,2.867,2.867,0,0,0-.523-1.187,1.04,1.04,0,0,0-.8-.523.472.472,0,0,0-.463.362c-.04.161.02.241,0,.261s-.121-.06-.141-.282a.6.6,0,0,1,.121-.362.7.7,0,0,1,.463-.241,1.235,1.235,0,0,1,1.086.583,3.2,3.2,0,0,1,.6,1.327,2.308,2.308,0,0,1-.784,2.434.919.919,0,0,1-.825.04C839.583,420.531,839.522,420.431,839.542,420.431Z" transform="translate(-662.346 -324.55)" fill="#ff9a6c"/>
    <path id="Path_14458" data-name="Path 14458" d="M755.07,402.247a.791.791,0,0,1-.523.06A1.787,1.787,0,0,1,753,400.5c.02-.322.1-.523.141-.5s0,.2.04.5a2.025,2.025,0,0,0,.442,1.046,2.128,2.128,0,0,0,.965.6C754.869,402.207,755.05,402.207,755.07,402.247Z" transform="translate(-593.562 -311.556)" fill="#ff9a6c"/>
    <path id="Path_14459" data-name="Path 14459" d="M694.5,316.67c.02.1.06.2.08.3.885,4.3-.282,9.9-.282,9.9-3.178.764-3.781-5.41-3.781-5.41-4.264-.624-4.123-6.818-5.31-7.5s-3.7-2.273-10.961,3.781a16.264,16.264,0,0,1-9.493,3.258h-.261a.152.152,0,0,1-.08-.02,7.578,7.578,0,0,1-2.313-.422,4.314,4.314,0,0,1-2.172-1.529,2.317,2.317,0,0,1-.1-2.554,5.011,5.011,0,0,1-1.75-2.373,2.936,2.936,0,0,1,.483-2.816,2.106,2.106,0,0,1,2.7-.4,2.447,2.447,0,0,1,1.388-3.359c1.247-.362,2.554.342,3.862.4a6.029,6.029,0,0,0,3.56-1.247c1.066-.724,1.991-1.609,3.057-2.313a10.378,10.378,0,0,1,7.663-1.408c2.615.543,4.686,1.207,6.154,3.419,1.589-.925,3.781-.121,5.249.986,0,0,2.011,1.146,2.172,5.149C694.522,316.107,694.5,316.67,694.5,316.67Z" transform="translate(-517.608 -233.862)" fill="#1a2e35"/>
    <path id="Path_14460" data-name="Path 14460" d="M676,332.286c.02-.02.261.241.8.6a7.1,7.1,0,0,0,2.514,1.046,11.372,11.372,0,0,0,4.043.06,27.726,27.726,0,0,0,4.807-1.348A31.943,31.943,0,0,1,693,331.24a11.831,11.831,0,0,1,4.123-.02,6.957,6.957,0,0,1,2.574,1.006,3.426,3.426,0,0,1,.6.463,1.533,1.533,0,0,1,.181.181c-.02.02-.282-.221-.845-.563a7.289,7.289,0,0,0-2.574-.905,11.86,11.86,0,0,0-4.043.08,31.518,31.518,0,0,0-4.787,1.408,26.566,26.566,0,0,1-4.847,1.327,10.831,10.831,0,0,1-4.1-.121,7,7,0,0,1-2.534-1.126,3.355,3.355,0,0,1-.563-.5A.769.769,0,0,1,676,332.286Z" transform="translate(-532.05 -256.478)" fill="#375a64"/>
    <path id="Path_14461" data-name="Path 14461" d="M698.418,342.822c-.02.02-.3-.2-.885-.483a6.807,6.807,0,0,0-2.675-.583,11.361,11.361,0,0,0-4,.724c-1.448.5-2.977,1.287-4.626,1.991a18.194,18.194,0,0,1-2.494.845,12.448,12.448,0,0,1-2.434.342,12.84,12.84,0,0,1-4.1-.5,11.9,11.9,0,0,1-2.554-1.086,6.936,6.936,0,0,1-.644-.4.786.786,0,0,1-.2-.161c.02-.02.322.181.905.483a13.009,13.009,0,0,0,6.617,1.448,13.5,13.5,0,0,0,2.373-.342,17.669,17.669,0,0,0,2.454-.845c1.649-.684,3.178-1.468,4.646-1.971a11.313,11.313,0,0,1,4.083-.684,6.573,6.573,0,0,1,2.7.664,4.3,4.3,0,0,1,.644.4A.511.511,0,0,1,698.418,342.822Z" transform="translate(-530.292 -264.902)" fill="#375a64"/>
    <path id="Path_14462" data-name="Path 14462" d="M812.119,347.963a2.114,2.114,0,0,1-.905.583,4.713,4.713,0,0,1-2.574.342,8.935,8.935,0,0,1-2.434-.925c-.6-.241-1.006-.3-1.006-.342a1.98,1.98,0,0,1,1.066.2,10.45,10.45,0,0,0,2.414.845,5.261,5.261,0,0,0,2.494-.261C811.757,348.164,812.1,347.922,812.119,347.963Z" transform="translate(-635.264 -269.701)" fill="#375a64"/>
    <path id="Path_14463" data-name="Path 14463" d="M812.775,355.334a3.063,3.063,0,0,1-.945.483,6.938,6.938,0,0,1-5.008-.1,3.074,3.074,0,0,1-.925-.523c.02-.02.382.141.986.362a8.173,8.173,0,0,0,4.908.1C812.393,355.475,812.755,355.314,812.775,355.334Z" transform="translate(-635.82 -275.765)" fill="#375a64"/>
    <path id="Path_14464" data-name="Path 14464" d="M740.463,404.2a1.329,1.329,0,0,1-.141,1.207c-.342.624-.905.865-.925.8a6.024,6.024,0,0,0,.7-.925C740.383,404.721,740.383,404.2,740.463,404.2Z" transform="translate(-582.696 -314.914)" fill="#ff9a6c"/>
    <path id="Path_14465" data-name="Path 14465" d="M615.8,613.366a2.969,2.969,0,0,0,.161-.342c.1-.241.261-.563.463-.986.4-.865.986-2.152,1.73-3.781,1.488-3.278,3.6-7.965,6.175-13.677l.04-.08.08.02,13.335,4.525.121.04-.04.1-6.436,16.271c-1.327,3.359-2.635,6.617-3.862,9.795a37.335,37.335,0,0,1-2.072,4.566,16.4,16.4,0,0,1-2.856,3.882,15.946,15.946,0,0,1-3.64,2.8,13.294,13.294,0,0,1-4.083,1.408,16.823,16.823,0,0,1-4.023.181,14.1,14.1,0,0,1-3.661-.623,7.477,7.477,0,0,1-2.9-1.73,7.792,7.792,0,0,1-1.649-2.514,16.385,16.385,0,0,1-1.086-4.686,21.866,21.866,0,0,1-.04-3.037c.02-.362.06-.7.1-1.046a2.34,2.34,0,0,1-.02.261,6.8,6.8,0,0,0-.04.784,21.906,21.906,0,0,0,.1,3.037,16.154,16.154,0,0,0,1.106,4.646,7.534,7.534,0,0,0,1.649,2.454,7.119,7.119,0,0,0,2.836,1.669,13.78,13.78,0,0,0,3.62.6,17.59,17.59,0,0,0,3.982-.2,12.949,12.949,0,0,0,4.023-1.408,15.454,15.454,0,0,0,3.58-2.755,16.39,16.39,0,0,0,2.8-3.821,38.348,38.348,0,0,0,2.051-4.545c1.207-3.178,2.534-6.436,3.841-9.795,2.273-5.732,4.465-11.243,6.456-16.271l.06.161L624.368,594.7l.121-.04c-2.594,5.712-4.747,10.4-6.255,13.636-.764,1.629-1.348,2.9-1.77,3.741-.2.422-.362.764-.483.965A.875.875,0,0,1,615.8,613.366Z" transform="translate(-472.554 -466.942)" fill="#1a2e35"/>
    <path id="Path_14466" data-name="Path 14466" d="M691.6,594.636a2.578,2.578,0,0,1,.1-.543c.1-.4.2-.885.342-1.448.282-1.227.7-2.916,1.167-4.787.845-3.339,1.408-5.611,1.71-6.758a51.933,51.933,0,0,1-1.468,6.818c-.463,1.87-.905,3.56-1.247,4.787-.161.6-.3,1.106-.4,1.448C691.741,594.294,691.68,594.475,691.6,594.636Z" transform="translate(-544.512 -456.237)" fill="#1a2e35"/>
    <path id="Path_14467" data-name="Path 14467" d="M730.534,455.565a1.76,1.76,0,0,0-2.675,0c-1.267,1.468-1.126,5.028,1.267,8.648s1.448,17.216,1.448,17.216l14.119-5.27.965,4.324a14.927,14.927,0,0,0,4.726-4.324c1.83-2.755-.945-6.255-1.488-8.467s-5.672-5.692-7.16-8S736.508,452.73,730.534,455.565Z" transform="translate(-572.847 -355.24)" fill="#fafafa"/>
    <path id="Path_14468" data-name="Path 14468" d="M761.046,505.56s-3.982-8.488-4.525-10.036-2.9-6.758-2.595-7.763c.282-.965,1.669,0,1.669,0s-2.776-5.35-1.931-6.476a.947.947,0,0,1,1.488-.1s-1.73-3.077-.261-4c.764-.483,2.031,1.368,2.031,1.368a1.363,1.363,0,0,1,2.313.342c1.106,1.689,5.692,9.212,5.692,9.212a20.219,20.219,0,0,1,.382-5.712c.442-1.448,2.554-2.273,2.675,2.132.08,2.856,3.4,16.251,3.4,16.251Z" transform="translate(-593.966 -373.155)" fill="#ffbf9d"/>
    <path id="Path_14469" data-name="Path 14469" d="M760.558,505.259a1.858,1.858,0,0,1,.181-.1l.543-.261,2.052-.986,7.542-3.54-.04.1c-.845-3.439-1.85-7.542-2.8-12.188-.221-1.167-.463-2.353-.6-3.6-.06-.644-.06-1.247-.161-1.87l-.1-.463c-.04-.161-.1-.3-.141-.443a1.569,1.569,0,0,0-.523-.724.772.772,0,0,0-.8-.04,1.482,1.482,0,0,0-.6.664,3.782,3.782,0,0,0-.282.925c-.06.322-.121.644-.161.986a23.049,23.049,0,0,0-.06,4.083.113.113,0,0,1-.1.121.111.111,0,0,1-.1-.06c-.925-1.488-1.891-3.077-2.876-4.666l-2.152-3.5-.523-.865a3.064,3.064,0,0,0-.6-.744,1.068,1.068,0,0,0-.845-.221,1.538,1.538,0,0,0-.784.442.15.15,0,0,1-.181,0l-.02-.02a5.079,5.079,0,0,0-1.207-1.247.657.657,0,0,0-.7-.08,1.108,1.108,0,0,0-.442.644,3.094,3.094,0,0,0,.141,1.649,8.675,8.675,0,0,0,.644,1.549.156.156,0,0,1-.04.161h0a.124.124,0,0,1-.141-.02.9.9,0,0,0-.925-.241.994.994,0,0,0-.382.322.783.783,0,0,0-.141.463,6.255,6.255,0,0,0,.422,2.092,29.2,29.2,0,0,0,1.649,3.821.115.115,0,0,1-.04.141h0a.09.09,0,0,1-.1,0,2.42,2.42,0,0,0-1.026-.422.408.408,0,0,0-.4.2.431.431,0,0,0-.081.241l-.02.121.02.141a10.727,10.727,0,0,0,.563,2.132c.483,1.368,1.006,2.635,1.488,3.841.885,2.434,1.85,4.465,2.615,6.154l1.75,3.9.463,1.026.121.261c-.08.081-.08.121-.08.121a.153.153,0,0,1-.04-.08c-.04-.06-.08-.161-.141-.261l-.483-1.026c-.422-.905-1.046-2.212-1.83-3.882s-1.73-3.721-2.655-6.154c-.5-1.187-1.026-2.474-1.508-3.841a10.434,10.434,0,0,1-.583-2.172.761.761,0,0,1,0-.3.542.542,0,0,1,.1-.3.6.6,0,0,1,.583-.282,2.364,2.364,0,0,1,1.146.442l-.141.141a30.8,30.8,0,0,1-1.669-3.842,6.447,6.447,0,0,1-.443-2.192,1.021,1.021,0,0,1,.2-.583,1.139,1.139,0,0,1,.483-.382.837.837,0,0,1,.623-.02,1.448,1.448,0,0,1,.543.3l-.181.141a7.812,7.812,0,0,1-.664-1.589,3.532,3.532,0,0,1-.141-1.77,1.388,1.388,0,0,1,.543-.764.628.628,0,0,1,.5-.1,1.46,1.46,0,0,1,.442.181,5.212,5.212,0,0,1,1.267,1.307h-.181a1.8,1.8,0,0,1,.905-.523,1.255,1.255,0,0,1,1.026.261,2.539,2.539,0,0,1,.664.8c.181.282.362.583.543.865q1.056,1.72,2.172,3.5l2.876,4.666-.221.08a23.528,23.528,0,0,1,.06-4.123,8.057,8.057,0,0,1,.161-1.006,4.291,4.291,0,0,1,.3-.986,1.77,1.77,0,0,1,.724-.764.984.984,0,0,1,1.046.06,1.874,1.874,0,0,1,.6.825,4.193,4.193,0,0,1,.161.463l.1.483c.1.624.121,1.287.161,1.891.121,1.227.362,2.414.583,3.58.925,4.646,1.911,8.749,2.755,12.208,0,.04,0,.08-.04.1l-7.623,3.479-2.051.925-.523.241Z" transform="translate(-593.479 -372.854)" fill="#ff9a6c"/>
    <path id="Path_14470" data-name="Path 14470" d="M775.739,494.577c-.06.04-1.247-2.253-2.635-5.089s-2.474-5.169-2.414-5.189,1.247,2.253,2.635,5.089S775.8,494.557,775.739,494.577Z" transform="translate(-607.694 -378.906)" fill="#ff9a6c"/>
    <path id="Path_14471" data-name="Path 14471" d="M766.274,507.094c-.06.02-1.106-2.152-2.353-4.847s-2.192-4.928-2.132-4.948,1.106,2.132,2.353,4.847S766.335,507.074,766.274,507.094Z" transform="translate(-600.582 -389.291)" fill="#ff9a6c"/>
    <path id="Path_14472" data-name="Path 14472" d="M766.461,536.273a3.48,3.48,0,0,1-.583-.8,18.1,18.1,0,0,1-1.971-4.3,3.732,3.732,0,0,1-.221-.965c.06-.02.523,1.408,1.287,3.077S766.521,536.233,766.461,536.273Z" transform="translate(-602.096 -415.574)" fill="#ff9a6c"/>
    <path id="Path_14473" data-name="Path 14473" d="M708.646,494.587a1.235,1.235,0,0,0-1.428-.583,14.131,14.131,0,0,0-3.922,1.508c-.845.744-2.635,2.755-2.635,4.083a18.567,18.567,0,0,1-.563,1.85,2.8,2.8,0,0,0,1.146,3.077c.543.463,2.595,5.35,2.595,5.35l1.207,4.887,5.43,1.911,4.465,1.529-2.333-6.657-3.661,1.287.362-8.508,1.066-2.011-.282-1.267-.885-.261a1.1,1.1,0,0,0,.161-1.488l-.764-.644a1.288,1.288,0,0,0,.845-2.011,1.622,1.622,0,0,0-1.368-.322A1.954,1.954,0,0,0,708.646,494.587Z" transform="translate(-551.22 -386.619)" fill="#ffbf9d"/>
    <path id="Path_14474" data-name="Path 14474" d="M720.87,537.114a.611.611,0,0,1-.161-.161,6.366,6.366,0,0,1-.4-.543,5.215,5.215,0,0,1-.523-.925,2.608,2.608,0,0,1-.221-1.408,3.459,3.459,0,0,1,.644-1.589A12.706,12.706,0,0,1,721.473,531a4.806,4.806,0,0,0,1.106-1.75,1.693,1.693,0,0,0,.04-1.046.816.816,0,0,0-.744-.583,1.72,1.72,0,0,0-.905.543l-.845.744-1.609,1.428a9.291,9.291,0,0,0-2.393,2.655,3.25,3.25,0,0,0-.282,2.333c.141.563.3.845.261.845a1.767,1.767,0,0,1-.121-.2,3.34,3.34,0,0,1-.241-.623,3.742,3.742,0,0,1-.141-1.046,3.219,3.219,0,0,1,.362-1.368,9,9,0,0,1,2.393-2.735c.5-.463,1.046-.925,1.589-1.428l.845-.764a1.767,1.767,0,0,1,1.066-.6,1.084,1.084,0,0,1,.986.744,1.848,1.848,0,0,1-.04,1.187,5.019,5.019,0,0,1-1.167,1.83q-.664.694-1.267,1.448a3.184,3.184,0,0,0-.644,1.488,2.737,2.737,0,0,0,.181,1.327,4.514,4.514,0,0,0,.483.925C720.688,536.853,720.87,537.114,720.87,537.114Z" transform="translate(-563.685 -413.338)" fill="#ff9a6c"/>
    <path id="Path_14475" data-name="Path 14475" d="M707.81,523.463a.6.6,0,0,1-.06-.081,1.35,1.35,0,0,1-.121-.241,3.461,3.461,0,0,1-.141-.422.843.843,0,0,1,.121-.623h0L711.349,520a2.946,2.946,0,0,0,1.086-.825,1.039,1.039,0,0,0,.221-.644.815.815,0,0,0-.282-.6,1.486,1.486,0,0,0-1.408-.282,10.38,10.38,0,0,0-1.549.623l-4.244,1.931a2.042,2.042,0,0,0-.764.6,1.468,1.468,0,0,0-.221.865,5,5,0,0,0,.463,1.669,24.216,24.216,0,0,0,1.086,2.313c.3.523.463.8.463.825a.787.787,0,0,1-.161-.2c-.1-.141-.221-.322-.382-.583a16.372,16.372,0,0,1-1.167-2.293,5.447,5.447,0,0,1-.5-1.73,1.612,1.612,0,0,1,.261-1.006,2,2,0,0,1,.845-.684c1.307-.623,2.735-1.247,4.244-1.951a9.066,9.066,0,0,1,1.589-.644,1.712,1.712,0,0,1,1.629.342,1.039,1.039,0,0,1,.342.764,1.3,1.3,0,0,1-.261.764,3.094,3.094,0,0,1-1.167.865l-3.781,2.011h.02a.725.725,0,0,0-.1.543,3.2,3.2,0,0,0,.1.422A1.9,1.9,0,0,0,707.81,523.463Z" transform="translate(-554.407 -405.278)" fill="#ff9a6c"/>
    <path id="Path_14476" data-name="Path 14476" d="M703.3,509.64a3.8,3.8,0,0,1,.221-.5,7.688,7.688,0,0,1,.8-1.287,4.643,4.643,0,0,1,1.79-1.388,18.113,18.113,0,0,1,2.615-.865l1.368-.382a3.1,3.1,0,0,1,1.348-.2,1.351,1.351,0,0,1,.6.261,1.012,1.012,0,0,1,.322.543,1.263,1.263,0,0,1-.241,1.066,1.983,1.983,0,0,1-1.368.7,1.329,1.329,0,0,1-.563,0c0-.02.2-.02.543-.1a1.962,1.962,0,0,0,1.227-.7,1.053,1.053,0,0,0,.181-.905.834.834,0,0,0-.764-.644,3.169,3.169,0,0,0-1.247.2l-1.368.382a21.975,21.975,0,0,0-2.595.825,4.462,4.462,0,0,0-1.75,1.287,10.381,10.381,0,0,0-.865,1.227A1.4,1.4,0,0,1,703.3,509.64Z" transform="translate(-553.859 -395.437)" fill="#ff9a6c"/>
    <path id="Path_14477" data-name="Path 14477" d="M708.563,495.648c.2-.06.4-.121.6-.161a3,3,0,0,0,1.448-.724,1.3,1.3,0,0,0,.382-.986.923.923,0,0,0-.7-.865,2.858,2.858,0,0,0-1.368.342c-.5.181-.986.322-1.508.5a12.989,12.989,0,0,0-1.468.563,3.677,3.677,0,0,0-1.026.986c-.282.362-.543.744-.784,1.086a5.006,5.006,0,0,0-.664.925,4.02,4.02,0,0,0-.382,1.609c-.02.4,0,.6-.02.624a2.121,2.121,0,0,1-.081-.624,3.925,3.925,0,0,1,.322-1.669,2.566,2.566,0,0,1,.3-.5c.121-.161.241-.3.362-.483.241-.342.483-.724.764-1.106a3.588,3.588,0,0,1,1.086-1.046,13.42,13.42,0,0,1,1.488-.583l1.508-.5a2.886,2.886,0,0,1,1.488-.322.968.968,0,0,1,.644.4,1.332,1.332,0,0,1,.241.664,1.366,1.366,0,0,1-.463,1.106,2.75,2.75,0,0,1-1.549.7A2.12,2.12,0,0,1,708.563,495.648Z" transform="translate(-553.611 -385.608)" fill="#ff9a6c"/>
    <path id="Path_14478" data-name="Path 14478" d="M803.986,601.336a.7.7,0,0,1-.1-.161l-.3-.5-1.146-1.931-4.163-7.18.1.04L785.3,597.756l.06-.141c1.488,4.264,3.3,8.91,5.451,13.636,2.313,5.089,4.787,9.795,7.16,14.018,1.187,2.112,2.333,4.1,3.439,5.953a15.613,15.613,0,0,0,3.8,4.545,7.959,7.959,0,0,0,2.273,1.207,7.818,7.818,0,0,0,2.273.4,8.579,8.579,0,0,0,3.62-.664,5.759,5.759,0,0,0,1.931-1.307c.382-.382.523-.623.543-.6s-.04.06-.121.181c-.121.161-.241.322-.382.483a5.587,5.587,0,0,1-1.931,1.348,8.433,8.433,0,0,1-3.66.7,8.972,8.972,0,0,1-2.313-.382,7.855,7.855,0,0,1-2.333-1.227,16.231,16.231,0,0,1-3.862-4.586c-1.126-1.83-2.273-3.842-3.459-5.953-2.373-4.224-4.867-8.93-7.2-14.039-2.172-4.727-3.962-9.372-5.451-13.656l-.04-.1.1-.04,13.113-6.094.06-.04.04.06,4.083,7.22c.463.845.845,1.508,1.106,1.971.121.221.221.382.282.5A.412.412,0,0,1,803.986,601.336Z" transform="translate(-619.207 -464.466)" fill="#1a2e35"/>
    <path id="Path_14479" data-name="Path 14479" d="M737.312,473.519a1.534,1.534,0,0,1-.744-.04,2.914,2.914,0,0,1-2.212-2.554,1.42,1.42,0,0,1,.06-.724c.02,0,.02.282.1.7a3.127,3.127,0,0,0,2.092,2.414A5.646,5.646,0,0,1,737.312,473.519Z" transform="translate(-578.66 -367.642)" fill="#e1e1e1"/>
    <path id="Path_14480" data-name="Path 14480" d="M788.488,474.3a1.6,1.6,0,0,1,.282.362,9.248,9.248,0,0,1,.664,1.086,21.453,21.453,0,0,1,2.635,7.924c.06.543.1.965.1,1.267a1.777,1.777,0,0,1,0,.463c-.04,0-.1-.664-.282-1.71a25.7,25.7,0,0,0-2.615-7.864C788.81,474.883,788.448,474.32,788.488,474.3Z" transform="translate(-621.911 -370.917)" fill="#e1e1e1"/>
    <path id="Path_14481" data-name="Path 14481" d="M736.676,484.569a1.945,1.945,0,0,1-.764,0,4.936,4.936,0,0,1-3.138-1.81,1.943,1.943,0,0,1-.382-.664,8.364,8.364,0,0,0,1.911,1.649A10.925,10.925,0,0,0,736.676,484.569Z" transform="translate(-577.098 -377.144)" fill="#e1e1e1"/>
    <path id="Path_14482" data-name="Path 14482" d="M789.589,998.108l-5.189.02,2.574-.845,2.072-.684.241.684Z" transform="translate(-618.648 -788.169)" fill="#bad6dd"/>
    <path id="Path_14483" data-name="Path 14483" d="M628.63,898.137c0,1.649-3,4.183-5.994,6.114-.282.181-.563.362-.845.523-.322.181-.623.362-.925.543q-8.9.091-17.8.141l-2.112.02-5.088.04-7.2.04-14.381.06H563.163l-6.818.02-10.8.02-23.069-.04c-.261-.161-.543-.3-.8-.443-.221-.121-.442-.261-.664-.382-.483-.282-.945-.563-1.388-.825a22.969,22.969,0,0,1-5.471-4.183,10.45,10.45,0,0,1-1.85-3.379,12.176,12.176,0,0,1,0-6.738c.141-.583.3-1.167.483-1.73a.372.372,0,0,0,.04-.141c.825-2.574,4.063-4.4,7-5.531.2-.08.4-.161.6-.221.945-.342,1.85-.6,2.594-.8a4.857,4.857,0,0,1,.483-.1c.04,0,.1-.02.161-.02,1.348-.181,3.922-.261,6.919-.3,1.569-.02,3.238-.02,4.928-.02,4.646.02,9.312.1,11.685.161,1.006.02,1.589.04,1.589.04a52.909,52.909,0,0,0,7.583,3.661,44.071,44.071,0,0,0,10.68,2.836c8.085.965,23.753-3.339,28.278-4.646.8-.241,1.267-.382,1.267-.382s1.086-.141,2.776-.322c.06,0,.141-.02.221-.02,1.549-.161,3.56-.342,5.692-.483a.981.981,0,0,0,.241-.02,63.31,63.31,0,0,1,8.025-.06c.081,0,.141.02.221.02,3.319.261,5.068.523,6.456,1.146a3.032,3.032,0,0,1,.442.221,18.448,18.448,0,0,1,3.218,2.393C627.141,888.1,628.63,895.16,628.63,898.137Z" transform="translate(-400.891 -695.66)" fill="#1a2e35"/>
    <path id="Path_14484" data-name="Path 14484" d="M635.655,915.445c-.04,0-.08-.02-.121-.02l-.342-.1-1.267-.422c-1.106-.362-2.7-.905-4.666-1.609-3.922-1.408-9.292-3.479-15.084-6.074s-10.921-5.229-14.582-7.22c-1.83-.986-3.3-1.81-4.3-2.414l-1.167-.684-.3-.181a.057.057,0,1,1,0-.08.074.074,0,0,1,.02.06l.3.161,1.187.644c1.026.563,2.514,1.368,4.344,2.333,3.681,1.951,8.809,4.545,14.6,7.14s11.142,4.686,15.044,6.154c1.951.724,3.54,1.307,4.626,1.689l1.267.463.322.121A.287.287,0,0,1,635.655,915.445Z" transform="translate(-466.323 -708.302)" fill="#375a64"/>
    <path id="Path_14485" data-name="Path 14485" d="M810.442,910.6c0,.06-.02.1-.02.161-.02.121-.06.282-.1.483-.1.422-.241,1.046-.422,1.83v.02h-.02c-1.388.563-3.4,1.348-5.853,2.293-4.525,1.77-10.619,4.123-17.317,6.718-5.451,2.112-10.5,4.043-14.642,5.632-.764.3-1.508.563-2.192.845q-1.177.453-2.233.845H767.2q1.026-.392,2.172-.845c.684-.261,1.408-.543,2.152-.845,4.224-1.649,9.453-3.661,15.1-5.853,6.718-2.595,12.852-4.948,17.4-6.677,2.434-.925,4.4-1.669,5.792-2.192l.463-1.79a4.016,4.016,0,0,0,.121-.463A.473.473,0,0,1,810.442,910.6Z" transform="translate(-604.907 -719.466)" fill="#375a64"/>
    <path id="Path_14486" data-name="Path 14486" d="M927.542,592.734l.08.362c-1.066.02-2.132.04-3.2.04,0-.121-.02-.261-.02-.4,0-.121-.02-.261-.02-.4a43.622,43.622,0,0,0-2.132-10.941c0-.02-.02-.02-.02-.04a42.589,42.589,0,0,0-1.569-3.962c-1.911-4.163-5.913-5.833-10.237-6.517-4.163-.664-8.648-.4-11.826-.563a8.047,8.047,0,0,1-3.56-.744.07.07,0,0,1-.04-.02c-1.468-.965-3.6-1.649-5.652-3.459-.2-.161-.382-.362-.583-.543l-.02-.02c-1.79-1.79-3.419-4.586-4.4-9.332v-.02c0-.04-.02-.06-.02-.1a53.183,53.183,0,0,1-.905-10.841c0-4.545-2.313-11.364-4.566-16.915-1.488-3.661-2.936-6.758-3.681-8.286-.181-.362-.322-.644-.4-.825h0l-.1-.2v-.362h0c-.06-1.991-.261-11.866.7-18.182.2-1.267.342-2.414.463-3.439.241-2.192.342-3.842.382-4.968v-.1c.02-1.187-.02-1.75-.02-1.75l13.033,4.043A8.719,8.719,0,0,1,895.221,501l1.267,6.858,1.85,17.8.644,2.675,2.936,12.249,11.947,11.2,6.5,12.269,3.1,5.833,3.52,20.615.483,1.891Z" transform="translate(-690.711 -383.62)" fill="#174b71"/>
    <path id="Path_14487" data-name="Path 14487" d="M487.983,458.381a6.641,6.641,0,0,1-1.79,4.143c-.04.06-.08.1-.121.161a50.244,50.244,0,0,0-4.706,6.557c-.623,1.086-.644,2.574-1.207,4.043-.905,2.353-.362,5.531.644,8.568a75.536,75.536,0,0,0,3.821,8.769h0a2.183,2.183,0,0,1,.282.865c-.02.08-.241.5-.6,1.167h0c-.4.744-.986,1.83-1.689,3.158h0c-.2.382-.4.764-.6,1.187-1.549,3.017-3.459,7-5.109,11.122a66.014,66.014,0,0,0-2.635,7.8,27.216,27.216,0,0,0-1.026,6.778v.362a10.547,10.547,0,0,0,.342,2.615c1.85,7.019.463,10.378-.543,11.746a3.139,3.139,0,0,1-.784.8s-3.138.362-6.879.523h0c-1.307.06-2.675.08-4.023.08h-.1c-.965-.02-1.931-.04-2.816-.121-.161-.02-.322-.02-.483-.04a31.115,31.115,0,0,0-5.27.221c-.925.121-1.891.261-2.856.483a25.95,25.95,0,0,0-5.632,1.83c-.121.06-.241.121-.342.161a15.793,15.793,0,0,0-3.922,2.7l-.06.06a11.659,11.659,0,0,0-1.508,1.79,8.433,8.433,0,0,0-.684,1.167,9.836,9.836,0,0,0-1.006,3.278,19.962,19.962,0,0,0,1.368,10.3c.1.261.221.523.322.764.06.121.121.261.181.382s.121.261.181.382h-2.092l-.241-.362c-.08-.121-.161-.261-.241-.382-.141-.241-.3-.5-.442-.744l-.6-1.146v-.02a15.841,15.841,0,0,1-1.327-3.882h0c-.02-.08-.02-.161-.04-.241h0a9.9,9.9,0,0,1-.1-2.031c.02-.221.04-.442.08-.664a36.077,36.077,0,0,1,.965-4.123,64.461,64.461,0,0,1,2.936-7.924h0c.04-.1.1-.221.141-.3.382-.825.644-1.348.684-1.448v-.02l5.27-2.172.523-.221,5.531-2.293,1.468-.6,7.261-.825.282-.04h0l.684-.08-.3-4.244-.02-.221-.623-9.031,2.172-12.43,3.922-9.714.5-1.227,2.414-5.994,3.258-8.025,4.666-10.338,1.85-4.928,7.663-6.034,2.414-7.261L489.25,451A25.2,25.2,0,0,0,487.983,458.381Z" transform="translate(-338.421 -352.304)" fill="#174b71"/>
    <path id="Path_14488" data-name="Path 14488" d="M895.9,663.329a1.139,1.139,0,0,1-.06-.362c-.04-.261-.1-.6-.161-1.026-.121-.885-.3-2.172-.563-3.741q-.453-2.776-1.146-5.491a30.276,30.276,0,0,0-2.454-6.376,20.48,20.48,0,0,0-4.163-5.39,16.554,16.554,0,0,0-4.646-3.037,12.526,12.526,0,0,0-3.62-.965c-.885-.1-1.388-.1-1.388-.121a2.183,2.183,0,0,1,.362-.02,8.747,8.747,0,0,1,1.026.04,12.82,12.82,0,0,1,3.681.905,15.838,15.838,0,0,1,4.726,3.037,20.157,20.157,0,0,1,4.224,5.43,29.7,29.7,0,0,1,2.454,6.436,51.386,51.386,0,0,1,1.106,5.511c.241,1.589.4,2.876.5,3.761.04.422.08.764.1,1.026A1.253,1.253,0,0,1,895.9,663.329Z" transform="translate(-693.183 -500.735)" fill="#1a2e35"/>
    <path id="Path_14489" data-name="Path 14489" d="M896.494,640.319a7.883,7.883,0,0,1-.422-.865,15.88,15.88,0,0,0-1.348-2.253,15.449,15.449,0,0,0-15.145-6.376,18.149,18.149,0,0,0-2.554.6,6.936,6.936,0,0,1-.925.3,2.2,2.2,0,0,1,.221-.121c.161-.06.362-.181.664-.282a14.092,14.092,0,0,1,2.554-.684,15.277,15.277,0,0,1,15.326,6.456,14.543,14.543,0,0,1,1.307,2.313,7.087,7.087,0,0,1,.261.664Z" transform="translate(-691.905 -495.625)" fill="#1a2e35"/>
    <path id="Path_14490" data-name="Path 14490" d="M978.641,756.7a.49.49,0,0,1,0,.241c0,.161-.02.362-.04.664-.04.563-.1,1.408-.221,2.414a23.4,23.4,0,0,1-2.172,7.7,14.376,14.376,0,0,1-2.615,3.58,11.414,11.414,0,0,1-2.916,2.152,8.4,8.4,0,0,1-2.293.8c-.221.04-.442.08-.644.1a.978.978,0,0,1-.241.02,12.382,12.382,0,0,0,3.1-1.086,11.362,11.362,0,0,0,2.836-2.152,14.842,14.842,0,0,0,2.554-3.54,24.648,24.648,0,0,0,2.212-7.623c.141-1.006.241-1.83.3-2.414.02-.261.06-.483.08-.664A1.25,1.25,0,0,0,978.641,756.7Z" transform="translate(-764.921 -596.519)" fill="#1a2e35"/>
    <path id="Path_14491" data-name="Path 14491" d="M878.7,560.849a4.739,4.739,0,0,1,.2-.764l.624-2.072c.523-1.75,1.227-4.183,1.931-6.878s1.267-5.169,1.649-6.959c.181-.865.342-1.569.463-2.112a4.737,4.737,0,0,1,.2-.764,5.233,5.233,0,0,1-.1.784c-.081.5-.2,1.227-.382,2.132-.342,1.81-.885,4.264-1.589,6.979s-1.428,5.129-1.991,6.879c-.282.865-.523,1.569-.7,2.052A6.978,6.978,0,0,1,878.7,560.849Z" transform="translate(-693.982 -424.442)" fill="#1a2e35"/>
    <path id="Path_14492" data-name="Path 14492" d="M602.521,699.319a.851.851,0,0,1-.04-.1l-.08-.3c-.06-.261-.181-.644-.3-1.167a32.182,32.182,0,0,1-.644-4.364,31.617,31.617,0,0,1,6.235-21.279,31.563,31.563,0,0,1,4.465-4.807,30.042,30.042,0,0,1,3.52-2.675c.442-.3.784-.483,1.026-.623l.261-.161a.154.154,0,0,1,.1-.04.6.6,0,0,1-.08.06l-.261.181c-.221.161-.583.362-1.006.664a32.293,32.293,0,0,0-13.536,33.025c.08.5.2.905.241,1.167q.03.181.06.3A.2.2,0,0,1,602.521,699.319Z" transform="translate(-472.429 -522.304)" fill="#1a2e35"/>
    <path id="Path_14493" data-name="Path 14493" d="M588.239,658.8a2.938,2.938,0,0,1-.4.1c-.261.06-.644.121-1.126.241a35.769,35.769,0,0,0-4.063,1.126,30.219,30.219,0,0,0-5.692,2.595,26.207,26.207,0,0,0-5.973,4.747,23.14,23.14,0,0,0-4.143,6.4,20.77,20.77,0,0,0-1.589,6.014,18.356,18.356,0,0,0,.02,4.2c.04.5.141.865.161,1.146a2.721,2.721,0,0,1,.04.4,2.675,2.675,0,0,1-.1-.382,11.012,11.012,0,0,1-.2-1.126,17.636,17.636,0,0,1-.1-4.244,20.746,20.746,0,0,1,1.549-6.094,22.717,22.717,0,0,1,4.163-6.476,26.287,26.287,0,0,1,6.054-4.767,30.013,30.013,0,0,1,5.752-2.554,32.36,32.36,0,0,1,4.1-1.066c.483-.1.885-.141,1.146-.181A1.3,1.3,0,0,1,588.239,658.8Z" transform="translate(-443.363 -518.31)" fill="#1a2e35"/>
    <path id="Path_14494" data-name="Path 14494" d="M607.811,651.074a2.678,2.678,0,0,1-.784-.623,5.907,5.907,0,0,1-1.589-4.465,2.568,2.568,0,0,1,.2-.986c.02,0-.04.382-.04.986a6.63,6.63,0,0,0,1.549,4.324A9.443,9.443,0,0,1,607.811,651.074Z" transform="translate(-475.667 -507.285)" fill="#1a2e35"/>
    <path id="Path_14495" data-name="Path 14495" d="M472,842.891a1.817,1.817,0,0,1,.181-.2l.563-.583.422-.4c.161-.141.342-.3.523-.463.382-.322.8-.7,1.307-1.066l.784-.583c.282-.2.583-.382.885-.583.6-.422,1.307-.784,2.031-1.207a27.6,27.6,0,0,1,10.278-3.117c.825-.06,1.609-.141,2.353-.121.362,0,.724-.02,1.066,0l.986.06c.624.02,1.187.121,1.689.161.241.04.483.06.684.1l.563.121.784.161a1,1,0,0,1,.261.08,1.326,1.326,0,0,1-.282-.02l-.8-.121-.563-.1c-.2-.02-.442-.04-.684-.06-.5-.04-1.046-.121-1.669-.141l-.986-.04c-.342-.02-.7.02-1.066.02-.744,0-1.508.08-2.333.141a28.448,28.448,0,0,0-10.2,3.1c-.724.4-1.408.764-2.031,1.167-.3.2-.6.382-.885.583l-.784.563c-.523.362-.925.724-1.327,1.046a6.611,6.611,0,0,0-.523.443l-.422.4-.6.543C472.141,842.791,472.08,842.851,472,842.891Z" transform="translate(-369.08 -658.716)" fill="#1a2e35"/>
    <path id="Path_14496" data-name="Path 14496" d="M648.974,487.827a.709.709,0,0,1-.06-.282,5.359,5.359,0,0,1-.1-.825,13.948,13.948,0,0,1,.08-3.037,24.447,24.447,0,0,1,3.62-9.332c1.006-1.689,2.011-3.258,2.755-4.767a43.993,43.993,0,0,0,1.79-4.123c.463-1.207.825-2.172,1.106-2.836.141-.322.241-.583.322-.764.04-.08.081-.181.121-.261a1.479,1.479,0,0,1-.08.282l-.282.784c-.261.7-.6,1.669-1.026,2.856a37.912,37.912,0,0,1-1.75,4.163c-.764,1.529-1.75,3.117-2.755,4.787a25.633,25.633,0,0,0-3.66,9.232,13.812,13.812,0,0,0-.161,3.017A10.865,10.865,0,0,1,648.974,487.827Z" transform="translate(-510.293 -360.772)" fill="#1a2e35"/>
    <path id="Path_14497" data-name="Path 14497" d="M858.4,435.8a.684.684,0,0,1,.2.02,5.755,5.755,0,0,1,.563.141,7.3,7.3,0,0,1,1.911.925,14.08,14.08,0,0,1,4.465,5.31,22.356,22.356,0,0,1,2.072,6.637c.141.885.2,1.609.241,2.092a5,5,0,0,1,.04.764,4.669,4.669,0,0,1-.121-.764c-.06-.5-.161-1.207-.322-2.072a22.621,22.621,0,0,0-2.112-6.557,14.628,14.628,0,0,0-4.344-5.27A10.36,10.36,0,0,0,858.4,435.8Z" transform="translate(-677.76 -340.161)" fill="#1a2e35"/>
    <path id="Path_14498" data-name="Path 14498" d="M849.514,476.768a1.239,1.239,0,0,1-.02-.282c0-.181,0-.443.02-.784.04-.684.1-1.669.221-2.876s.282-2.655.483-4.264c.1-.8.221-1.649.342-2.514a13.281,13.281,0,0,0,.161-2.675,11.128,11.128,0,0,0-4.264-8.085,7.277,7.277,0,0,0-2.534-1.247c-.664-.161-1.046-.181-1.026-.2a.665.665,0,0,1,.282,0,5.293,5.293,0,0,1,.784.121,7.141,7.141,0,0,1,2.635,1.207,11.018,11.018,0,0,1,4.4,8.206,13.887,13.887,0,0,1-.161,2.735l-.362,2.494c-.221,1.589-.4,3.037-.543,4.244s-.241,2.192-.3,2.876q-.03.483-.06.784A1,1,0,0,1,849.514,476.768Z" transform="translate(-665.379 -354.561)" fill="#1a2e35"/>
    <path id="Path_14499" data-name="Path 14499" d="M668.723,497.383a.445.445,0,0,1-.06-.1,3.063,3.063,0,0,0-.181-.282l-.644-1.086c-.563-.945-1.368-2.333-2.232-4.1a30.158,30.158,0,0,1-2.393-6.517,17.051,17.051,0,0,1,.121-8.467,12.565,12.565,0,0,1,.825-2.092,14.879,14.879,0,0,1,1.126-1.87c.8-1.167,1.71-2.233,2.494-3.258a20.936,20.936,0,0,0,2.072-3.057,9.92,9.92,0,0,0,1.086-3,21.284,21.284,0,0,0,.161-2.655,6.583,6.583,0,0,1,.483-1.971,3.363,3.363,0,0,1,.664-1.086.723.723,0,0,1,.362-.241,2.317,2.317,0,0,0-.342.282,3.843,3.843,0,0,0-.6,1.086,7.088,7.088,0,0,0-.442,1.931,26.581,26.581,0,0,1-.121,2.675,10.275,10.275,0,0,1-1.086,3.057,23.079,23.079,0,0,1-2.072,3.1c-.8,1.026-1.689,2.092-2.474,3.258a13.536,13.536,0,0,0-1.911,3.9,17.053,17.053,0,0,0-.141,8.347,29.816,29.816,0,0,0,2.333,6.5c.845,1.77,1.629,3.178,2.172,4.143.261.463.463.845.6,1.106.06.121.121.221.161.3A.341.341,0,0,0,668.723,497.383Z" transform="translate(-521.454 -357.576)" fill="#1a2e35"/>
    <g id="Group_614" data-name="Group 614" transform="translate(126.688 142.059)" opacity="0.3">
      <path id="Path_14500" data-name="Path 14500" d="M606.833,666.6a24.581,24.581,0,0,0-11.323,8.608,29.46,29.46,0,0,0-5.29,13.274c-.121.8-.04,1.87.744,2.092a1.2,1.2,0,0,0,1.287-.623,3.72,3.72,0,0,0,.4-1.468,31.114,31.114,0,0,1,14.36-21.7Z" transform="translate(-590.175 -666.6)"/>
    </g>
    <path id="Path_14501" data-name="Path 14501" d="M871.3,454.765a5.758,5.758,0,0,0-1.911.624,5.979,5.979,0,0,0-1.408,1.408,1.193,1.193,0,0,1,.221-.583,3.323,3.323,0,0,1,2.474-1.529C871.079,454.664,871.3,454.724,871.3,454.765Z" transform="translate(-685.415 -355.244)" fill="#fafafa"/>
    <path id="Path_14502" data-name="Path 14502" d="M881.282,554.4a12.767,12.767,0,0,0-1.971-1.187,22.476,22.476,0,0,0-2.212-.623,3.843,3.843,0,0,1,2.313.4A4.115,4.115,0,0,1,881.282,554.4Z" transform="translate(-692.702 -433.422)" fill="#fafafa"/>
    <path id="Path_14503" data-name="Path 14503" d="M919.443,532.85c-.02,0-.1-.2-.3-.563a4.175,4.175,0,0,0-1.146-1.227,6.339,6.339,0,0,0-2.293-1.006,22.969,22.969,0,0,0-3.1-.443c-2.212-.221-4.224-.443-5.672-.623l-1.71-.221a5.744,5.744,0,0,1-.623-.1,3.446,3.446,0,0,1,.644.02l1.73.141c1.448.121,3.459.322,5.672.543a20.448,20.448,0,0,1,3.117.463,5.951,5.951,0,0,1,2.333,1.106,3.971,3.971,0,0,1,1.126,1.327,1.706,1.706,0,0,1,.181.443C919.423,532.79,919.443,532.83,919.443,532.85Z" transform="translate(-714.672 -414.343)" fill="#fafafa"/>
    <path id="Path_14504" data-name="Path 14504" d="M907.338,624.234c-.02,0-.141-.322-.382-.905A12.7,12.7,0,0,0,905.629,621a13.352,13.352,0,0,0-2.776-2.856,15.667,15.667,0,0,0-4.244-2.353,21.409,21.409,0,0,0-8.749-1.086c-1.146.08-2.052.2-2.675.3l-.724.121a1.061,1.061,0,0,1-.261.02,1.137,1.137,0,0,1,.241-.08c.161-.04.4-.1.724-.161a24.136,24.136,0,0,1,2.7-.382,20.732,20.732,0,0,1,8.85,1.026,15.377,15.377,0,0,1,4.3,2.414,14.236,14.236,0,0,1,2.776,2.936,11.927,11.927,0,0,1,1.287,2.393,4.141,4.141,0,0,1,.241.7C907.318,624.073,907.338,624.154,907.338,624.234Z" transform="translate(-699.973 -482.859)" fill="#fafafa"/>
    <path id="Path_14505" data-name="Path 14505" d="M965,749.751a.981.981,0,0,1-.02-.241c0-.181-.02-.4-.02-.684s-.02-.664-.04-1.086-.04-.905-.1-1.448c-.161-2.132-.543-5.068-1.066-8.307s-1.106-6.134-1.488-8.246c-.2-1.046-.342-1.911-.443-2.514-.04-.282-.08-.5-.1-.684a.981.981,0,0,1-.02-.241.536.536,0,0,1,.06.241l.161.664c.121.623.3,1.468.523,2.494.422,2.112,1.006,5.008,1.569,8.246a77.466,77.466,0,0,1,1.006,8.347q.06.815.06,1.448c0,.422.02.8,0,1.086s-.02.5-.02.7A1.229,1.229,0,0,0,965,749.751Z" transform="translate(-760.288 -572.234)" fill="#fafafa"/>
    <g id="Group_615" data-name="Group 615" transform="translate(184.779 135.886)" opacity="0.3">
      <path id="Path_14506" data-name="Path 14506" d="M896.88,660.546a28.638,28.638,0,0,0,.6,3.681c.2,1.227.925,2.595,2.152,2.735a2.416,2.416,0,0,0,2.373-1.71,5.855,5.855,0,0,0,.02-3.117c-.865-4.465-2.977-8.588-5.169-12.57-1.911-3.5-3.962-7.039-6.919-9.714s-7-4.465-10.941-3.8c0,0,5.873.181,9.594,3.821S896.8,658.474,896.88,660.546Z" transform="translate(-879 -635.91)"/>
    </g>
    <g id="Group_616" data-name="Group 616" transform="translate(184.779 106.379)" opacity="0.3">
      <path id="Path_14507" data-name="Path 14507" d="M879.5,518.062c3.178-9.393,6.034-20.455,3.982-28.862,3.58,4.1,4.365,10.519,3.017,15.607s-4.646,9.634-7.5,14.039" transform="translate(-879 -489.2)"/>
    </g>
    <g id="Group_617" data-name="Group 617" transform="translate(202.076 163.838)" opacity="0.3">
      <path id="Path_14508" data-name="Path 14508" d="M985.434,790.5a6.266,6.266,0,0,0-2.494-1.207,18.151,18.151,0,0,1-2.916-.905,3.662,3.662,0,0,1-2.051-2.152,5.976,5.976,0,0,1,.121-2.595,16.146,16.146,0,0,0-.845-8.286.755.755,0,0,0-.282-.422.513.513,0,0,0-.644.2,1.767,1.767,0,0,0-.2.7,18.1,18.1,0,0,1-3.319,8.608c-1.911,2.454-4.525,4.485-7.643,4.445l-.161.5a10.629,10.629,0,0,0,5.129,1.368c1.77.08,3.58-.121,5.37-.121a26.98,26.98,0,0,1,10.941,2.313A2.774,2.774,0,0,0,985.434,790.5Z" transform="translate(-965 -774.887)"/>
    </g>
    <path id="Path_14509" data-name="Path 14509" d="M543.538,849.6c-.04,0-.121-.7-.442-1.81a12.316,12.316,0,0,0-.7-1.87,14.993,14.993,0,0,0-1.227-2.132,15.619,15.619,0,0,0-1.589-1.87,13.287,13.287,0,0,0-1.529-1.287c-.925-.664-1.569-.985-1.549-1.026a1.9,1.9,0,0,1,.463.2,4.322,4.322,0,0,1,.523.282c.221.121.443.261.664.4a13.718,13.718,0,0,1,1.589,1.267,12.816,12.816,0,0,1,2.856,4.063,10.948,10.948,0,0,1,.664,1.931,7.529,7.529,0,0,1,.161.764,5.8,5.8,0,0,1,.08.583A2.208,2.208,0,0,1,543.538,849.6Z" transform="translate(-420.605 -662.746)" fill="#fafafa"/>
    <path id="Path_14510" data-name="Path 14510" d="M607.649,788.2a3.2,3.2,0,0,1-.965.161,6.578,6.578,0,0,1-4.425-1.549,2.611,2.611,0,0,1-.664-.724,9.745,9.745,0,0,0,2.816,1.669A11.3,11.3,0,0,0,607.649,788.2Z" transform="translate(-472.609 -619.997)" fill="#fafafa"/>
    <path id="Path_14511" data-name="Path 14511" d="M584.25,729.416c-.04.02-.261-.362-.744-.885a6.058,6.058,0,0,0-.945-.8,6.176,6.176,0,0,0-2.816-1.006,5.009,5.009,0,0,0-1.227.02c-.7.08-1.106.261-1.126.221s.1-.06.282-.141a3.885,3.885,0,0,1,.825-.241,4.473,4.473,0,0,1,1.267-.06,5.6,5.6,0,0,1,1.529.322,6.081,6.081,0,0,1,1.388.724,5.487,5.487,0,0,1,.945.865,3.986,3.986,0,0,1,.483.7C584.23,729.316,584.27,729.416,584.25,729.416Z" transform="translate(-453.272 -572.393)" fill="#fafafa"/>
    <path id="Path_14512" data-name="Path 14512" d="M546.442,774.557a10.5,10.5,0,0,0-2.514.06,12.213,12.213,0,0,0-2.333.905c-.02-.02.181-.241.583-.483a5.21,5.21,0,0,1,3.54-.7C546.18,774.417,546.442,774.517,546.442,774.557Z" transform="translate(-424.676 -610.555)" fill="#fafafa"/>
    <path id="Path_14513" data-name="Path 14513" d="M592.581,672.865a2.341,2.341,0,0,1-.845,0,5.832,5.832,0,0,1-3.56-1.87,2.355,2.355,0,0,1-.483-.7,10.523,10.523,0,0,0,2.192,1.73A11.241,11.241,0,0,0,592.581,672.865Z" transform="translate(-461.503 -527.487)" fill="#fafafa"/>
    <path id="Path_14514" data-name="Path 14514" d="M649.869,668.812c-.06.04-.362-.483-.945-.925s-1.146-.6-1.126-.664a1.841,1.841,0,0,1,1.287.483A1.8,1.8,0,0,1,649.869,668.812Z" transform="translate(-509.52 -525.023)" fill="#fafafa"/>
    <path id="Path_14515" data-name="Path 14515" d="M637.151,597.466a.414.414,0,0,1-.221,0,5.276,5.276,0,0,1-.623-.081,12.15,12.15,0,0,1-2.232-.583,13.075,13.075,0,0,1-8.709-11.545,11.125,11.125,0,0,1,.06-2.313c.02-.261.08-.483.1-.623a.459.459,0,0,1,.06-.221,5.957,5.957,0,0,1-.06.845,14.547,14.547,0,0,0,.02,2.293,13.348,13.348,0,0,0,8.608,11.4,14.35,14.35,0,0,0,2.192.644A6.5,6.5,0,0,1,637.151,597.466Z" transform="translate(-491.572 -457.036)" fill="#fafafa"/>
    <path id="Path_14516" data-name="Path 14516" d="M659.919,544.515c-.02.02-.181-.04-.362-.241a2.165,2.165,0,0,1-.563-1.971c.06-.261.161-.4.2-.4a4.607,4.607,0,0,0,.08,1.388A5.634,5.634,0,0,0,659.919,544.515Z" transform="translate(-518.423 -424.921)" fill="#fafafa"/>
    <path id="Path_14517" data-name="Path 14517" d="M689.444,487.291a.78.78,0,0,1-.543.141,2.2,2.2,0,0,1-2.092-1.569.97.97,0,0,1-.02-.563c.02,0,.06.2.181.523a2.43,2.43,0,0,0,.764.986,2.275,2.275,0,0,0,1.167.463C689.222,487.291,689.423,487.251,689.444,487.291Z" transform="translate(-540.646 -379.705)" fill="#fafafa"/>
    <path id="Path_14518" data-name="Path 14518" d="M456.053,897.543a1.757,1.757,0,0,1-.684-.3,3.825,3.825,0,0,1-1.669-3.1,1.634,1.634,0,0,1,.121-.744c.02,0,0,.282.06.724a4.427,4.427,0,0,0,1.589,2.977C455.812,897.382,456.053,897.5,456.053,897.543Z" transform="translate(-354.46 -705.725)" fill="#fafafa"/>
    <path id="Path_14519" data-name="Path 14519" d="M435.268,970.077a2.774,2.774,0,0,1-1.629-.3,3.2,3.2,0,0,1-1.348-.986c.04-.04.623.4,1.448.764S435.268,970.017,435.268,970.077Z" transform="translate(-337.356 -765.95)" fill="#fafafa"/>
    <path id="Path_14520" data-name="Path 14520" d="M702.2,362.075c0-.02.282.04.8.06a7.164,7.164,0,0,0,2.172-.282,9.946,9.946,0,0,0,2.916-1.468,25.247,25.247,0,0,0,3.017-2.655,25.85,25.85,0,0,1,3.037-2.675,10.275,10.275,0,0,1,2.957-1.508,6.379,6.379,0,0,1,2.212-.282c.2.02.4.04.6.08a.388.388,0,0,1,.2.06,7.289,7.289,0,0,0-2.977.322,10.406,10.406,0,0,0-2.876,1.529,27.349,27.349,0,0,0-3,2.675,25.717,25.717,0,0,1-3.057,2.655,10.221,10.221,0,0,1-2.977,1.448,6.334,6.334,0,0,1-2.212.221c-.2-.02-.4-.06-.6-.1A.722.722,0,0,1,702.2,362.075Z" transform="translate(-552.98 -274.219)" fill="#1a2e35"/>
    <path id="Path_14521" data-name="Path 14521" d="M821.115,729.958c-3.721-4.485-6.034-10.177-10.1-17.558,0,0-7.683,33.367,2.112,34.151,4.545.362,7.2-2.514,5.752-10.539C817.917,730.662,821.115,729.958,821.115,729.958Z" transform="translate(-637.623 -561.129)" fill="#174b71"/>
    <path id="Path_14522" data-name="Path 14522" d="M836.68,751.7a.978.978,0,0,1-.02.241c-.02.181-.06.422-.1.7-.1.644-.221,1.549-.362,2.615-.3,2.212-.664,5.29-.925,8.689a35.087,35.087,0,0,0,.06,8.689,11.006,11.006,0,0,0,.764,2.514c.261.563.443.865.422.865a.723.723,0,0,1-.141-.2,3.871,3.871,0,0,1-.362-.624,9.5,9.5,0,0,1-.845-2.514,35.056,35.056,0,0,1-.141-8.749c.221-3.419.644-6.476.985-8.689.161-1.106.322-1.991.443-2.615.06-.282.1-.523.141-.7A1.523,1.523,0,0,1,836.68,751.7Z" transform="translate(-658.941 -592.525)" fill="#1a2e35"/>
    <path id="Path_14523" data-name="Path 14523" d="M817.827,858.261a5,5,0,0,1-2.414.744,5.384,5.384,0,0,1-2.514-.3,13.074,13.074,0,0,0,2.494.06C816.761,858.623,817.786,858.181,817.827,858.261Z" transform="translate(-641.415 -677.646)" fill="#fafafa"/>
    <path id="Path_14524" data-name="Path 14524" d="M841.989,802.053c-.02.06-1.106-.382-2.514-.664s-2.574-.3-2.574-.382a6.292,6.292,0,0,1,2.615.141A6.957,6.957,0,0,1,841.989,802.053Z" transform="translate(-660.589 -631.856)" fill="#fafafa"/>
    <path id="Path_14525" data-name="Path 14525" d="M823.066,742.232a17.724,17.724,0,0,0-2.192-1.428,18.62,18.62,0,0,0-2.474-.825,4.94,4.94,0,0,1,2.574.6A5.019,5.019,0,0,1,823.066,742.232Z" transform="translate(-645.81 -583.137)" fill="#fafafa"/>
    <g id="Group_618" data-name="Group 618" transform="translate(176.227 159.456)" opacity="0.3">
      <path id="Path_14526" data-name="Path 14526" d="M837.954,753.1s-3.862,24.055.925,24.658c0,0,1.448.483,2.253-2.253s-.221-5.913-.483-7.723a5.7,5.7,0,0,1,1.227-4.284,2.991,2.991,0,0,1,1.891-1.146C843.666,762.493,837.994,753.2,837.954,753.1Z" transform="translate(-836.482 -753.1)"/>
    </g>
    <path id="Path_14527" data-name="Path 14527" d="M719.847,442.1c.02.322-.8.624-1.83.543s-1.79-.5-1.73-.825.865-.442,1.83-.382S719.827,441.762,719.847,442.1Z" transform="translate(-564.231 -344.655)" fill="#ff9a6c"/>
    <path id="Path_14528" data-name="Path 14528" d="M781.874,433.991c.161.3-1.167,1.247-3.037,1.85s-3.5.583-3.54.241,1.408-.825,3.178-1.408S781.733,433.69,781.874,433.991Z" transform="translate(-611.375 -338.634)" fill="#ff9a6c"/>
    <path id="Path_14529" data-name="Path 14529" d="M307.5,996.725c-6.45.141-12.918.261-19.369.342h-.437c-.926.02-1.853.04-2.779.04h-.122q-5.926.09-11.852.141-7.735.09-15.471.141l-1.836.02-4.423.04-6.258.04-12.5.06h-9.667l-5.926.02-9.387.02-20.051-.04h-4.947c-1.608,0-3.217-.02-4.825-.02-2.9-.02-5.8-.02-8.706-.04H166.97l-9.475-.06-12.883-.121c-2.57-.02-5.139-.06-7.709-.08s-5.139-.06-7.709-.1q-10.856-.151-21.694-.382,10.856-.241,21.694-.382c2.57-.04,5.139-.06,7.709-.1,2.482-.02,4.965-.06,7.447-.08h.262l12.883-.121,8.793-.06h2.08c3.3-.02,6.608-.02,9.894-.04,1.4,0,2.814-.02,4.23-.02h2.465l10.716-.02h0l11.817-.02,9.387.02,9.685.02h5.926l12.5.06,6.258.04,4.335.04,1.923.02q8.5.06,16.992.161l10.261.121h.122c.892,0,1.766.02,2.657.04h.612c5.821.08,11.66.181,17.481.3C306.241,996.7,306.871,996.7,307.5,996.725Z" transform="translate(-61.141 -787.61)" fill="#fff"/>
  </g>
</svg>
