<svg xmlns="http://www.w3.org/2000/svg" width="202" height="200" viewBox="0 0 202 200">
  <g id="simple-to-use-illustration" transform="translate(-80.7 -35.5)">
    <circle id="Ellipse_3" cx="6.941" cy="6.941" r="6.941" transform="translate(103.016 204.088)" fill="#cae1e5"/>
    <path id="Path_13940" data-name="Path 13940" d="M605.07,636.266a58.724,58.724,0,0,1-7.4,28.594c-.021.041-.041.062-.062.1H494.859c-.041-.062-.083-.145-.124-.207a58.929,58.929,0,0,1,.787-58.327,61.494,61.494,0,0,1,4.372-6.423c.021-.021.041-.062.062-.083s.041-.062.062-.083l.746-.932a60.068,60.068,0,0,1,5.076-5.449l.186-.187c.228-.228.477-.435.7-.663h0l.041-.042a57.86,57.86,0,0,1,9.075-6.734c1.036-.622,2.093-1.222,3.17-1.782a.073.073,0,0,1,.042-.021,58.213,58.213,0,0,1,21.777-6.382.262.262,0,0,0,.124-.021h.062c1.7-.145,3.44-.228,5.18-.228.456,0,.912,0,1.367.021h.373c1.181.041,2.362.1,3.522.207l.6.062c.477.041.932.1,1.409.166h0a58.473,58.473,0,0,1,15.789,4.248,57.338,57.338,0,0,1,8.64,4.579c.145.1.311.207.456.29h0c.373.249.725.477,1.1.746a2.962,2.962,0,0,1,.311.228c1.409.974,2.776,2.01,4.082,3.108.394.332.787.663,1.181,1.015A58.615,58.615,0,0,1,605.07,636.266Z" transform="translate(-322.37 -429.67)" fill="#cae1e5"/>
    <path id="Path_13941" data-name="Path 13941" d="M82.4,36.2h.787a.35.35,0,0,1,.207.062.24.24,0,0,1,.1.145l.559,2.113c.021.062.041.145.062.207a1.04,1.04,0,0,1,.041.249l.062-.249c.021-.083.041-.145.062-.207l.663-2.113a.372.372,0,0,1,.1-.145.35.35,0,0,1,.207-.062h.269a.35.35,0,0,1,.207.062.24.24,0,0,1,.1.145l.622,2.113.062.207c.021.083.041.145.062.228.021-.083.021-.166.041-.228a.736.736,0,0,0,.041-.207l.559-2.113a.372.372,0,0,1,.1-.145.35.35,0,0,1,.207-.062h.746l-1.243,4.04h-.85l-.767-2.507-.041-.124c-.021-.041-.021-.1-.041-.145-.021.041-.021.1-.041.145s-.021.083-.041.124l-.767,2.507h-.85Z" transform="translate(-1.348 -0.555)" fill="#f6fcff"/>
    <path id="Path_13942" data-name="Path 13942" d="M112.5,39.844V35.7h.85v1.513a1.79,1.79,0,0,1,.332-.207,1.082,1.082,0,0,1,.435-.083.928.928,0,0,1,.414.083.677.677,0,0,1,.311.228,1.152,1.152,0,0,1,.186.352,1.577,1.577,0,0,1,.062.435v1.823h-.87V38.021a.487.487,0,0,0-.1-.332.348.348,0,0,0-.29-.124.638.638,0,0,0-.269.062,1.728,1.728,0,0,0-.249.166v2.051H112.5Z" transform="translate(-25.211 -0.159)" fill="#f6fcff"/>
    <path id="Path_13943" data-name="Path 13943" d="M129.513,44.6a.308.308,0,0,1-.186-.041.372.372,0,0,1-.1-.145l-.062-.166a1.813,1.813,0,0,0-.207.166,1.821,1.821,0,0,1-.207.124.418.418,0,0,1-.228.062,1.181,1.181,0,0,1-.269.021,1.825,1.825,0,0,1-.352-.041,1.116,1.116,0,0,1-.269-.145.413.413,0,0,1-.166-.249.968.968,0,0,1-.062-.352.585.585,0,0,1,.083-.311.611.611,0,0,1,.269-.29,1.649,1.649,0,0,1,.518-.228,2.819,2.819,0,0,1,.829-.083V42.8a.494.494,0,0,0-.1-.373.322.322,0,0,0-.29-.1.526.526,0,0,0-.249.041.417.417,0,0,0-.166.083l-.145.083a.488.488,0,0,1-.166.041.3.3,0,0,1-.145-.041.25.25,0,0,1-.1-.1l-.166-.269a2.071,2.071,0,0,1,.58-.352,1.96,1.96,0,0,1,.684-.1,1.048,1.048,0,0,1,1.057.663,1.115,1.115,0,0,1,.083.456v1.8Zm-.995-.518a.662.662,0,0,0,.29-.062.566.566,0,0,0,.249-.186V43.44a1.551,1.551,0,0,0-.435.041,1.34,1.34,0,0,0-.269.083.212.212,0,0,0-.124.1.3.3,0,0,0-.041.145.24.24,0,0,0,.083.207.552.552,0,0,0,.249.062Z" transform="translate(-37.024 -4.915)" fill="#f6fcff"/>
    <path id="Path_13944" data-name="Path 13944" d="M142.464,41.471a.968.968,0,0,1-.352-.062,1.175,1.175,0,0,1-.269-.166.731.731,0,0,1-.166-.269.968.968,0,0,1-.062-.352V39.13h-.249a.16.16,0,0,1-.166-.145v-.352l.456-.083.166-.7a.2.2,0,0,1,.186-.145h.456v.829h.7v.58h-.7v1.43a.39.39,0,0,0,.041.166.188.188,0,0,0,.145.062h.083c.021,0,.041-.021.062-.021l.041-.021h.041a.076.076,0,0,1,.062.021c.021.021.041.041.041.062l.269.414a1.26,1.26,0,0,1-.373.186A1.336,1.336,0,0,1,142.464,41.471Z" transform="translate(-47.964 -1.744)" fill="#f6fcff"/>
    <path id="Path_13945" data-name="Path 13945" d="M159.136,36.018a.6.6,0,0,1-.041.186.611.611,0,0,1-.29.269.736.736,0,0,1-.207.041.5.5,0,0,1-.186-.041.435.435,0,0,1-.269-.269.605.605,0,0,1-.041-.186.737.737,0,0,1,.041-.207.435.435,0,0,1,.269-.269.605.605,0,0,1,.186-.041.736.736,0,0,1,.207.041.451.451,0,0,1,.166.1,1.148,1.148,0,0,1,.124.166A.736.736,0,0,1,159.136,36.018Zm-.1.787v2.88h-.85v-2.88Z" transform="translate(-61.363)" fill="#f6fcff"/>
    <path id="Path_13946" data-name="Path 13946" d="M166.631,42.025c-.021.021-.041.062-.062.083a.155.155,0,0,1-.1.021.263.263,0,0,1-.124-.021l-.124-.062a1.428,1.428,0,0,0-.166-.062.7.7,0,0,0-.207-.021.552.552,0,0,0-.249.062.188.188,0,0,0-.083.166.224.224,0,0,0,.062.145.52.52,0,0,0,.145.083c.062.021.145.062.207.083l.249.083a1.267,1.267,0,0,1,.249.1.728.728,0,0,1,.352.352.731.731,0,0,1,.062.29.841.841,0,0,1-.083.394.677.677,0,0,1-.228.311,1.32,1.32,0,0,1-.373.207,1.481,1.481,0,0,1-.518.062,1.274,1.274,0,0,1-.29-.021,1.526,1.526,0,0,1-.29-.083,1.267,1.267,0,0,1-.249-.1.744.744,0,0,1-.207-.145l.207-.311a.162.162,0,0,1,.083-.083.207.207,0,0,1,.249,0l.124.062c.062.021.1.062.166.062a.881.881,0,0,0,.228.041.4.4,0,0,0,.166-.021c.041-.021.083-.021.1-.062a.286.286,0,0,0,.062-.083.124.124,0,0,0,.021-.083.188.188,0,0,0-.062-.145c-.041-.041-.1-.062-.145-.1-.062-.021-.145-.062-.207-.083a1.168,1.168,0,0,1-.249-.083,1.268,1.268,0,0,1-.249-.1.811.811,0,0,1-.207-.166.536.536,0,0,1-.145-.228.872.872,0,0,1,.021-.684.934.934,0,0,1,.207-.29,1.213,1.213,0,0,1,.352-.207,1.393,1.393,0,0,1,.5-.083,1.274,1.274,0,0,1,.29.021,1.026,1.026,0,0,1,.269.083.8.8,0,0,1,.228.124,1.139,1.139,0,0,1,.186.145Z" transform="translate(-66.516 -4.598)" fill="#f6fcff"/>
    <path id="Path_13947" data-name="Path 13947" d="M182.8,39.844V35.7h.87v1.575a1.176,1.176,0,0,1,.373-.249,1.213,1.213,0,0,1,.456-.1.943.943,0,0,1,.414.1.887.887,0,0,1,.332.29,1.877,1.877,0,0,1,.228.456,2.139,2.139,0,0,1,.083.622,1.916,1.916,0,0,1-.083.6,2.088,2.088,0,0,1-.249.477.977.977,0,0,1-.394.311.834.834,0,0,1-.5.1.85.85,0,0,1-.228-.021l-.186-.062a.727.727,0,0,1-.166-.1.957.957,0,0,1-.145-.145l-.021.145c0,.041-.041.083-.062.124a.3.3,0,0,1-.124.041Zm1.409-2.279a.4.4,0,0,0-.166.021c-.041.021-.1.021-.145.041a.434.434,0,0,0-.124.083.549.549,0,0,0-.1.124v1.222a.474.474,0,0,0,.207.145,1.069,1.069,0,0,0,.228.041.881.881,0,0,0,.228-.041.559.559,0,0,0,.166-.145.642.642,0,0,0,.124-.269,2.808,2.808,0,0,0,.041-.414,1.148,1.148,0,0,0-.041-.373,1.168,1.168,0,0,0-.083-.249.484.484,0,0,0-.145-.145.308.308,0,0,0-.186-.041Z" transform="translate(-80.945 -0.159)" fill="#f6fcff"/>
    <path id="Path_13948" data-name="Path 13948" d="M198.871,41.6a1.925,1.925,0,0,1,.6.1,1.331,1.331,0,0,1,.767.767,1.634,1.634,0,0,1,.1.622,2.17,2.17,0,0,1-.1.622,1.276,1.276,0,0,1-.767.767,1.714,1.714,0,0,1-1.2,0,1.276,1.276,0,0,1-.767-.767,1.634,1.634,0,0,1-.1-.622,2.17,2.17,0,0,1,.1-.622,1.331,1.331,0,0,1,.767-.767A1.925,1.925,0,0,1,198.871,41.6Zm0,2.321a.472.472,0,0,0,.435-.207,1.332,1.332,0,0,0,.145-.642,1.172,1.172,0,0,0-.145-.642.472.472,0,0,0-.435-.207.453.453,0,0,0-.435.207,1.133,1.133,0,0,0-.145.642,1.172,1.172,0,0,0,.145.642A.472.472,0,0,0,198.871,43.921Z" transform="translate(-92.52 -4.836)" fill="#f6fcff"/>
    <path id="Path_13949" data-name="Path 13949" d="M213.785,41.471a.756.756,0,0,1-.808-.5.968.968,0,0,1-.062-.352V39.13h-.249a.3.3,0,0,1-.124-.041.152.152,0,0,1-.041-.124v-.332l.456-.083.166-.7a.2.2,0,0,1,.186-.145h.456v.829h.7v.58h-.7v1.43a.391.391,0,0,0,.041.166.188.188,0,0,0,.145.062h.083c.021,0,.041-.021.062-.021l.041-.021h.041a.076.076,0,0,1,.062.021c.021.021.041.041.041.062l.249.414a1.26,1.26,0,0,1-.373.186A.932.932,0,0,1,213.785,41.471Z" transform="translate(-104.491 -1.744)" fill="#f6fcff"/>
    <path id="Path_13950" data-name="Path 13950" d="M224.5,39.844V35.7h.85v1.513a1.79,1.79,0,0,1,.332-.207,1.082,1.082,0,0,1,.435-.083.928.928,0,0,1,.414.083.865.865,0,0,1,.311.228,1.153,1.153,0,0,1,.186.352,1.578,1.578,0,0,1,.062.435v1.823h-.829V38.021a.488.488,0,0,0-.1-.332.376.376,0,0,0-.29-.124.638.638,0,0,0-.269.062.92.92,0,0,0-.228.166v2.051h-.87Z" transform="translate(-114.004 -0.159)" fill="#f6fcff"/>
    <path id="Path_13951" data-name="Path 13951" d="M240.45,41.6a1.431,1.431,0,0,1,.518.083,1.055,1.055,0,0,1,.663.663,1.649,1.649,0,0,1,.083.7c0,.041-.021.062-.021.1-.021.021-.041.041-.062.041a.155.155,0,0,1-.1.021H239.87a.818.818,0,0,0,.207.518.724.724,0,0,0,.456.166,1.04,1.04,0,0,0,.249-.041.736.736,0,0,0,.186-.083l.166-.083a.384.384,0,0,1,.145-.041.188.188,0,0,1,.166.083l.249.311a1.09,1.09,0,0,1-.29.249,2.091,2.091,0,0,1-.311.145,1.552,1.552,0,0,1-.332.083,1.568,1.568,0,0,1-.311.021,1.675,1.675,0,0,1-.559-.1,1.317,1.317,0,0,1-.456-.29,1.35,1.35,0,0,1-.311-.477,1.8,1.8,0,0,1-.124-.663,1.556,1.556,0,0,1,.1-.539,1.384,1.384,0,0,1,.725-.767A2.17,2.17,0,0,1,240.45,41.6Zm.021.6a.547.547,0,0,0-.394.145.7.7,0,0,0-.186.394h1.077a.7.7,0,0,0-.021-.207.416.416,0,0,0-.083-.166.322.322,0,0,0-.166-.124.3.3,0,0,0-.228-.041Z" transform="translate(-125.5 -4.836)" fill="#f6fcff"/>
    <path id="Path_13952" data-name="Path 13952" d="M254.6,44.442v-2.88h.6c.021,0,.041.021.083.041.021.021.041.041.041.062a.155.155,0,0,1,.021.1l.041.269a2.088,2.088,0,0,1,.352-.394.781.781,0,0,1,.435-.145.436.436,0,0,1,.311.1l-.1.622a.108.108,0,0,1-.041.083.125.125,0,0,1-.083.021.155.155,0,0,1-.1-.021c-.062,0-.1-.021-.166-.021a.617.617,0,0,0-.539.352V44.4Z" transform="translate(-137.868 -4.757)" fill="#f6fcff"/>
    <path id="Path_13953" data-name="Path 13953" d="M266.436,36.018a.606.606,0,0,1-.041.186.727.727,0,0,1-.1.166.451.451,0,0,1-.166.1.539.539,0,0,1-.414,0,.435.435,0,0,1-.269-.269.6.6,0,0,1-.041-.186.735.735,0,0,1,.041-.207.727.727,0,0,1,.1-.166.485.485,0,0,1,.352-.145.6.6,0,0,1,.373.145.452.452,0,0,1,.1.166A.35.35,0,0,1,266.436,36.018Zm-.1.787v2.88h-.85v-2.88Z" transform="translate(-146.43)" fill="#f6fcff"/>
    <path id="Path_13954" data-name="Path 13954" d="M273.2,44.6v-2.88h.539a.222.222,0,0,1,.124.041.207.207,0,0,1,.083.1l.041.166c.062-.041.1-.1.166-.145a.839.839,0,0,1,.186-.1.418.418,0,0,1,.228-.062,1.009,1.009,0,0,1,.249-.021.928.928,0,0,1,.414.083.865.865,0,0,1,.311.228,1.153,1.153,0,0,1,.186.352,1.578,1.578,0,0,1,.062.435v1.823h-.85V42.8a.487.487,0,0,0-.1-.332.376.376,0,0,0-.29-.124.638.638,0,0,0-.269.062.92.92,0,0,0-.228.166v2.051h-.85Z" transform="translate(-152.601 -4.915)" fill="#f6fcff"/>
    <path id="Path_13955" data-name="Path 13955" d="M288.843,41.6a2.042,2.042,0,0,1,.352.041,1.823,1.823,0,0,1,.311.1h.87v.311a.158.158,0,0,1-.041.1.188.188,0,0,1-.145.062l-.207.041a1.041,1.041,0,0,1,.041.249.791.791,0,0,1-.332.684,1.052,1.052,0,0,1-.373.186,1.726,1.726,0,0,1-.456.062,1.009,1.009,0,0,1-.249-.021c-.062.021-.083.062-.1.124a.106.106,0,0,0,.083.1.736.736,0,0,0,.207.041c.083,0,.186.021.29.021a1.9,1.9,0,0,1,.332.021,1.814,1.814,0,0,1,.332.041.727.727,0,0,1,.29.124.5.5,0,0,1,.207.207.681.681,0,0,1,.083.352.775.775,0,0,1-.1.373,1.054,1.054,0,0,1-.269.332,1.347,1.347,0,0,1-.456.228,2,2,0,0,1-.6.083,2.761,2.761,0,0,1-.58-.062,1.446,1.446,0,0,1-.414-.166.527.527,0,0,1-.228-.249.675.675,0,0,1-.083-.29.508.508,0,0,1,.124-.332.747.747,0,0,1,.311-.207.421.421,0,0,1-.207-.414.263.263,0,0,1,.021-.124c.021-.041.041-.1.062-.145l.124-.124a.727.727,0,0,1,.166-.1,1.031,1.031,0,0,1-.352-.311.888.888,0,0,1-.124-.456.791.791,0,0,1,.332-.684,1.259,1.259,0,0,1,.373-.186C288.532,41.621,288.7,41.6,288.843,41.6Zm.642,3.025a.158.158,0,0,0-.041-.1c-.041-.021-.083-.062-.124-.062-.062-.021-.1-.021-.166-.041-.062,0-.145-.021-.207-.021h-.228a1.009,1.009,0,0,1-.249-.021c-.041.041-.1.083-.124.124a.223.223,0,0,0-.041.166.155.155,0,0,0,.021.1.207.207,0,0,0,.1.083l.186.062a2.715,2.715,0,0,0,.58,0,.334.334,0,0,0,.186-.062.25.25,0,0,0,.1-.1Zm-.642-1.7a.35.35,0,0,0,.394-.29v-.083a.318.318,0,0,0-.1-.269.407.407,0,0,0-.311-.1.361.361,0,0,0-.414.373.353.353,0,0,0,.021.145.381.381,0,0,0,.207.207A.777.777,0,0,0,288.843,42.926Z" transform="translate(-164.017 -4.836)" fill="#f6fcff"/>
    <path id="Path_13956" data-name="Path 13956" d="M307.813,45.505a.549.549,0,0,1-.1.124.308.308,0,0,1-.186.041h-.642l.559-1.16L306.3,41.9h.767a.487.487,0,0,1,.166.041.207.207,0,0,1,.083.1l.477,1.243a1.748,1.748,0,0,1,.1.352,1.423,1.423,0,0,1,.062-.166c.021-.041.041-.124.062-.166l.435-1.243a.207.207,0,0,1,.083-.1.3.3,0,0,1,.145-.041h.684Z" transform="translate(-178.841 -5.074)" fill="#f6fcff"/>
    <path id="Path_13957" data-name="Path 13957" d="M322.671,41.6a1.925,1.925,0,0,1,.6.1,1.245,1.245,0,0,1,.746.746,1.635,1.635,0,0,1,.1.622,2.17,2.17,0,0,1-.1.622,1.245,1.245,0,0,1-.746.746,1.794,1.794,0,0,1-1.2,0,1.317,1.317,0,0,1-.456-.29,1.581,1.581,0,0,1-.311-.477,1.634,1.634,0,0,1-.1-.622,2.17,2.17,0,0,1,.1-.622,1.122,1.122,0,0,1,.311-.456,1.317,1.317,0,0,1,.456-.29A2.8,2.8,0,0,1,322.671,41.6Zm0,2.321a.472.472,0,0,0,.435-.207,1.132,1.132,0,0,0,.145-.642,1.172,1.172,0,0,0-.145-.642.472.472,0,0,0-.435-.207.453.453,0,0,0-.435.207,1.132,1.132,0,0,0-.145.642,1.172,1.172,0,0,0,.145.642A.472.472,0,0,0,322.671,43.921Z" transform="translate(-190.653 -4.836)" fill="#f6fcff"/>
    <path id="Path_13958" data-name="Path 13958" d="M338.408,41.721v1.823a.487.487,0,0,0,.1.332.376.376,0,0,0,.29.124.638.638,0,0,0,.269-.062.92.92,0,0,0,.228-.166V41.721h.87V44.6h-.539a.206.206,0,0,1-.207-.145l-.041-.166a1.039,1.039,0,0,1-.166.145.841.841,0,0,1-.186.1.789.789,0,0,1-.207.062,1.009,1.009,0,0,1-.249.021.928.928,0,0,1-.414-.083.865.865,0,0,1-.311-.228,1.151,1.151,0,0,1-.186-.352,1.576,1.576,0,0,1-.062-.435V41.7h.808Z" transform="translate(-203.653 -4.915)" fill="#f6fcff"/>
    <path id="Path_13959" data-name="Path 13959" d="M358.364,41.471a.756.756,0,0,1-.808-.5.968.968,0,0,1-.062-.352V39.13h-.249a.158.158,0,0,1-.1-.041.152.152,0,0,1-.041-.124v-.332l.456-.083.166-.7a.2.2,0,0,1,.186-.145h.456v.829h.7v.58h-.7v1.43a.39.39,0,0,0,.041.166.188.188,0,0,0,.145.062h.083c.021,0,.041-.021.062-.021l.041-.021h.041a.076.076,0,0,1,.062.021c.021.021.041.041.041.062l.269.414a1.259,1.259,0,0,1-.373.186A1.336,1.336,0,0,1,358.364,41.471Z" transform="translate(-219.112 -1.744)" fill="#f6fcff"/>
    <path id="Path_13960" data-name="Path 13960" d="M369,39.844V35.7h.85v1.513a1.79,1.79,0,0,1,.332-.207,1.082,1.082,0,0,1,.435-.083.928.928,0,0,1,.414.083.866.866,0,0,1,.311.228,1.152,1.152,0,0,1,.186.352,1.578,1.578,0,0,1,.062.435v1.823h-.85V38.021a.487.487,0,0,0-.1-.332.376.376,0,0,0-.29-.124.638.638,0,0,0-.269.062.92.92,0,0,0-.228.166v2.051H369Z" transform="translate(-228.545 -0.159)" fill="#f6fcff"/>
    <path id="Path_13961" data-name="Path 13961" d="M384.95,41.6a1.43,1.43,0,0,1,.518.083,1.055,1.055,0,0,1,.663.663,1.649,1.649,0,0,1,.083.7c0,.041-.021.062-.021.1-.021.021-.041.041-.062.041a.155.155,0,0,1-.1.021H384.37a.818.818,0,0,0,.207.518.724.724,0,0,0,.456.166,1.04,1.04,0,0,0,.249-.041.735.735,0,0,0,.186-.083l.166-.083a.384.384,0,0,1,.145-.041.188.188,0,0,1,.166.083l.249.311a1.09,1.09,0,0,1-.29.249,2.091,2.091,0,0,1-.311.145,1.552,1.552,0,0,1-.332.083,1.568,1.568,0,0,1-.311.021,1.675,1.675,0,0,1-.559-.1,1.317,1.317,0,0,1-.456-.29,1.35,1.35,0,0,1-.311-.477,1.8,1.8,0,0,1-.124-.663,1.556,1.556,0,0,1,.1-.539,1.384,1.384,0,0,1,.725-.767A2.17,2.17,0,0,1,384.95,41.6Zm0,.6a.547.547,0,0,0-.394.145.7.7,0,0,0-.186.394h1.077a.706.706,0,0,0-.021-.207.417.417,0,0,0-.083-.166.322.322,0,0,0-.166-.124A.288.288,0,0,0,384.95,42.2Z" transform="translate(-240.04 -4.836)" fill="#f6fcff"/>
    <path id="Path_13962" data-name="Path 13962" d="M404.2,44.6v-2.88h.539a.222.222,0,0,1,.124.041.207.207,0,0,1,.083.1l.041.166.145-.145a.451.451,0,0,1,.166-.1.659.659,0,0,1,.186-.062.85.85,0,0,1,.228-.021.688.688,0,0,1,.435.145.959.959,0,0,1,.269.373.647.647,0,0,1,.186-.228.855.855,0,0,1,.228-.145,1.168,1.168,0,0,1,.249-.083,1.182,1.182,0,0,1,.269-.021,1.082,1.082,0,0,1,.435.083.82.82,0,0,1,.311.207.954.954,0,0,1,.186.352,1.724,1.724,0,0,1,.062.456v1.823h-.85V42.84c0-.29-.124-.456-.394-.456a.5.5,0,0,0-.29.1.471.471,0,0,0-.124.332v1.823h-.85V42.819a.447.447,0,0,0-.1-.352.5.5,0,0,0-.29-.1.882.882,0,0,0-.228.041.645.645,0,0,0-.186.145v2.072Z" transform="translate(-256.449 -4.915)" fill="#f6fcff"/>
    <path id="Path_13963" data-name="Path 13963" d="M427.771,41.6a1.925,1.925,0,0,1,.6.1,1.317,1.317,0,0,1,.456.29,1.372,1.372,0,0,1,.311.456,1.634,1.634,0,0,1,.1.622,2.17,2.17,0,0,1-.1.622,1.122,1.122,0,0,1-.311.456,1.317,1.317,0,0,1-.456.29,1.794,1.794,0,0,1-1.2,0,1.317,1.317,0,0,1-.456-.29,1.581,1.581,0,0,1-.311-.477,1.634,1.634,0,0,1-.1-.622,2.17,2.17,0,0,1,.1-.622,1.122,1.122,0,0,1,.311-.456,1.317,1.317,0,0,1,.456-.29A2.8,2.8,0,0,1,427.771,41.6Zm0,2.321a.472.472,0,0,0,.435-.207,1.133,1.133,0,0,0,.145-.642,1.172,1.172,0,0,0-.145-.642.472.472,0,0,0-.435-.207.453.453,0,0,0-.435.207,1.133,1.133,0,0,0-.145.642,1.172,1.172,0,0,0,.145.642A.472.472,0,0,0,427.771,43.921Z" transform="translate(-273.969 -4.836)" fill="#f6fcff"/>
    <path id="Path_13964" data-name="Path 13964" d="M443.431,42.1c-.021.021-.041.062-.062.083a.155.155,0,0,1-.1.021.263.263,0,0,1-.124-.021l-.124-.062a1.43,1.43,0,0,0-.166-.062.7.7,0,0,0-.207-.021.552.552,0,0,0-.249.062.188.188,0,0,0-.083.166.224.224,0,0,0,.062.145.519.519,0,0,0,.145.083c.062.021.145.062.207.083l.249.083a1.266,1.266,0,0,1,.249.1.744.744,0,0,1,.207.145.474.474,0,0,1,.145.207.731.731,0,0,1,.062.29.841.841,0,0,1-.083.394.865.865,0,0,1-.228.311,1.32,1.32,0,0,1-.373.207,1.482,1.482,0,0,1-.518.062,1.274,1.274,0,0,1-.29-.021,1.527,1.527,0,0,1-.29-.083,1.268,1.268,0,0,1-.249-.1.744.744,0,0,1-.207-.145l.207-.311c.021-.041.062-.062.083-.083a.207.207,0,0,1,.249,0l.124.062c.062.021.1.062.166.062a.882.882,0,0,0,.228.041.349.349,0,0,0,.269-.083.285.285,0,0,0,.062-.083.124.124,0,0,0,.021-.083.188.188,0,0,0-.062-.145c-.041-.041-.1-.062-.145-.1-.062-.021-.145-.062-.207-.083a1.168,1.168,0,0,1-.249-.083,1.267,1.267,0,0,1-.249-.1.811.811,0,0,1-.207-.166.537.537,0,0,1-.145-.228.872.872,0,0,1,.021-.684.934.934,0,0,1,.207-.29,1.052,1.052,0,0,1,.373-.186,1.393,1.393,0,0,1,.5-.083,1.568,1.568,0,0,1,.311.021,1.025,1.025,0,0,1,.269.083.8.8,0,0,1,.228.124,1.14,1.14,0,0,1,.186.145Z" transform="translate(-285.939 -4.678)" fill="#f6fcff"/>
    <path id="Path_13965" data-name="Path 13965" d="M454.564,41.471a.756.756,0,0,1-.808-.5.968.968,0,0,1-.062-.352V39.13h-.249a.158.158,0,0,1-.1-.041.152.152,0,0,1-.041-.124v-.332l.456-.083.166-.7a.2.2,0,0,1,.186-.145h.456v.829h.7v.58h-.7v1.43a.391.391,0,0,0,.041.166.188.188,0,0,0,.145.062h.083c.021,0,.041-.021.062-.021l.041-.021h.041a.076.076,0,0,1,.062.021c.021.021.041.041.041.062l.249.414a1.259,1.259,0,0,1-.373.186A1.122,1.122,0,0,1,454.564,41.471Z" transform="translate(-295.373 -1.744)" fill="#f6fcff"/>
    <path id="Path_13966" data-name="Path 13966" d="M464.1,36.414a2.174,2.174,0,0,1,.228-.166,1.4,1.4,0,0,1,.249-.124,1.526,1.526,0,0,1,.29-.083,2.042,2.042,0,0,1,.352-.041,1.881,1.881,0,0,1,.477.062,1.213,1.213,0,0,1,.352.207.866.866,0,0,1,.228.311,1.086,1.086,0,0,1,.021.767,1.115,1.115,0,0,1-.145.269,1.582,1.582,0,0,1-.186.186l-.207.145a1.038,1.038,0,0,0-.166.145.256.256,0,0,0-.083.166l-.083.394h-.58l-.062-.456v-.083a.35.35,0,0,1,.062-.207.558.558,0,0,1,.145-.166,1.139,1.139,0,0,1,.186-.145c.062-.041.124-.1.186-.145a1.14,1.14,0,0,0,.145-.186.552.552,0,0,0,.062-.249.436.436,0,0,0-.1-.269.509.509,0,0,0-.311-.1.526.526,0,0,0-.249.041,1.429,1.429,0,0,0-.166.062l-.124.062c-.041.021-.062.021-.1.041a.218.218,0,0,1-.186-.1Zm.518,3.232a.605.605,0,0,1,.041-.186.372.372,0,0,1,.1-.145.451.451,0,0,1,.166-.1.639.639,0,0,1,.394,0,.727.727,0,0,1,.166.1.489.489,0,0,1,.145.332.606.606,0,0,1-.041.186.372.372,0,0,1-.1.145.451.451,0,0,1-.166.1.639.639,0,0,1-.394,0,.728.728,0,0,1-.166-.1.63.63,0,0,1-.1-.145.308.308,0,0,1-.041-.186Z" transform="translate(-303.934 -0.396)" fill="#f6fcff"/>
    <path id="Path_13967" data-name="Path 13967" d="M87.647,181.41a2.147,2.147,0,0,1-.145.808,1.636,1.636,0,0,1-.414.642,1.71,1.71,0,0,1-.663.414,2.364,2.364,0,0,1-.85.145H84V179.4h1.575a2.364,2.364,0,0,1,.85.145,1.71,1.71,0,0,1,.663.414,1.636,1.636,0,0,1,.414.642A2.769,2.769,0,0,1,87.647,181.41Zm-.974,0a1.545,1.545,0,0,0-.083-.539,1.168,1.168,0,0,0-.228-.414,1,1,0,0,0-.352-.249.931.931,0,0,0-.477-.083h-.622v2.611h.622a1.216,1.216,0,0,0,.477-.083,1.083,1.083,0,0,0,.352-.249,1.168,1.168,0,0,0,.228-.414A1.962,1.962,0,0,0,86.673,181.41Z" transform="translate(-2.616 -114.084)" fill="#f6fcff"/>
    <path id="Path_13968" data-name="Path 13968" d="M104.309,184.8a1.431,1.431,0,0,1,.518.083,1.38,1.38,0,0,1,.414.249,1.1,1.1,0,0,1,.269.414,1.777,1.777,0,0,1,.1.559v.166c0,.041-.021.062-.041.1-.021.021-.041.041-.062.041a.9.9,0,0,1-.1.021H103.75a.742.742,0,0,0,.228.518.724.724,0,0,0,.456.166,1.04,1.04,0,0,0,.249-.041.737.737,0,0,0,.186-.083l.166-.083a.384.384,0,0,1,.145-.041.188.188,0,0,1,.166.083l.249.311a1.091,1.091,0,0,1-.29.249,2.093,2.093,0,0,1-.311.145,1.551,1.551,0,0,1-.332.083,1.568,1.568,0,0,1-.311.021,1.675,1.675,0,0,1-.559-.1,1.317,1.317,0,0,1-.456-.29,1.189,1.189,0,0,1-.311-.477,1.8,1.8,0,0,1-.124-.663,1.454,1.454,0,0,1,.394-.995,1.476,1.476,0,0,1,.456-.311A1.234,1.234,0,0,1,104.309,184.8Zm0,.6a.547.547,0,0,0-.394.145.7.7,0,0,0-.186.394h1.077a.7.7,0,0,0-.021-.207.417.417,0,0,0-.083-.166.322.322,0,0,0-.166-.124A.288.288,0,0,0,104.309,185.4Z" transform="translate(-17.6 -118.365)" fill="#f6fcff"/>
    <path id="Path_13969" data-name="Path 13969" d="M118.931,185.484c-.021.021-.041.062-.062.083a.155.155,0,0,1-.1.021.263.263,0,0,1-.124-.021l-.124-.062-.166-.062a.7.7,0,0,0-.207-.021.552.552,0,0,0-.249.062.188.188,0,0,0-.083.166.148.148,0,0,0,.062.124.52.52,0,0,0,.145.083.865.865,0,0,1,.207.083c.062.041.166.041.249.083a1.266,1.266,0,0,1,.249.1.728.728,0,0,1,.352.352.731.731,0,0,1,.062.29.841.841,0,0,1-.083.394.677.677,0,0,1-.228.311,1.319,1.319,0,0,1-.373.207,2.249,2.249,0,0,1-.518.083,1.273,1.273,0,0,1-.29-.021,1.525,1.525,0,0,1-.29-.083,1.266,1.266,0,0,1-.249-.1.744.744,0,0,1-.207-.145l.207-.311a.162.162,0,0,1,.083-.083.137.137,0,0,1,.124-.021.2.2,0,0,1,.145.041l.124.083c.062.021.1.041.166.062a.881.881,0,0,0,.228.041.4.4,0,0,0,.166-.021.114.114,0,0,0,.1-.062.286.286,0,0,0,.062-.083.125.125,0,0,0,.021-.083.188.188,0,0,0-.062-.145.63.63,0,0,0-.145-.1c-.062-.021-.145-.062-.207-.083a1.168,1.168,0,0,1-.249-.083,1.268,1.268,0,0,1-.249-.1.812.812,0,0,1-.207-.166.536.536,0,0,1-.145-.228.938.938,0,0,1-.062-.332,1.052,1.052,0,0,1,.062-.352.934.934,0,0,1,.207-.29,1.213,1.213,0,0,1,.352-.207,2.08,2.08,0,0,1,.5-.083,1.274,1.274,0,0,1,.29.021,1.026,1.026,0,0,1,.269.083.8.8,0,0,1,.228.124,1.138,1.138,0,0,1,.186.145Z" transform="translate(-28.699 -118.365)" fill="#f6fcff"/>
    <path id="Path_13970" data-name="Path 13970" d="M131.279,185.684c-.021.021-.041.062-.083.083a.091.091,0,0,1-.1.021.263.263,0,0,1-.124-.021l-.124-.062c-.041-.021-.1-.041-.145-.062a.7.7,0,0,0-.207-.021.573.573,0,0,0-.269.062.489.489,0,0,0-.186.166.611.611,0,0,0-.1.269,2.042,2.042,0,0,0-.041.352,1.034,1.034,0,0,0,.166.642.541.541,0,0,0,.435.228.41.41,0,0,0,.228-.041.334.334,0,0,0,.145-.083l.1-.083a.3.3,0,0,1,.124-.041.188.188,0,0,1,.166.083l.249.311a.844.844,0,0,1-.29.249,1.9,1.9,0,0,1-.29.145,1.727,1.727,0,0,1-.311.083,1.568,1.568,0,0,1-.311.021,1.334,1.334,0,0,1-.5-.1,1.156,1.156,0,0,1-.414-.29,1.317,1.317,0,0,1-.29-.456,1.674,1.674,0,0,1-.1-.642,1.788,1.788,0,0,1,.083-.58,1.565,1.565,0,0,1,.269-.477,1,1,0,0,1,.456-.311,1.663,1.663,0,0,1,.622-.124,1.925,1.925,0,0,1,.6.1,1.772,1.772,0,0,1,.456.311Z" transform="translate(-38.292 -118.523)" fill="#f6fcff"/>
    <path id="Path_13971" data-name="Path 13971" d="M143,187.722v-2.88h.518a.155.155,0,0,1,.1.021c.021,0,.041.021.083.041.021.021.041.041.041.062a.155.155,0,0,1,.021.1l.041.269a1.271,1.271,0,0,1,.352-.394.781.781,0,0,1,.435-.145.54.54,0,0,1,.311.083l-.1.642a.108.108,0,0,1-.041.083.125.125,0,0,1-.083.021.155.155,0,0,1-.1-.021c-.062,0-.1-.021-.166-.021a.617.617,0,0,0-.539.352V187.7Z" transform="translate(-49.391 -118.365)" fill="#f6fcff"/>
    <path id="Path_13972" data-name="Path 13972" d="M154.836,179.3a.6.6,0,0,1-.041.186.434.434,0,0,1-.124.166.451.451,0,0,1-.166.1.736.736,0,0,1-.207.041.6.6,0,0,1-.186-.041.435.435,0,0,1-.269-.269.6.6,0,0,1-.041-.186.5.5,0,0,1,.041-.186.435.435,0,0,1,.269-.269.605.605,0,0,1,.186-.041.737.737,0,0,1,.207.041.451.451,0,0,1,.166.1,1.147,1.147,0,0,1,.124.166A.308.308,0,0,1,154.836,179.3Zm-.1.787v2.88h-.85v-2.88Z" transform="translate(-57.954 -113.608)" fill="#f6fcff"/>
    <path id="Path_13973" data-name="Path 13973" d="M161.7,183.044V178.9h.85v1.575a1.176,1.176,0,0,1,.373-.249,1.229,1.229,0,0,1,.477-.1.943.943,0,0,1,.414.1.887.887,0,0,1,.332.29,1.3,1.3,0,0,1,.207.456,2.139,2.139,0,0,1,.083.622,1.916,1.916,0,0,1-.083.6,2.089,2.089,0,0,1-.249.477.977.977,0,0,1-.394.311,1.1,1.1,0,0,1-.5.124.85.85,0,0,1-.228-.021l-.186-.062a.372.372,0,0,1-.145-.1l-.145-.145-.021.145c0,.041-.041.083-.062.124a.294.294,0,0,1-.124.041Zm1.388-2.279a.4.4,0,0,0-.166.021c-.041.021-.1.021-.145.041a.434.434,0,0,0-.124.083.55.55,0,0,0-.1.124v1.223a.474.474,0,0,0,.207.145,1.04,1.04,0,0,0,.249.041.881.881,0,0,0,.228-.041.559.559,0,0,0,.166-.145.642.642,0,0,0,.124-.269,2.538,2.538,0,0,0,.041-.394,1.147,1.147,0,0,0-.041-.373,1.168,1.168,0,0,0-.083-.249.484.484,0,0,0-.145-.145.25.25,0,0,0-.207-.062Z" transform="translate(-64.217 -113.687)" fill="#f6fcff"/>
    <path id="Path_13974" data-name="Path 13974" d="M177.709,184.8a1.431,1.431,0,0,1,.518.083,1.055,1.055,0,0,1,.663.663,1.776,1.776,0,0,1,.1.559v.166c0,.041-.021.062-.021.1-.021.021-.041.041-.062.041a.9.9,0,0,1-.1.021H177.15a.742.742,0,0,0,.228.518.724.724,0,0,0,.456.166,1.04,1.04,0,0,0,.249-.041.737.737,0,0,0,.186-.083l.166-.083a.384.384,0,0,1,.145-.041.188.188,0,0,1,.166.083l.249.311a1.091,1.091,0,0,1-.29.249,2.093,2.093,0,0,1-.311.145,1.551,1.551,0,0,1-.332.083,1.568,1.568,0,0,1-.311.021,1.675,1.675,0,0,1-.559-.1,1.317,1.317,0,0,1-.456-.29,1.189,1.189,0,0,1-.311-.477,1.8,1.8,0,0,1-.124-.663,1.557,1.557,0,0,1,.1-.539,1.322,1.322,0,0,1,.725-.767A1.463,1.463,0,0,1,177.709,184.8Zm.021.6a.547.547,0,0,0-.394.145.7.7,0,0,0-.186.394h1.077a.705.705,0,0,0-.021-.207.417.417,0,0,0-.083-.166.5.5,0,0,0-.166-.124A.288.288,0,0,0,177.73,185.4Z" transform="translate(-75.792 -118.365)" fill="#f6fcff"/>
    <path id="Path_13975" data-name="Path 13975" d="M196.892,188.626a.231.231,0,0,1-.269.166h-.642l.559-1.16L195.4,185h.767a.488.488,0,0,1,.166.041.207.207,0,0,1,.083.1l.477,1.243a1.75,1.75,0,0,1,.1.352,1.426,1.426,0,0,1,.062-.166,1.957,1.957,0,0,0,.062-.186l.435-1.223a.207.207,0,0,1,.083-.1.3.3,0,0,1,.145-.041h.684Z" transform="translate(-90.934 -118.523)" fill="#f6fcff"/>
    <path id="Path_13976" data-name="Path 13976" d="M211.671,184.8a1.925,1.925,0,0,1,.6.1,1.331,1.331,0,0,1,.767.767,1.634,1.634,0,0,1,.1.622,2.17,2.17,0,0,1-.1.622,1.276,1.276,0,0,1-.767.767,1.794,1.794,0,0,1-1.2,0,1.317,1.317,0,0,1-.456-.29,1.582,1.582,0,0,1-.311-.477,1.634,1.634,0,0,1-.1-.622,2.17,2.17,0,0,1,.1-.622,1.122,1.122,0,0,1,.311-.456,1.317,1.317,0,0,1,.456-.29A1.486,1.486,0,0,1,211.671,184.8Zm0,2.321a.472.472,0,0,0,.435-.207,1.133,1.133,0,0,0,.145-.642,1.172,1.172,0,0,0-.145-.642.472.472,0,0,0-.435-.207.453.453,0,0,0-.435.207,1.133,1.133,0,0,0-.145.642,1.172,1.172,0,0,0,.145.642.472.472,0,0,0,.435.207Z" transform="translate(-102.667 -118.365)" fill="#f6fcff"/>
    <path id="Path_13977" data-name="Path 13977" d="M227.329,185v1.823a.487.487,0,0,0,.1.332.376.376,0,0,0,.29.124.638.638,0,0,0,.269-.062.92.92,0,0,0,.228-.166V185h.87v2.88h-.539a.206.206,0,0,1-.207-.145l-.041-.166a1.038,1.038,0,0,1-.166.145.84.84,0,0,1-.186.1.743.743,0,0,1-.228.083,1.009,1.009,0,0,1-.249.021.928.928,0,0,1-.414-.083.866.866,0,0,1-.311-.228,1.152,1.152,0,0,1-.186-.352,1.577,1.577,0,0,1-.062-.435V185Z" transform="translate(-115.59 -118.523)" fill="#f6fcff"/>
    <path id="Path_13978" data-name="Path 13978" d="M242.1,187.722v-2.88h.518a.155.155,0,0,1,.1.021c.021,0,.041.021.083.041.021.021.041.041.041.062a.155.155,0,0,1,.021.1l.041.269a1.272,1.272,0,0,1,.352-.394.781.781,0,0,1,.435-.145.54.54,0,0,1,.311.083l-.1.642a.108.108,0,0,1-.041.083.125.125,0,0,1-.083.021.155.155,0,0,1-.1-.021c-.062,0-.1-.021-.166-.021a.617.617,0,0,0-.539.352V187.7Z" transform="translate(-127.958 -118.365)" fill="#f6fcff"/>
    <path id="Path_13979" data-name="Path 13979" d="M259.031,185.617c-.021.021-.041.062-.062.083a.155.155,0,0,1-.1.021.263.263,0,0,1-.124-.021l-.124-.062a1.425,1.425,0,0,0-.166-.062.7.7,0,0,0-.207-.021.552.552,0,0,0-.249.062.188.188,0,0,0-.083.166.148.148,0,0,0,.062.124.52.52,0,0,0,.145.083c.062.021.145.062.207.083a1.167,1.167,0,0,1,.249.083,1.268,1.268,0,0,1,.249.1.744.744,0,0,1,.207.145.474.474,0,0,1,.145.207.731.731,0,0,1,.062.29.841.841,0,0,1-.083.394.677.677,0,0,1-.228.311.953.953,0,0,1-.373.207,2.249,2.249,0,0,1-.518.083,1.273,1.273,0,0,1-.29-.021,1.525,1.525,0,0,1-.29-.083,1.267,1.267,0,0,1-.249-.1.744.744,0,0,1-.207-.145l.207-.311a.162.162,0,0,1,.083-.083.137.137,0,0,1,.124-.021c.041,0,.1,0,.124.041l.124.083a.4.4,0,0,0,.166.062.881.881,0,0,0,.228.041.4.4,0,0,0,.166-.021.114.114,0,0,0,.1-.062.286.286,0,0,0,.062-.083.125.125,0,0,0,.021-.083.188.188,0,0,0-.062-.145.433.433,0,0,0-.124-.083c-.062-.021-.145-.062-.207-.083a1.168,1.168,0,0,1-.249-.083,1.269,1.269,0,0,1-.249-.1.811.811,0,0,1-.207-.166.537.537,0,0,1-.145-.228.938.938,0,0,1-.062-.332,1.053,1.053,0,0,1,.062-.352.934.934,0,0,1,.207-.29,1.213,1.213,0,0,1,.352-.207,1.781,1.781,0,0,1,.808-.041,1.026,1.026,0,0,1,.269.083.8.8,0,0,1,.228.124,1.141,1.141,0,0,1,.186.145Z" transform="translate(-139.77 -118.499)" fill="#f6fcff"/>
    <path id="Path_13980" data-name="Path 13980" d="M270.013,188.626c-.021.041-.041.1-.1.124a.605.605,0,0,1-.186.041h-.642l.559-1.16L268.5,185h.767a.233.233,0,0,1,.228.145l.477,1.243a1.75,1.75,0,0,1,.1.352,1.432,1.432,0,0,1,.062-.166l.062-.186.435-1.223a.207.207,0,0,1,.083-.1.3.3,0,0,1,.145-.041h.684Z" transform="translate(-148.876 -118.523)" fill="#f6fcff"/>
    <path id="Path_13981" data-name="Path 13981" d="M284.9,187.8v-2.88h.539a.222.222,0,0,1,.124.041.207.207,0,0,1,.083.1l.041.166.145-.145a.451.451,0,0,1,.166-.1.659.659,0,0,1,.186-.062.85.85,0,0,1,.228-.021.815.815,0,0,1,.435.124.79.79,0,0,1,.249.352.647.647,0,0,1,.186-.228.856.856,0,0,1,.228-.145,1.169,1.169,0,0,1,.249-.083,1.182,1.182,0,0,1,.269-.021,1.082,1.082,0,0,1,.435.083.82.82,0,0,1,.311.207.955.955,0,0,1,.186.352,1.726,1.726,0,0,1,.062.456v1.823h-.85v-1.865c0-.29-.124-.456-.373-.456a.409.409,0,0,0-.29.124.382.382,0,0,0-.1.332v1.823h-.85v-1.823a.447.447,0,0,0-.1-.352.5.5,0,0,0-.29-.1.472.472,0,0,0-.228.062.744.744,0,0,0-.207.145v2.072Z" transform="translate(-161.876 -118.444)" fill="#f6fcff"/>
    <path id="Path_13982" data-name="Path 13982" d="M307.9,188.633v-3.792h.539a.222.222,0,0,1,.124.041.207.207,0,0,1,.083.1l.062.207a1.339,1.339,0,0,1,.186-.166,1.2,1.2,0,0,1,.435-.207,1.181,1.181,0,0,1,.269-.021.943.943,0,0,1,.414.1.887.887,0,0,1,.332.29,1.3,1.3,0,0,1,.207.456,2.139,2.139,0,0,1,.083.622,1.916,1.916,0,0,1-.083.6,2.088,2.088,0,0,1-.249.477.976.976,0,0,1-.394.311,1.041,1.041,0,0,1-.5.124.9.9,0,0,1-.642-.228v1.1Zm1.409-3.191a.4.4,0,0,0-.166.021c-.041.021-.1.021-.145.041a.434.434,0,0,0-.124.083.549.549,0,0,0-.1.124v1.223a.474.474,0,0,0,.207.145,1.069,1.069,0,0,0,.228.041.736.736,0,0,0,.207-.041.558.558,0,0,0,.166-.145.436.436,0,0,0,.1-.269,2.535,2.535,0,0,0,.041-.394,1.147,1.147,0,0,0-.041-.373,1.17,1.17,0,0,0-.083-.249.485.485,0,0,0-.145-.145.161.161,0,0,0-.145-.062Z" transform="translate(-180.109 -118.365)" fill="#f6fcff"/>
    <path id="Path_13983" data-name="Path 13983" d="M323.522,184.735a.756.756,0,0,1-.808-.5.968.968,0,0,1-.062-.352v-1.492h-.207a.158.158,0,0,1-.1-.041.152.152,0,0,1-.041-.124V181.9l.456-.083.166-.7a.161.161,0,0,1,.186-.124h.456v.829h.7v.58h-.7v1.43a.391.391,0,0,0,.041.166.188.188,0,0,0,.145.062.125.125,0,0,0,.083-.021c.021,0,.041-.021.062-.021l.041-.021a.072.072,0,0,0,.041-.021.076.076,0,0,1,.062.021c.021.021.041.041.041.062l.249.414a1.26,1.26,0,0,1-.373.186A1.082,1.082,0,0,1,323.522,184.735Z" transform="translate(-191.525 -115.337)" fill="#f6fcff"/>
    <path id="Path_13984" data-name="Path 13984" d="M334.571,184.8a1.925,1.925,0,0,1,.6.1,1.331,1.331,0,0,1,.767.767,1.634,1.634,0,0,1,.1.622,2.171,2.171,0,0,1-.1.622,1.276,1.276,0,0,1-.767.767,1.794,1.794,0,0,1-1.2,0,1.317,1.317,0,0,1-.456-.29,1.582,1.582,0,0,1-.311-.477,1.635,1.635,0,0,1-.1-.622,2.17,2.17,0,0,1,.1-.622,1.122,1.122,0,0,1,.311-.456,1.317,1.317,0,0,1,.456-.29A1.642,1.642,0,0,1,334.571,184.8Zm0,2.321a.472.472,0,0,0,.435-.207,1.332,1.332,0,0,0,.145-.642,1.172,1.172,0,0,0-.145-.642.472.472,0,0,0-.435-.207.453.453,0,0,0-.435.207,1.133,1.133,0,0,0-.145.642,1.172,1.172,0,0,0,.145.642.472.472,0,0,0,.435.207Z" transform="translate(-200.086 -118.365)" fill="#f6fcff"/>
    <path id="Path_13985" data-name="Path 13985" d="M349.6,187.8v-2.88h.539a.222.222,0,0,1,.124.041.207.207,0,0,1,.083.1l.041.166.145-.145a.451.451,0,0,1,.166-.1.659.659,0,0,1,.186-.062.85.85,0,0,1,.228-.021.815.815,0,0,1,.435.124.79.79,0,0,1,.249.352.648.648,0,0,1,.186-.228.856.856,0,0,1,.228-.145,1.168,1.168,0,0,1,.249-.083,1.181,1.181,0,0,1,.269-.021,1.082,1.082,0,0,1,.435.083.82.82,0,0,1,.311.207.956.956,0,0,1,.186.352,1.727,1.727,0,0,1,.062.456v1.823h-.85v-1.865c0-.29-.124-.456-.373-.456a.409.409,0,0,0-.29.124.382.382,0,0,0-.1.332v1.823h-.85v-1.823a.447.447,0,0,0-.1-.352.5.5,0,0,0-.29-.1.472.472,0,0,0-.228.062.744.744,0,0,0-.207.145v2.072Z" transform="translate(-213.166 -118.444)" fill="#f6fcff"/>
    <path id="Path_13986" data-name="Path 13986" d="M373.331,185.484c-.021.021-.041.062-.062.083a.155.155,0,0,1-.1.021.263.263,0,0,1-.124-.021l-.124-.062a1.425,1.425,0,0,0-.166-.062.7.7,0,0,0-.207-.021.552.552,0,0,0-.249.062.188.188,0,0,0-.083.166.148.148,0,0,0,.062.124.52.52,0,0,0,.145.083c.062.021.145.062.207.083a1.167,1.167,0,0,1,.249.083,1.267,1.267,0,0,1,.249.1.743.743,0,0,1,.207.145.474.474,0,0,1,.145.207.732.732,0,0,1,.062.29.841.841,0,0,1-.083.394.865.865,0,0,1-.228.311,1.319,1.319,0,0,1-.373.207,2.249,2.249,0,0,1-.518.083,1.367,1.367,0,0,1-.29-.021,1.526,1.526,0,0,1-.29-.083,1.266,1.266,0,0,1-.249-.1.744.744,0,0,1-.207-.145l.207-.311c.021-.041.062-.062.083-.083a.137.137,0,0,1,.124-.021c.041,0,.1,0,.124.041l.124.083c.062.021.1.041.166.062a.88.88,0,0,0,.228.041.456.456,0,0,0,.166-.021.114.114,0,0,0,.1-.062.286.286,0,0,0,.062-.083.125.125,0,0,0,.021-.083.188.188,0,0,0-.062-.145.629.629,0,0,0-.145-.1c-.062-.021-.145-.062-.207-.083a1.169,1.169,0,0,1-.249-.083,1.268,1.268,0,0,1-.249-.1.811.811,0,0,1-.207-.166.536.536,0,0,1-.145-.228.938.938,0,0,1-.062-.332,1.052,1.052,0,0,1,.062-.352.934.934,0,0,1,.207-.29,1.213,1.213,0,0,1,.352-.207,2.079,2.079,0,0,1,.5-.083,1.568,1.568,0,0,1,.311.021,1.34,1.34,0,0,1,.269.083.494.494,0,0,1,.228.124,1.136,1.136,0,0,1,.186.145Z" transform="translate(-230.369 -118.365)" fill="#f6fcff"/>
    <path id="Path_13987" data-name="Path 13987" d="M86.3,479.44h-.725a.35.35,0,0,1-.207-.062.372.372,0,0,1-.1-.145l-.249-.7H83.485l-.249.7a.319.319,0,0,1-.311.207H82.2l1.554-4.04h.953Zm-2.59-1.533h1.1l-.373-1.1c-.021-.062-.041-.145-.083-.249s-.062-.207-.1-.311c-.021.1-.062.207-.083.311a1.73,1.73,0,0,1-.083.249Z" transform="translate(-1.189 -348.777)" fill="#f6fcff"/>
    <path id="Path_13988" data-name="Path 13988" d="M104.817,479.044a.385.385,0,0,1-.145-.041.207.207,0,0,1-.083-.1l-.062-.207a1.341,1.341,0,0,1-.186.166.69.69,0,0,1-.207.124,1.011,1.011,0,0,1-.228.083,1.183,1.183,0,0,1-.269.021.943.943,0,0,1-.414-.1.887.887,0,0,1-.332-.29,1.3,1.3,0,0,1-.207-.456,2.139,2.139,0,0,1-.083-.622,2,2,0,0,1,.083-.6,2.087,2.087,0,0,1,.249-.477,1.451,1.451,0,0,1,.394-.311.866.866,0,0,1,.5-.1.9.9,0,0,1,.642.228V474.9h.87v4.144h-.518Zm-.87-.622a.4.4,0,0,0,.166-.021c.041-.021.1-.021.145-.041a.433.433,0,0,0,.124-.083.548.548,0,0,0,.1-.124v-1.222a.474.474,0,0,0-.207-.145,1.069,1.069,0,0,0-.228-.041.881.881,0,0,0-.228.041.558.558,0,0,0-.166.145.642.642,0,0,0-.124.269,2.539,2.539,0,0,0-.041.394,1.342,1.342,0,0,0,.041.394,1.168,1.168,0,0,0,.083.249.484.484,0,0,0,.145.145.606.606,0,0,0,.186.041Z" transform="translate(-17.362 -348.38)" fill="#f6fcff"/>
    <path id="Path_13989" data-name="Path 13989" d="M120.4,479.044a.222.222,0,0,1-.124-.041.207.207,0,0,1-.083-.1l-.062-.207a1.341,1.341,0,0,1-.186.166.69.69,0,0,1-.207.124,1.012,1.012,0,0,1-.228.083,1.183,1.183,0,0,1-.269.021.943.943,0,0,1-.414-.1.887.887,0,0,1-.332-.29,1.3,1.3,0,0,1-.207-.456,2.139,2.139,0,0,1-.083-.622,2,2,0,0,1,.083-.6,2.088,2.088,0,0,1,.249-.477,1.451,1.451,0,0,1,.394-.311.866.866,0,0,1,.5-.1.9.9,0,0,1,.642.228V474.9h.87v4.144H120.4Zm-.87-.622a.4.4,0,0,0,.166-.021c.041-.021.1-.021.145-.041a.434.434,0,0,0,.124-.083.548.548,0,0,0,.1-.124v-1.222a.474.474,0,0,0-.207-.145,1.069,1.069,0,0,0-.228-.041.745.745,0,0,0-.228.041.558.558,0,0,0-.166.145,1.072,1.072,0,0,0-.124.269,2.539,2.539,0,0,0-.041.394,1.342,1.342,0,0,0,.041.394,1.168,1.168,0,0,0,.083.249.484.484,0,0,0,.145.145.606.606,0,0,0,.186.041Z" transform="translate(-29.73 -348.38)" fill="#f6fcff"/>
    <path id="Path_13990" data-name="Path 13990" d="M140.536,475.218a.6.6,0,0,1-.041.186.434.434,0,0,1-.124.166.451.451,0,0,1-.166.1.737.737,0,0,1-.207.041.5.5,0,0,1-.186-.041.451.451,0,0,1-.166-.1.427.427,0,0,1-.145-.352.912.912,0,0,1,.041-.207.435.435,0,0,1,.269-.269A.6.6,0,0,1,140,474.7a.524.524,0,0,1,.477.311A.463.463,0,0,1,140.536,475.218Zm-.1.787v2.88h-.85v-2.88Z" transform="translate(-46.617 -348.222)" fill="#f6fcff"/>
    <path id="Path_13991" data-name="Path 13991" d="M147.4,483.722v-2.88h.539a.222.222,0,0,1,.124.041.207.207,0,0,1,.083.1l.041.166.145-.145a.451.451,0,0,1,.166-.1.736.736,0,0,1,.186-.083.85.85,0,0,1,.228-.021.816.816,0,0,1,.435.124.791.791,0,0,1,.249.352.648.648,0,0,1,.186-.228.855.855,0,0,1,.228-.145,1.168,1.168,0,0,1,.249-.083,1.181,1.181,0,0,1,.269-.021,1.082,1.082,0,0,1,.435.083,1.113,1.113,0,0,1,.332.207.955.955,0,0,1,.186.352,1.726,1.726,0,0,1,.062.456v1.823h-.85v-1.844q0-.435-.373-.435a.5.5,0,0,0-.29.1.471.471,0,0,0-.124.332V483.7h-.85v-1.823a.447.447,0,0,0-.1-.352.5.5,0,0,0-.29-.1.88.88,0,0,0-.228.041.645.645,0,0,0-.186.145v2.072Z" transform="translate(-52.88 -353.058)" fill="#f6fcff"/>
    <path id="Path_13992" data-name="Path 13992" d="M171.913,483.959a.308.308,0,0,1-.186-.041.372.372,0,0,1-.1-.145l-.062-.166a1.812,1.812,0,0,0-.207.166c-.062.041-.145.083-.207.124a1.01,1.01,0,0,1-.228.083,1.181,1.181,0,0,1-.269.021,1.822,1.822,0,0,1-.352-.041.682.682,0,0,1-.269-.145.412.412,0,0,1-.166-.249.968.968,0,0,1-.062-.352.585.585,0,0,1,.083-.311.611.611,0,0,1,.269-.29,2.315,2.315,0,0,1,.518-.228,2.683,2.683,0,0,1,.808-.083v-.124a.494.494,0,0,0-.1-.373.322.322,0,0,0-.29-.1.526.526,0,0,0-.249.041.416.416,0,0,0-.166.083l-.145.083a.488.488,0,0,1-.166.041.3.3,0,0,1-.145-.041.25.25,0,0,1-.1-.1l-.166-.269a1.626,1.626,0,0,1,.58-.332,1.961,1.961,0,0,1,.684-.1,1.048,1.048,0,0,1,1.057.663,1.115,1.115,0,0,1,.083.456v1.8Zm-.995-.518a.662.662,0,0,0,.29-.062.566.566,0,0,0,.249-.186V482.8a1.409,1.409,0,0,0-.414.041,1.338,1.338,0,0,0-.269.083.212.212,0,0,0-.124.1.3.3,0,0,0-.041.145.266.266,0,0,0,.083.207.473.473,0,0,0,.228.062Z" transform="translate(-70.638 -353.296)" fill="#f6fcff"/>
    <path id="Path_13993" data-name="Path 13993" d="M184.943,480.8a2.038,2.038,0,0,1,.352.041,1.2,1.2,0,0,1,.29.1h.87v.311a.158.158,0,0,1-.041.1.188.188,0,0,1-.145.062l-.207.041a1.04,1.04,0,0,1,.041.249.9.9,0,0,1-.083.394,1.09,1.09,0,0,1-.249.29,1.051,1.051,0,0,1-.373.186,1.724,1.724,0,0,1-.456.062,1.01,1.01,0,0,1-.249-.021.114.114,0,0,0-.083.124.106.106,0,0,0,.083.1.735.735,0,0,0,.207.041c.083,0,.186.021.29.021a1.9,1.9,0,0,1,.332.021,1.813,1.813,0,0,1,.332.041.727.727,0,0,1,.29.124.5.5,0,0,1,.207.207.656.656,0,0,1,.083.331.775.775,0,0,1-.1.373,1.054,1.054,0,0,1-.269.332,1.347,1.347,0,0,1-.456.228,2,2,0,0,1-.6.083,2.764,2.764,0,0,1-.58-.062,1.447,1.447,0,0,1-.414-.166.527.527,0,0,1-.228-.249.674.674,0,0,1-.083-.29.508.508,0,0,1,.124-.331.747.747,0,0,1,.311-.207.63.63,0,0,1-.166-.166.552.552,0,0,1-.062-.249.263.263,0,0,1,.021-.124c.021-.041.041-.1.062-.145l.124-.124a.726.726,0,0,1,.166-.1,1.032,1.032,0,0,1-.352-.311.887.887,0,0,1-.124-.456.791.791,0,0,1,.332-.684,1.261,1.261,0,0,1,.373-.186A3.034,3.034,0,0,0,184.943,480.8Zm.642,3.025a.158.158,0,0,0-.041-.1.179.179,0,0,0-.124-.062c-.062-.021-.1-.021-.166-.041H184.8a1.009,1.009,0,0,1-.249-.021c-.041.041-.1.083-.124.124a.2.2,0,0,0-.041.145.155.155,0,0,0,.021.1c.021.041.062.062.083.083l.186.062a1.37,1.37,0,0,0,.29.021,1.57,1.57,0,0,0,.311-.021.334.334,0,0,0,.186-.062.25.25,0,0,0,.1-.1C185.565,483.908,185.586,483.867,185.586,483.825Zm-.642-1.7a.367.367,0,0,0,.414-.29v-.1a.318.318,0,0,0-.1-.269.5.5,0,0,0-.622,0,.436.436,0,0,0-.1.269.307.307,0,0,0,.021.145.381.381,0,0,0,.207.207A.308.308,0,0,0,184.943,482.126Z" transform="translate(-81.658 -353.058)" fill="#f6fcff"/>
    <path id="Path_13994" data-name="Path 13994" d="M199.23,480.8a1.431,1.431,0,0,1,.518.083,1.055,1.055,0,0,1,.663.663,1.649,1.649,0,0,1,.083.7c0,.041-.021.062-.021.1-.021.021-.041.041-.062.041a.155.155,0,0,1-.1.021H198.65a.742.742,0,0,0,.228.518.724.724,0,0,0,.456.166,1.042,1.042,0,0,0,.249-.041.737.737,0,0,0,.186-.083l.166-.083a.385.385,0,0,1,.145-.041.188.188,0,0,1,.166.083l.249.311a1.09,1.09,0,0,1-.29.249,2.089,2.089,0,0,1-.311.145,1.552,1.552,0,0,1-.332.083,1.568,1.568,0,0,1-.311.021,1.675,1.675,0,0,1-.559-.1,1.316,1.316,0,0,1-.456-.29,1.35,1.35,0,0,1-.311-.477,1.8,1.8,0,0,1-.124-.663,1.557,1.557,0,0,1,.1-.539,1.322,1.322,0,0,1,.725-.767A2.034,2.034,0,0,1,199.23,480.8Zm.021.6a.547.547,0,0,0-.394.145.7.7,0,0,0-.186.394h1.077a.7.7,0,0,0-.021-.207.416.416,0,0,0-.083-.166.322.322,0,0,0-.166-.124A.41.41,0,0,0,199.25,481.4Z" transform="translate(-92.837 -353.058)" fill="#f6fcff"/>
    <path id="Path_13995" data-name="Path 13995" d="M214.031,481.642c-.021.021-.041.062-.062.083a.155.155,0,0,1-.1.021.263.263,0,0,1-.124-.021l-.124-.062c-.062-.021-.1-.041-.166-.062a.7.7,0,0,0-.207-.021.492.492,0,0,0-.249.062.188.188,0,0,0-.083.166.148.148,0,0,0,.062.124c.041.041.1.062.145.1.062.021.145.062.207.083a1.169,1.169,0,0,1,.249.083,1.27,1.27,0,0,1,.249.1.744.744,0,0,1,.207.145.474.474,0,0,1,.145.207.731.731,0,0,1,.062.29.841.841,0,0,1-.083.394.677.677,0,0,1-.228.311.953.953,0,0,1-.373.207,2.249,2.249,0,0,1-.518.083,1.274,1.274,0,0,1-.29-.021,1.528,1.528,0,0,1-.29-.083,1.266,1.266,0,0,1-.249-.1.744.744,0,0,1-.207-.145l.207-.311a.162.162,0,0,1,.083-.083.137.137,0,0,1,.124-.021c.041,0,.1,0,.124.041l.124.083c.062.021.1.062.166.083a.881.881,0,0,0,.228.041.4.4,0,0,0,.166-.021c.041-.021.083-.021.1-.062a.287.287,0,0,0,.062-.083.125.125,0,0,0,.021-.083.188.188,0,0,0-.062-.145.63.63,0,0,0-.145-.1c-.062-.021-.145-.062-.207-.083a1.168,1.168,0,0,1-.249-.083,1.267,1.267,0,0,1-.249-.1.811.811,0,0,1-.207-.166.537.537,0,0,1-.145-.228.939.939,0,0,1-.062-.332,1.053,1.053,0,0,1,.062-.352.933.933,0,0,1,.207-.29,1.213,1.213,0,0,1,.352-.207,2.08,2.08,0,0,1,.5-.083,1.274,1.274,0,0,1,.29.021,1.026,1.026,0,0,1,.269.083.8.8,0,0,1,.228.124,1.138,1.138,0,0,1,.186.145Z" transform="translate(-104.094 -353.217)" fill="#f6fcff"/>
    <path id="Path_13996" data-name="Path 13996" d="M84.147,81.1h79.337a.853.853,0,0,1,.85.85v8.164a.853.853,0,0,1-.85.85H84.147a.853.853,0,0,1-.85-.85V81.95A.828.828,0,0,1,84.147,81.1Z" transform="translate(-2.058 -36.152)" fill="#3c97d3" opacity="0.43"/>
    <path id="Path_13997" data-name="Path 13997" d="M85.06,221.8h77.514a1.76,1.76,0,0,1,1.761,1.761v38.374a1.76,1.76,0,0,1-1.761,1.761H85.06a1.76,1.76,0,0,1-1.761-1.761V223.561A1.747,1.747,0,0,1,85.06,221.8Z" transform="translate(-2.06 -147.711)" fill="#3c97d3" opacity="0.43"/>
    <path id="Path_13998" data-name="Path 13998" d="M411.929,524.9h12a.831.831,0,0,1,.829.829v11.52a.831.831,0,0,1-.829.829h-12a.831.831,0,0,1-.829-.829v-11.52A.831.831,0,0,1,411.929,524.9Z" transform="translate(-261.918 -388.024)" fill="#3c97d3" opacity="0.43"/>
    <path id="Path_13999" data-name="Path 13999" d="M411.929,605.3h12a.831.831,0,0,1,.829.829v11.52a.831.831,0,0,1-.829.829h-12a.831.831,0,0,1-.829-.829v-11.52A.831.831,0,0,1,411.929,605.3Z" transform="translate(-261.918 -451.77)" fill="#3c97d3" opacity="0.43"/>
    <path id="Path_14000" data-name="Path 14000" d="M246.812,524.9H275.9a.906.906,0,0,1,.912.912v27.972a.906.906,0,0,1-.912.912H246.812a.906.906,0,0,1-.912-.912V525.812A.92.92,0,0,1,246.812,524.9Z" transform="translate(-130.958 -388.027)" fill="#3c97d3" opacity="0.43"/>
    <path id="Path_14001" data-name="Path 14001" d="M81.612,524.9H110.7a.906.906,0,0,1,.912.912v27.972a.906.906,0,0,1-.912.912H81.612a.906.906,0,0,1-.912-.912V525.812A.906.906,0,0,1,81.612,524.9Z" transform="translate(0 -388.027)" fill="#3c97d3" opacity="0.43"/>
    <rect id="Rectangle_1034" data-name="Rectangle 1034" width="26.77" height="25.797" transform="translate(82.772 138.883)" fill="none" stroke="#4e7b96" stroke-width="1.01" opacity="0.43"/>
    <rect id="Rectangle_1035" data-name="Rectangle 1035" width="26.77" height="25.797" transform="translate(117.014 138.883)" fill="none" stroke="#4e7b96" stroke-width="1.01" opacity="0.43"/>
    <rect id="Rectangle_1036" data-name="Rectangle 1036" width="11.065" height="10.671" transform="translate(150.487 138.119)" fill="none" stroke="#4e7b96" stroke-width="1.01" opacity="0.43"/>
    <rect id="Rectangle_1037" data-name="Rectangle 1037" width="11.065" height="10.671" transform="translate(150.487 154.773)" fill="none" stroke="#4e7b96" stroke-width="1.01" opacity="0.43"/>
    <g id="Group_589" data-name="Group 589" transform="translate(84.844 77.113)" opacity="0.43">
      <path id="Path_14002" data-name="Path 14002" d="M237.965,236.4h42.02a1.857,1.857,0,0,1,1.865,1.865h0a1.857,1.857,0,0,1-1.865,1.865h-42.02a1.857,1.857,0,0,1-1.865-1.865h0A1.87,1.87,0,0,1,237.965,236.4Z" transform="translate(-208.045 -236.4)" fill="#4e7b96"/>
      <path id="Path_14003" data-name="Path 14003" d="M102.565,267.4H172.64a1.857,1.857,0,0,1,1.865,1.865h0a1.857,1.857,0,0,1-1.865,1.865H102.565a1.857,1.857,0,0,1-1.865-1.865h0A1.87,1.87,0,0,1,102.565,267.4Z" transform="translate(-100.7 -260.977)" fill="#4e7b96"/>
      <path id="Path_14004" data-name="Path 14004" d="M102.565,298.4H172.64a1.857,1.857,0,0,1,1.865,1.865h0a1.857,1.857,0,0,1-1.865,1.865H102.565a1.857,1.857,0,0,1-1.865-1.865h0A1.87,1.87,0,0,1,102.565,298.4Z" transform="translate(-100.7 -285.554)" fill="#4e7b96"/>
      <path id="Path_14005" data-name="Path 14005" d="M102.565,329.4H172.64a1.857,1.857,0,0,1,1.865,1.865h0a1.857,1.857,0,0,1-1.865,1.865H102.565a1.857,1.857,0,0,1-1.865-1.865h0A1.87,1.87,0,0,1,102.565,329.4Z" transform="translate(-100.7 -310.13)" fill="#4e7b96"/>
      <path id="Path_14006" data-name="Path 14006" d="M102.565,360.4H172.64a1.857,1.857,0,0,1,1.865,1.865h0a1.857,1.857,0,0,1-1.865,1.865H102.565a1.857,1.857,0,0,1-1.865-1.865h0A1.87,1.87,0,0,1,102.565,360.4Z" transform="translate(-100.7 -334.707)" fill="#4e7b96"/>
      <path id="Path_14007" data-name="Path 14007" d="M102.565,391.3H172.64a1.857,1.857,0,0,1,1.865,1.865h0a1.857,1.857,0,0,1-1.865,1.865H102.565a1.857,1.857,0,0,1-1.865-1.865h0A1.884,1.884,0,0,1,102.565,391.3Z" transform="translate(-100.7 -359.205)" fill="#4e7b96"/>
    </g>
    <g id="Group_590" data-name="Group 590" transform="translate(85.507 47.849)" opacity="0.43">
      <path id="Path_14008" data-name="Path 14008" d="M105.765,95.9h42.02a1.857,1.857,0,0,1,1.865,1.865h0a1.857,1.857,0,0,1-1.865,1.865h-42.02a1.857,1.857,0,0,1-1.865-1.865h0A1.87,1.87,0,0,1,105.765,95.9Z" transform="translate(-103.9 -95.734)" fill="#4e7b96"/>
      <path id="Path_14009" data-name="Path 14009" d="M436.8,98.291a1.6,1.6,0,1,1,0-3.191,1.618,1.618,0,0,1,1.14.477h0a1.6,1.6,0,0,1,0,2.258A1.689,1.689,0,0,1,436.8,98.291Zm0-2.714a1.137,1.137,0,0,0-1.119,1.1,1.123,1.123,0,0,0,1.1,1.119,1.137,1.137,0,0,0,1.119-1.1,1.112,1.112,0,0,0-.311-.787A1.171,1.171,0,0,0,436.8,95.577Z" transform="translate(-366.554 -95.1)" fill="#4e7b96"/>
      <path id="Path_14010" data-name="Path 14010" d="M447.874,108.022a.235.235,0,0,1-.166-.062l-1.305-1.305a.238.238,0,0,1,0-.352h0a.238.238,0,0,1,.352,0l1.305,1.305a.238.238,0,0,1,0,.352h0A.658.658,0,0,1,447.874,108.022Z" transform="translate(-375.374 -103.92)" fill="#4e7b96"/>
    </g>
    <g id="freepik--character-2--inject-4" transform="translate(171.982 80.802)">
      <path id="Path_14011" data-name="Path 14011" d="M571.575,705.629l2.88,3.605-.995-13.1L583.654,695s.87,22.233.663,25.258A22.617,22.617,0,0,1,583.2,724.9a5.339,5.339,0,0,1-6.693,3.481,5.138,5.138,0,0,1-2.134-1.285,33.882,33.882,0,0,1-2.839-3.149c-4-5.2-10.733-17.84-10.733-17.84l7-4.227Z" transform="translate(-552.543 -603.706)" fill="#78aa41"/>
      <path id="Path_14012" data-name="Path 14012" d="M610.1,742.987a9.086,9.086,0,0,0,1.181,1.6c.808.953,1.823,2.259,3.046,3.688a47.12,47.12,0,0,0,3.253,3.5,6.728,6.728,0,0,0,1.533,1.243,14.681,14.681,0,0,0-1.326-1.45c-.808-.891-1.927-2.155-3.129-3.564A46.048,46.048,0,0,0,610.1,742.987Z" transform="translate(-591.628 -641.747)" fill="#263238"/>
      <path id="Path_14013" data-name="Path 14013" d="M738.725,294.266l.414,32.986c.062,5.615-.974,13.862-9.842,13.572h0c-7.687-.808-9.718-8.1-9.78-13.344,0-2.486-.062-4.558-.083-4.807,0,0-8.412-.684-9.117-8.993-.331-4-.373-12.328-.311-19.871a15.5,15.5,0,0,1,14.421-15.354l.808-.062C733.877,278.27,738.829,285.563,738.725,294.266Z" transform="translate(-670.815 -273.42)" fill="#ffbe9d"/>
      <path id="Path_14014" data-name="Path 14014" d="M755.5,476.8a20.253,20.253,0,0,0,10.588-4s-2.2,6.258-10.547,6.133Z" transform="translate(-706.901 -427.546)" fill="#eb996e"/>
      <path id="Path_14015" data-name="Path 14015" d="M778.414,363.651c.166.166,1.119-.6,2.507-.642s2.4.642,2.569.456-.1-.394-.559-.7a3.393,3.393,0,0,0-2.072-.58,3.3,3.3,0,0,0-1.989.725C778.476,363.258,778.331,363.568,778.414,363.651Z" transform="translate(-725.049 -339.842)" fill="#263238"/>
      <path id="Path_14016" data-name="Path 14016" d="M774.8,381.375a1.138,1.138,0,0,0,1.16,1.057,1.066,1.066,0,0,0,1.077-1.057v-.021a1.138,1.138,0,0,0-1.16-1.057,1.069,1.069,0,0,0-1.077,1.077Z" transform="translate(-722.202 -354.209)" fill="#263238"/>
      <path id="Path_14017" data-name="Path 14017" d="M749.206,375.169a8.873,8.873,0,0,0-2.093-.228c-.331,0-.642-.062-.7-.269a1.57,1.57,0,0,1,.145-.974q.373-1.212.808-2.549a47.928,47.928,0,0,0,1.7-6.651A46.628,46.628,0,0,0,746.844,371c-.269.891-.518,1.74-.746,2.569a1.727,1.727,0,0,0-.062,1.285.753.753,0,0,0,.559.435,2.525,2.525,0,0,0,.559,0A8.6,8.6,0,0,0,749.206,375.169Z" transform="translate(-699.322 -341.684)" fill="#263238"/>
      <path id="Path_14018" data-name="Path 14018" d="M781.362,336.711c.145.311,1.243.083,2.59.145s2.4.352,2.59.062c.062-.145-.145-.414-.58-.7a4.46,4.46,0,0,0-3.937-.166C781.527,336.3,781.3,336.587,781.362,336.711Z" transform="translate(-727.396 -318.828)" fill="#263238"/>
      <path id="Path_14019" data-name="Path 14019" d="M717.561,346.564c.145.249,1.243,0,2.549-.083s2.4.124,2.549-.145c.062-.124-.166-.352-.622-.559a4.48,4.48,0,0,0-1.948-.311,4.8,4.8,0,0,0-1.927.477C717.727,346.191,717.5,346.44,717.561,346.564Z" transform="translate(-676.815 -326.589)" fill="#263238"/>
      <path id="Path_14020" data-name="Path 14020" d="M847.5,383.4c.145-.083,5.615-2.113,5.822,3.585s-5.532,4.766-5.553,4.6S847.5,383.4,847.5,383.4Z" transform="translate(-779.838 -356.338)" fill="#ffbe9d"/>
      <path id="Path_14021" data-name="Path 14021" d="M856.8,396.381c.083.041.186.1.269.145a.934.934,0,0,0,.746,0,2.461,2.461,0,0,0,1.057-2.238,3.275,3.275,0,0,0-.331-1.409,1.141,1.141,0,0,0-.808-.725.493.493,0,0,0-.58.29c-.062.166,0,.269-.062.29s-.124-.083-.1-.331a.56.56,0,0,1,.207-.352.731.731,0,0,1,.539-.166,1.376,1.376,0,0,1,1.077.85,3.33,3.33,0,0,1,.414,1.6,2.593,2.593,0,0,1-1.347,2.507,1.081,1.081,0,0,1-.912-.1A.8.8,0,0,1,856.8,396.381Z" transform="translate(-787.211 -363.393)" fill="#eb996e"/>
      <path id="Path_14022" data-name="Path 14022" d="M768.19,420.988c-.062-.145,1.057-.477,1.844-1.533a6.476,6.476,0,0,0,.808-1.492c.166-.414.29-.663.352-.663s.041.29-.042.746a4.14,4.14,0,0,1-.746,1.658,3.355,3.355,0,0,1-1.45,1.119C768.5,421.009,768.211,421.03,768.19,420.988Z" transform="translate(-716.96 -383.546)" fill="#263238"/>
      <path id="Path_14023" data-name="Path 14023" d="M656.637,267.345a1.511,1.511,0,0,1,.622-.808,4.106,4.106,0,0,1,2.113-.332,12.047,12.047,0,0,0,6.257-1.906,29.44,29.44,0,0,1,2.9-3.522c2.528-2.59,4.6-4.351,6.734-5.222a19.366,19.366,0,0,1,10.3-.808c2.9.767,5.491,3.108,5.885,6.071,1.6-1.368,4.061-1.368,6.03-.58h.041c2.2.808,3.44,3.108,4.1,5.346s.932,4.641,2.113,6.651c.249.414.539.932.332,1.367a.92.92,0,0,1-.974.414,3.1,3.1,0,0,1-1.036-.456c.249.58.5,1.16.746,1.761a5.244,5.244,0,0,1-2.4-.145,57.527,57.527,0,0,1-1.554,5.905,3.328,3.328,0,0,0-2.321.58c-.808.7-1.119,1.989-2.4,1.513-.642-.249-1.243-1.6-1.471-2.279a32.392,32.392,0,0,1-1.409-13.717,10.2,10.2,0,0,0-3.212-2.321l.1.083c-2.321-.808-4.952-1.6-7.148-.518-1.7.85-2.714,2.611-4,4.02a13.061,13.061,0,0,1-9.3,4.289c-.124,2.341.062,5.615-.042,8.019L665.712,277h0c-.166-.29-.29-.559-.414-.808l-.041-.083h0a11.312,11.312,0,0,0-.663-1.326h0a1.456,1.456,0,0,1-2.134-1.968,3.243,3.243,0,0,1,.7-.7,2.329,2.329,0,0,1-2.2.58,1.828,1.828,0,0,1-1.285-1.8,1.564,1.564,0,0,1,.932-1.243,5.124,5.124,0,0,1-2.963-.663C657.01,268.629,656.429,268.07,656.637,267.345Z" transform="translate(-628.488 -254.393)" fill="#263238"/>
      <path id="Path_14024" data-name="Path 14024" d="M812.2,290a7.439,7.439,0,0,1,.808.808,5.933,5.933,0,0,1,1.285,2.756,10.437,10.437,0,0,1,.207,2.113c0,.808-.062,1.6-.1,2.445a20.1,20.1,0,0,0-.062,2.735,8.439,8.439,0,0,0,.187,1.43,3.061,3.061,0,0,0,.58,1.388,1.259,1.259,0,0,0,1.181.394,1.946,1.946,0,0,0,1.057-.6,4.34,4.34,0,0,0,.808-2.113h-.166A7.354,7.354,0,0,0,819,303.1a2.417,2.417,0,0,0,1.6.87,1.679,1.679,0,0,0,.849-.145,1.309,1.309,0,0,0,.58-.58,1.291,1.291,0,0,0,.166-.725,1.006,1.006,0,0,0-.269-.642l-.083.083a5.707,5.707,0,0,0,1.782,1.347c.186.083.373.145.559.207l.207.041-.186-.083c-.124-.062-.311-.124-.539-.249a5.238,5.238,0,0,1-1.72-1.368l-.083.083a1.093,1.093,0,0,1,.042,1.243,1.2,1.2,0,0,1-.518.5,1.342,1.342,0,0,1-.808.124,2.24,2.24,0,0,1-1.492-.808,6.334,6.334,0,0,1-.974-1.7l-.124-.269-.041.29a3.985,3.985,0,0,1-.808,2.01,1.852,1.852,0,0,1-.932.539,1.006,1.006,0,0,1-.995-.332,2.7,2.7,0,0,1-.539-1.305,7.959,7.959,0,0,1-.186-1.409,23.377,23.377,0,0,1,.041-2.694c.062-.85.1-1.678.1-2.466a9.246,9.246,0,0,0-.249-2.134,5.814,5.814,0,0,0-1.347-2.776A5.619,5.619,0,0,0,812.2,290Z" transform="translate(-751.852 -282.622)" fill="#455a64"/>
      <path id="Path_14025" data-name="Path 14025" d="M688.2,280.461l.062.062a.745.745,0,0,0,.207.145,2.05,2.05,0,0,0,.352.228,4.066,4.066,0,0,0,.518.269,7.49,7.49,0,0,0,3.543.642,9.49,9.49,0,0,0,5.014-1.844,16.471,16.471,0,0,0,4.31-4.952c.6-1.015,1.1-2.031,1.6-2.984a11.239,11.239,0,0,1,1.865-2.528,5.527,5.527,0,0,1,2.4-1.45,3.712,3.712,0,0,1,1.264-.145,4.431,4.431,0,0,1,1.16.228,4.868,4.868,0,0,1,2.673,2.258,5.161,5.161,0,0,1,.414,1.243v-.083a.526.526,0,0,0-.041-.249,3.527,3.527,0,0,0-.311-.932,4.2,4.2,0,0,0-.912-1.243,4.862,4.862,0,0,0-1.761-1.1,4.772,4.772,0,0,0-1.2-.249,3.955,3.955,0,0,0-1.305.145,5.973,5.973,0,0,0-2.486,1.471,11.65,11.65,0,0,0-1.906,2.569c-.559.953-1.036,1.989-1.637,2.984a16.116,16.116,0,0,1-4.248,4.911,9.416,9.416,0,0,1-4.931,1.865,7.6,7.6,0,0,1-3.522-.559C688.946,280.917,688.573,280.71,688.2,280.461Z" transform="translate(-653.545 -265.003)" fill="#455a64"/>
      <path id="Path_14026" data-name="Path 14026" d="M684.5,311.4a1.473,1.473,0,0,0,.29.207c.29.166.58.311.891.456a8.594,8.594,0,0,0,1.409.456,9.076,9.076,0,0,0,3.585.1,8.3,8.3,0,0,0,1.409-.373,5.048,5.048,0,0,0,.912-.394,1.237,1.237,0,0,0,.311-.186s-.477.207-1.264.456a8.146,8.146,0,0,1-1.409.311,9.751,9.751,0,0,1-4.89-.518C684.977,311.623,684.521,311.375,684.5,311.4Z" transform="translate(-650.612 -299.584)" fill="#455a64"/>
      <path id="Path_14027" data-name="Path 14027" d="M717.215,363.651c.166.166,1.14-.6,2.528-.642s2.4.642,2.59.456-.1-.394-.559-.7a3.393,3.393,0,0,0-2.072-.58,3.3,3.3,0,0,0-1.989.725C717.277,363.258,717.132,363.568,717.215,363.651Z" transform="translate(-676.531 -339.842)" fill="#263238"/>
      <path id="Path_14028" data-name="Path 14028" d="M718.7,381.3a1.139,1.139,0,0,0,1.16,1.057,1.105,1.105,0,0,0,1.1-1.1h0a1.144,1.144,0,0,0-1.181-1.057,1.1,1.1,0,0,0-1.077,1.1Z" transform="translate(-677.726 -354.13)" fill="#263238"/>
      <path id="Path_14029" data-name="Path 14029" d="M718.31,953.463h-55.9a4.338,4.338,0,0,0-.021-.518c-.062-2.4-.124-4.268-.145-5.491-.021-1.015-.041-1.6-.041-1.658l54.535-4.5,1.119,8.6.414,3.191Z" transform="translate(-632.933 -798.972)" fill="#263238"/>
      <path id="Path_14030" data-name="Path 14030" d="M794.708,977.326h-.394c0-.187-.021-.373-.021-.559-.041-.932-.062-1.761-.083-2.507,0-.684-.021-1.264-.041-1.72v-.373a3.175,3.175,0,0,1,.041-.767,2.346,2.346,0,0,1,.124.746,2.287,2.287,0,0,0,.041.373c.042.456.083,1.036.145,1.7.062.725.1,1.575.166,2.507A5.443,5.443,0,0,0,794.708,977.326Z" transform="translate(-737.551 -822.835)" fill="#455a64"/>
      <path id="Path_14031" data-name="Path 14031" d="M802.794,972.553a.632.632,0,0,1,.269-.186,1.319,1.319,0,0,1,.932.083,1.157,1.157,0,0,1,.7,1.16,1.409,1.409,0,0,1-1.119,1.243,1.524,1.524,0,0,1-1.554-.7,1.223,1.223,0,0,1,0-1.347,1.38,1.38,0,0,1,.7-.58c.207-.062.331-.062.331,0a2.2,2.2,0,0,0-.808.746.993.993,0,0,0,.062,1.015,1.177,1.177,0,0,0,1.14.5,1.088,1.088,0,0,0,.808-.891.882.882,0,0,0-.456-.87A1.887,1.887,0,0,0,802.794,972.553Z" transform="translate(-743.627 -823.45)" fill="#455a64"/>
      <path id="Path_14032" data-name="Path 14032" d="M851.762,970.456c-.1,0-.269-.6-.352-1.367s-.062-1.388.062-1.388.269.6.352,1.347A2.65,2.65,0,0,1,851.762,970.456Z" transform="translate(-782.898 -819.902)" fill="#455a64"/>
      <path id="Path_14033" data-name="Path 14033" d="M859.507,969.2c-.1,0-.207-.642-.207-1.45s.083-1.45.207-1.45.207.642.207,1.45S859.631,969.2,859.507,969.2Z" transform="translate(-789.193 -818.792)" fill="#455a64"/>
      <path id="Path_14034" data-name="Path 14034" d="M736,972.474a3.614,3.614,0,0,1-.394-1.6,3.9,3.9,0,0,1,0-1.678,3.561,3.561,0,0,1,.394,1.6A4.247,4.247,0,0,1,736,972.474Z" transform="translate(-691.065 -821.091)" fill="#455a64"/>
      <path id="Path_14035" data-name="Path 14035" d="M744.092,972.539a2.545,2.545,0,0,1-.518-1.7,2.468,2.468,0,0,1,.373-1.74,6.829,6.829,0,0,1,.041,1.72C744.03,971.752,744.216,972.5,744.092,972.539Z" transform="translate(-697.42 -821.012)" fill="#455a64"/>
      <path id="Path_14036" data-name="Path 14036" d="M706.627,976.6a3.168,3.168,0,0,1-.062.622,14.55,14.55,0,0,1-.414,1.637,17.254,17.254,0,0,1-.808,2.031c-.083.186-.186.373-.269.559H704.7c.1-.187.207-.373.29-.559a19.223,19.223,0,0,0,.932-2.114C706.378,977.448,706.565,976.578,706.627,976.6Z" transform="translate(-666.627 -826.956)" fill="#455a64"/>
      <path id="Path_14037" data-name="Path 14037" d="M877.868,985.492h-.414c-.1-.166-.207-.311-.311-.477a9.58,9.58,0,0,1-.6-1.119,11.206,11.206,0,0,1-.559-1.6,1.917,1.917,0,0,1-.083-.6c.062,0,.249.808.87,2.093a12.211,12.211,0,0,0,.725,1.243C877.62,985.181,877.744,985.326,877.868,985.492Z" transform="translate(-802.354 -831.001)" fill="#455a64"/>
      <path id="Path_14038" data-name="Path 14038" d="M712.8,517.345l9.573-3.75,17.633-.995,8.309,3.149-11.375,6.32-9.8-.373Z" transform="translate(-673.048 -459.099)" fill="#ffbe9d"/>
      <path id="Path_14039" data-name="Path 14039" d="M629.363,607.6c.87.145,58.679,2.611,58.679,2.611l-2.031-51.987-.166-10.194-3.294-30.935s-8.64-2.963-13.054-4.393c0,0-4.641,4.807-13.468,4.7-8.62-.124-10.422-2.072-10.422-2.072l-12.059,4.621s-8.578,3.087-10.049,6.879-1.7,24.781-1.7,24.781h10.132l-.249,37.276Z" transform="translate(-600.903 -459.179)" fill="#78aa41"/>
      <path id="Path_14040" data-name="Path 14040" d="M760.317,486.2l.352,5.491-8.081,8.91-15.768-4.724-.021-1.554.249-4.931C737.028,489.391,752.817,489.453,760.317,486.2Z" transform="translate(-692.075 -438.169)" fill="#78aa41"/>
      <path id="Path_14041" data-name="Path 14041" d="M639.5,607a1.753,1.753,0,0,1,.1.352c.062.249.145.58.228.995a33.092,33.092,0,0,0,1.16,3.688c.7,1.844,1.513,3.647,2.4,5.429a62.2,62.2,0,0,1,2.694,7.086v.062c0,3.108-.041,6.527-.062,10.091-.083,7.936-.166,15.146-.207,20.389-.042,2.59-.083,4.683-.1,6.174a15.154,15.154,0,0,1-.062,1.678,2.719,2.719,0,0,1,0,.58,2.719,2.719,0,0,1,0-.58v-7.874c0-5.242.062-12.432.1-20.389,0-3.564.062-6.962.083-10.07v.041c-.87-2.59-1.7-5.014-2.611-7.086a57.723,57.723,0,0,1-2.321-5.47,33.344,33.344,0,0,1-1.077-3.73c-.083-.435-.145-.808-.166-1.015A.907.907,0,0,1,639.5,607Z" transform="translate(-614.936 -533.94)" fill="#263238"/>
      <path id="Path_14042" data-name="Path 14042" d="M930.384,577.5a9.721,9.721,0,0,1,0,1.1c0,.808-.062,1.8-.1,3.025-.1,2.611-.249,6.092-.394,9.946s-.332,7.335-.456,9.946c-.062,1.223-.124,2.238-.166,3a4.823,4.823,0,0,1-.124,1.1,9.691,9.691,0,0,1,0-1.1c0-.808.041-1.8.062-3.025.062-2.549.186-6.071.352-9.966s.332-7.4.5-9.946c.083-1.285.166-2.3.228-3A6.527,6.527,0,0,1,930.384,577.5Z" transform="translate(-844.55 -510.552)" fill="#263238"/>
      <g id="Group_591" data-name="Group 591" transform="translate(24.568 74.925)" opacity="0.3">
        <path id="Path_14043" data-name="Path 14043" d="M639.534,616a21.662,21.662,0,0,0,5.677,15.478C644.031,626.111,641.109,621.139,639.534,616Z" transform="translate(-639.517 -616)"/>
      </g>
      <g id="Group_592" data-name="Group 592" transform="translate(49.988 102.815)" opacity="0.3">
        <path id="Path_14044" data-name="Path 14044" d="M762.2,783.2a10.817,10.817,0,0,0,6.941-3.854,33.386,33.386,0,0,0,4.662-6.734A26.646,26.646,0,0,0,776.538,762C773.161,771.013,768.209,778.162,762.2,783.2Z" transform="translate(-762.2 -759.638)"/>
        <path id="Path_14045" data-name="Path 14045" d="M817.3,762.784s18.3,12.846,19.083-12.183H823.454Z" transform="translate(-805.883 -750.6)"/>
      </g>
      <path id="Path_14046" data-name="Path 14046" d="M767.9,743a1.809,1.809,0,0,1-.041.331l-.207.932a12.281,12.281,0,0,1-.394,1.471c-.187.559-.352,1.222-.6,1.927a52.13,52.13,0,0,1-1.989,4.869,48.1,48.1,0,0,1-7.128,10.692,41.308,41.308,0,0,1-3.667,3.709c-.559.5-1.1.912-1.554,1.285a14.189,14.189,0,0,1-1.223.912l-.808.539a1.319,1.319,0,0,1-.29.166,2.487,2.487,0,0,1,.249-.228l.746-.6c.331-.249.725-.559,1.181-.953s.974-.808,1.513-1.326a47.617,47.617,0,0,0,3.647-3.73,49.2,49.2,0,0,0,7.045-10.609,51.526,51.526,0,0,0,2.051-4.807c.269-.684.456-1.326.663-1.885s.332-1.057.456-1.45.207-.663.269-.912A1.945,1.945,0,0,1,767.9,743Z" transform="translate(-702.54 -641.76)" fill="#263238"/>
      <path id="Path_14047" data-name="Path 14047" d="M725.812,664.5a3.863,3.863,0,0,1-.083.518c-.062.373-.145.891-.269,1.513s-.269,1.45-.5,2.4-.456,1.968-.808,3.108l-.518,1.8c-.187.622-.435,1.264-.663,1.906-.435,1.347-1.015,2.714-1.6,4.185a69.325,69.325,0,0,1-10.671,17.426c-1.036,1.181-1.989,2.321-2.984,3.315-.477.5-.932,1.015-1.409,1.45l-1.347,1.285c-.85.849-1.678,1.513-2.4,2.134s-1.347,1.119-1.885,1.513l-1.222.932a3.652,3.652,0,0,1-.456.331,3.18,3.18,0,0,1,.394-.352l1.181-.974c.518-.414,1.14-.932,1.844-1.6s1.513-1.326,2.362-2.176l1.326-1.305c.456-.456.912-.953,1.388-1.471.974-.995,1.927-2.134,2.942-3.336a71.239,71.239,0,0,0,10.609-17.343c.6-1.45,1.181-2.818,1.6-4.144.228-.663.477-1.285.663-1.906s.373-1.2.539-1.782c.373-1.14.6-2.176.849-3.087s.435-1.7.559-2.341.249-1.119.332-1.492C725.667,664.831,725.729,664.645,725.812,664.5Z" transform="translate(-662.107 -579.525)" fill="#263238"/>
      <path id="Path_14048" data-name="Path 14048" d="M535.533,648.313c1.678,2.549,8.454,12.867,10.464,15.913a.462.462,0,0,1-.124.642.585.585,0,0,1-.311.083L533.5,663.438a.444.444,0,0,1-.311-.187l-11.52-15.727a.487.487,0,0,1,.1-.663.42.42,0,0,1,.311-.083l12.411.912A1.361,1.361,0,0,1,535.533,648.313Z" transform="translate(-521.454 -565.472)" fill="#f6fcff"/>
      <path id="Path_14049" data-name="Path 14049" d="M535.028,648.1a.371.371,0,0,0-.1-.145,1.427,1.427,0,0,0-.373-.331,1.55,1.55,0,0,0-.808-.187l-1.14-.083-7.169-.559-2.362-.186-1.264-.1h-.332a.588.588,0,0,0-.352.145.539.539,0,0,0-.083.7l3.357,4.6,7.687,10.505c.186.249.331.456.518.7a.745.745,0,0,0,.207.145.88.88,0,0,0,.228.042l.435.062,1.678.207,3.294.414,6.237.787c.124,0,.249.042.373.042a.557.557,0,0,0,.559-.559.6.6,0,0,0-.145-.373c-.269-.414-.539-.808-.787-1.2-.518-.787-1.036-1.554-1.513-2.3-.974-1.492-1.885-2.859-2.735-4.144l-3.937-6.009-1.077-1.616-.29-.414a.873.873,0,0,0-.1-.145.517.517,0,0,0,.083.166l.269.435,1.057,1.637,3.916,6.009,2.714,4.144,1.513,2.3.787,1.2a.726.726,0,0,1,.124.29.436.436,0,0,1-.1.269.394.394,0,0,1-.269.1,2.567,2.567,0,0,1-.373-.041l-6.237-.787-3.294-.414-1.678-.207-.414-.062a.606.606,0,0,1-.187-.041.373.373,0,0,1-.145-.1l-.5-.684-7.687-10.526-3.4-4.558a.381.381,0,0,1,.124-.539.334.334,0,0,1,.187-.062h.311l1.264.083,2.383.166,7.169.5,1.14.062a1.738,1.738,0,0,1,.787.166A2.6,2.6,0,0,1,535.028,648.1Z" transform="translate(-520.949 -565.255)" fill="#263238"/>
      <path id="Path_14050" data-name="Path 14050" d="M521.9,650.3a1.038,1.038,0,0,0,.249.041l.725.083,2.714.249,9.262.746-.062-.041c.58.87,1.181,1.761,1.782,2.673,2.445,3.771,4.579,7.211,6.2,9.676.808,1.243,1.471,2.217,1.927,2.9l.539.746a1.331,1.331,0,0,0,.207.269,2.07,2.07,0,0,0-.166-.29l-.518-.787-1.885-2.922c-1.575-2.486-3.688-5.947-6.154-9.7-.6-.932-1.2-1.823-1.782-2.673l-.021-.041h-.041l-9.262-.684-2.735-.187-.725-.041A1.008,1.008,0,0,0,521.9,650.3Z" transform="translate(-521.703 -568.268)" fill="#263238"/>
      <path id="Path_14051" data-name="Path 14051" d="M539.07,683.859s1.015-2.4-1.554-2.735a87.114,87.114,0,0,0-9.3,0s-3.688.394-2.9,3.025c0,0-2.176,1.948-1.015,4.04s1.6,1.471,1.6,1.471-.311,2.569,1.6,2.963c0,0,2.113,2.486,4.04,2.321s10.194-4.123,10.733-4.89,1.326-1.222.849-2.093c0,0,1.015-2.279-1.16-2.631C542.033,685.372,541.888,683.466,539.07,683.859Z" transform="translate(-523.333 -592.607)" fill="#ffbe9d"/>
      <path id="Path_14052" data-name="Path 14052" d="M540.5,695.036a6.167,6.167,0,0,0,1.741.124h4.165a23.772,23.772,0,0,0,4.206-.249c1.119-.249,1.554-.912,1.492-.912a4.616,4.616,0,0,1-1.554.622,39.522,39.522,0,0,1-4.144.1c-1.6,0-3.108.062-4.185.124A7.954,7.954,0,0,0,540.5,695.036Z" transform="translate(-536.449 -602.913)" fill="#eb996e"/>
      <path id="Path_14053" data-name="Path 14053" d="M549.4,702.537a1.28,1.28,0,0,0,.559.187,5.863,5.863,0,0,0,1.6.1,11.323,11.323,0,0,0,2.341-.414c.87-.249,1.782-.58,2.735-.87a13.881,13.881,0,0,1,2.756-.58,4.341,4.341,0,0,0,2.341-.477,1.32,1.32,0,0,0,.559-.808.989.989,0,0,0-.1-.725c-.207-.373-.477-.394-.477-.373a.814.814,0,0,1,.311.435.979.979,0,0,1-.477,1.2,4,4,0,0,1-2.2.331,11.278,11.278,0,0,0-2.859.559l-2.735.912a13.7,13.7,0,0,1-2.258.5A10.069,10.069,0,0,1,549.4,702.537Z" transform="translate(-543.505 -606.539)" fill="#eb996e"/>
      <path id="Path_14054" data-name="Path 14054" d="M562.7,719.3a7.012,7.012,0,0,0,1.72-.331c1.057-.269,2.507-.684,4.082-1.2s2.984-1.036,4-1.45a7.469,7.469,0,0,0,1.6-.746c0-.1-2.59.808-5.719,1.8A51.184,51.184,0,0,0,562.7,719.3Z" transform="translate(-554.047 -620.007)" fill="#eb996e"/>
      <path id="Path_14055" data-name="Path 14055" d="M559.5,734.463a3.714,3.714,0,0,0,1.43-.166,18.213,18.213,0,0,0,3.294-1.14c1.243-.559,2.321-1.14,3.087-1.554a4.722,4.722,0,0,0,1.243-.746,32.624,32.624,0,0,0-4.5,1.906C561.634,733.862,559.479,734.359,559.5,734.463Z" transform="translate(-551.512 -632.125)" fill="#eb996e"/>
      <path id="Path_14056" data-name="Path 14056" d="M797.788,580.666s-5.242,20.99-11.79,28.739c-6.34,7.5-16.286,4.061-19.726-5.657S756.7,571.86,756.7,571.86l7.521-5.76,13.012,25.216,5.864-17.177Z" transform="translate(-707.852 -501.514)" fill="#ffbe9d"/>
      <path id="Path_14057" data-name="Path 14057" d="M720.873,500.554l-5.512-8.019a12.788,12.788,0,0,1-2.341-.725c-.622-.373-1.243-3.543-1.223-4.165s-1.077-2.072-.622-2.486,1.906-.435,1.844-1.036c0-.124-1.1-1.45-.249-2.4a4.7,4.7,0,0,1,1.554-.663l-.083-3.046s1.658-3.605,3.336-2.3c0,0,6.361,4.89,7,5.677s3.046,10.94,3.481,12.805Z" transform="translate(-671.672 -429.627)" fill="#ffbe9d"/>
      <path id="Path_14058" data-name="Path 14058" d="M727.3,493.4a2.252,2.252,0,0,0-.083-.539c-.083-.394-.186-.891-.331-1.513-.29-1.326-.746-3.212-1.347-5.615-.311-1.181-.642-2.486-1.057-3.854a10.2,10.2,0,0,0-.352-1.036,2.525,2.525,0,0,0-.746-.932c-.58-.518-1.181-1.015-1.8-1.533-1.264-1.015-2.59-2.072-4-3.149a4.872,4.872,0,0,0-1.16-.808,1.574,1.574,0,0,0-1.43.352,6.578,6.578,0,0,0-1.7,2.279h0v.974c0,.7.041,1.43.062,2.113l.145-.186a10.128,10.128,0,0,0-1.119.373,1.621,1.621,0,0,0-.539.352,1.492,1.492,0,0,0-.311.559,1.908,1.908,0,0,0,.1,1.223,2.383,2.383,0,0,0,.249.518l.145.228v.062h0v.062c0,.062-.166.166-.311.228a4.661,4.661,0,0,1-.5.166,5.531,5.531,0,0,0-.539.186.938.938,0,0,0-.518.373.861.861,0,0,0,0,.642,2.6,2.6,0,0,0,.187.518c.145.332.29.642.394.932a1.52,1.52,0,0,1,.1.414,2.213,2.213,0,0,0,.062.518c.041.331.1.663.166.974a11.632,11.632,0,0,0,.518,1.844,2.354,2.354,0,0,0,.5.85,3.422,3.422,0,0,0,.85.373c.559.166,1.1.311,1.6.435l-.083-.062,4.082,5.822,1.14,1.6a5.3,5.3,0,0,0,.414.539,3.333,3.333,0,0,0-.352-.58l-1.077-1.6-4.02-5.885v-.041h-.062a15.365,15.365,0,0,1-1.6-.456,2.981,2.981,0,0,1-.746-.311,2.235,2.235,0,0,1-.394-.725,12.853,12.853,0,0,1-.5-1.8c-.062-.311-.124-.642-.166-.953,0-.166-.042-.332-.042-.477a1.775,1.775,0,0,0-.1-.559c-.124-.332-.269-.642-.414-.953a4.025,4.025,0,0,1-.166-.456.576.576,0,0,1,0-.373.7.7,0,0,1,.332-.207l.5-.166a2.2,2.2,0,0,0,.518-.186.872.872,0,0,0,.518-.414.737.737,0,0,0,.041-.207.385.385,0,0,0-.041-.145v-.062l-.145-.228a3.368,3.368,0,0,1-.228-.477,1.434,1.434,0,0,1-.083-.974,1.168,1.168,0,0,1,.228-.414,1.229,1.229,0,0,1,.414-.249,5.748,5.748,0,0,1,1.057-.352l.145-.041v-.145c0-.7-.041-1.409-.062-2.113v-.85a5.917,5.917,0,0,1,1.554-2.134,1.241,1.241,0,0,1,1.1-.29,4.359,4.359,0,0,1,1.036.7c1.388,1.077,2.735,2.113,4,3.129.622.5,1.243.995,1.823,1.492a1.943,1.943,0,0,1,.663.808,8.4,8.4,0,0,1,.352,1.015c.435,1.368.808,2.652,1.1,3.833.6,2.321,1.1,4.206,1.471,5.574.166.622.29,1.14.394,1.513A1.43,1.43,0,0,1,727.3,493.4Z" transform="translate(-670.908 -428.793)" fill="#eb996e"/>
      <path id="Path_14059" data-name="Path 14059" d="M726.7,501.839c0,.083.642,0,1.658.124a10.523,10.523,0,0,1,1.74.394,8.1,8.1,0,0,0,2.238,0,4.213,4.213,0,0,1,3.543,1.16,4.361,4.361,0,0,1,.85,1.347,2.112,2.112,0,0,0-.642-1.554,4.08,4.08,0,0,0-1.513-1.057,4.677,4.677,0,0,0-2.258-.29,9.367,9.367,0,0,1-2.155,0,8.68,8.68,0,0,0-1.782-.311A4.555,4.555,0,0,0,726.7,501.839Z" transform="translate(-684.068 -450.41)" fill="#eb996e"/>
      <path id="Path_14060" data-name="Path 14060" d="M736.963,495.43c.1.041.352-.332.311-.85s-.331-.87-.414-.808,0,.394,0,.808S736.859,495.389,736.963,495.43Z" transform="translate(-692.093 -444.167)" fill="#eb996e"/>
      <path id="Path_14061" data-name="Path 14061" d="M719.4,514.444a13.432,13.432,0,0,0,4.807-.373,4.576,4.576,0,0,1,1.761-.207,1.95,1.95,0,0,1,1.14.746,13.537,13.537,0,0,1,.622,1.223,2.254,2.254,0,0,0-.394-1.368,2.1,2.1,0,0,0-1.305-.953,4.591,4.591,0,0,0-1.906.207C721.534,514.237,719.379,514.32,719.4,514.444Z" transform="translate(-678.28 -459.804)" fill="#eb996e"/>
      <path id="Path_14062" data-name="Path 14062" d="M715.3,528.056a2.836,2.836,0,0,0,1.181,0c.725-.083,1.7-.332,2.756-.539a6.072,6.072,0,0,1,1.492-.145A1.585,1.585,0,0,1,722.3,528.7a.427.427,0,0,0,.062-.311,1.36,1.36,0,0,0-.394-.808,1.944,1.944,0,0,0-1.222-.539,5.148,5.148,0,0,0-1.6.124c-1.077.207-2.031.5-2.735.642A4.883,4.883,0,0,0,715.3,528.056Z" transform="translate(-675.03 -470.535)" fill="#eb996e"/>
      <path id="Path_14063" data-name="Path 14063" d="M724.481,543.1c-.062.062.456.622,1.45.622l-.186-.166a4.08,4.08,0,0,0,.062.5,5.273,5.273,0,0,0,.456,2.031,5.81,5.81,0,0,0-.062-2.072l-.062-.518v-.166h-.166A6.625,6.625,0,0,1,724.481,543.1Z" transform="translate(-682.305 -483.28)" fill="#eb996e"/>
      <path id="Path_14064" data-name="Path 14064" d="M867.908,533.8s9.614,1.968,9.593,16.2-4.952,20.368-4.952,20.368L855.6,561.13l4.413-11.085Z" transform="translate(-786.26 -475.907)" fill="#78aa41"/>
      <path id="Path_14065" data-name="Path 14065" d="M836.2,492.9c.166.808.311,1.616.394,2.424a24.239,24.239,0,0,1,.166,2.445,19.686,19.686,0,0,1-.394-2.424A19.132,19.132,0,0,1,836.2,492.9Z" transform="translate(-770.88 -443.481)" fill="#263238"/>
      <path id="Path_14066" data-name="Path 14066" d="M530.354,653.9l3.087.228a.316.316,0,0,1,.249.145l1.927,2.528a.294.294,0,0,1-.021.414.372.372,0,0,1-.187.083l-3.17-.1a.334.334,0,0,1-.269-.124l-1.823-2.652a.3.3,0,0,1,.041-.414C530.208,653.921,530.271,653.9,530.354,653.9Z" transform="translate(-528.188 -571.122)" fill="#263238"/>
      <path id="Path_14067" data-name="Path 14067" d="M541.29,655.9a.458.458,0,0,1,.518-.331h.021a1.026,1.026,0,0,1,.58.331.6.6,0,0,1,.1.746c-.207.269-.684.166-.932-.062A.782.782,0,0,1,541.29,655.9Z" transform="translate(-537.073 -572.443)" fill="#a2a4a5"/>
      <path id="Path_14068" data-name="Path 14068" d="M544.49,663.4a.458.458,0,0,1,.518-.332h.021a1.026,1.026,0,0,1,.58.332.6.6,0,0,1,.1.746c-.207.269-.684.166-.932-.062A.76.76,0,0,1,544.49,663.4Z" transform="translate(-539.61 -578.389)" fill="#a2a4a5"/>
      <path id="Path_14069" data-name="Path 14069" d="M536.09,660.2a.458.458,0,0,1,.518-.331h.021a1.026,1.026,0,0,1,.58.331.6.6,0,0,1,.1.746.68.68,0,0,1-.932-.062A.76.76,0,0,1,536.09,660.2Z" transform="translate(-532.951 -575.852)" fill="#a2a4a5"/>
      <path id="Path_14070" data-name="Path 14070" d="M680.4,675.969c1.181-.041,2.362-.062,3.543-.1l3.543-.062c2.362-.041,4.724-.062,7.086-.083s4.724-.021,7.086-.021l3.543.021c1.181.021,2.362.021,3.543.041-1.181.041-2.362.062-3.543.1l-3.543.062c-2.362.041-4.724.062-7.086.083s-4.724.021-7.086.021l-3.543-.021C682.762,675.99,681.581,675.99,680.4,675.969Z" transform="translate(-647.362 -588.405)" fill="#fff"/>
      <path id="Path_14071" data-name="Path 14071" d="M684.5,693.369c1.181-.041,2.362-.062,3.543-.1l3.543-.062c2.362-.042,4.724-.062,7.086-.083s4.724-.021,7.086-.021l3.543.021c1.181.021,2.362.021,3.543.041-1.181.042-2.362.062-3.543.1l-3.543.062c-2.362.041-4.724.062-7.086.083s-4.724.021-7.086.021l-3.543-.021C686.862,693.411,685.681,693.39,684.5,693.369Z" transform="translate(-650.612 -602.199)" fill="#fff"/>
    </g>
    <path id="Path_14072" data-name="Path 14072" d="M753.7,573.311l8.91-7.211,11.458,22.357.746-1.74,16.949,9.241L783.04,611.5a8.173,8.173,0,0,1-5.8,4.04l-2.217.352a8.323,8.323,0,0,1-3.709-.269h0a8.132,8.132,0,0,1-5.242-5.159Z" transform="translate(-533.492 -420.698)" fill="#78aa41"/>
    <path id="Path_14073" data-name="Path 14073" d="M796.3,567.6l2.176,3.916,2.134,3.937c1.409,2.631,2.8,5.263,4.185,7.915s2.735,5.3,4.082,7.977l2.01,4c.663,1.347,1.326,2.673,1.968,4.02-.746-1.305-1.45-2.611-2.176-3.916l-2.134-3.937c-1.409-2.631-2.8-5.263-4.185-7.915s-2.735-5.3-4.082-7.977l-2.01-4C797.605,570.273,796.942,568.947,796.3,567.6Z" transform="translate(-567.277 -421.883)" fill="#263238"/>
    <path id="Path_14074" data-name="Path 14074" d="M783.414,612.284a8.584,8.584,0,0,1-3.149,4.289,10.064,10.064,0,0,1-12.639-.663,10.587,10.587,0,0,1-.953-.974,8.682,8.682,0,0,1-.829-1.119v-.042l-3.212-9.531-1.616-4.766-1.6-4.766-3.17-9.531-3.129-9.552-.021-.083.062-.062,4.1-3.253L761.388,569l-4.04,3.357-4.04,3.336.042-.145,3.274,9.511,3.212,9.531,1.616,4.766,1.6,4.766,3.17,9.531-.021-.041a8.668,8.668,0,0,0,1.678,2.01,9.4,9.4,0,0,0,7.314,2.486,10.024,10.024,0,0,0,4.994-1.658,8.946,8.946,0,0,0,1.927-1.823A7.232,7.232,0,0,0,783.414,612.284Z" transform="translate(-533.028 -422.997)" fill="#263238"/>
    <path id="Path_14075" data-name="Path 14075" d="M852,594.007c.518-1.844,1.1-3.647,1.74-5.449.622-1.8,1.285-3.605,1.989-5.387.352-.891.725-1.761,1.1-2.652.373-.87.767-1.761,1.181-2.611s.849-1.72,1.347-2.549a12,12,0,0,1,.787-1.2,4.729,4.729,0,0,1,.974-1.057l-.249.249-.207.29a2.5,2.5,0,0,0-.207.29,1.545,1.545,0,0,0-.186.311q-.373.622-.684,1.243c-.435.849-.829,1.72-1.2,2.59q-1.15,2.611-2.176,5.284c-.7,1.761-1.388,3.543-2.072,5.325S852.7,592.245,852,594.007Z" transform="translate(-611.435 -426.241)" fill="#263238"/>
    <path id="Path_14076" data-name="Path 14076" d="M805.37,500.7a26.672,26.672,0,0,1,.373,4.973A25.017,25.017,0,0,1,805.37,500.7Z" transform="translate(-574.466 -368.836)" fill="#263238"/>
    <path id="Path_14077" data-name="Path 14077" d="M777.424,501.6a2.029,2.029,0,0,1,.249,1.388A2.291,2.291,0,0,1,777.424,501.6Z" transform="translate(-552.301 -369.549)" fill="#263238"/>
    <path id="Path_14078" data-name="Path 14078" d="M875.7,634.3c1.326.7,2.631,1.471,3.9,2.279s2.507,1.658,3.73,2.549c.6.456,1.2.912,1.782,1.388s1.16.974,1.7,1.492a19.572,19.572,0,0,1,1.575,1.637,9.678,9.678,0,0,1,1.264,1.885,10.339,10.339,0,0,0-1.43-1.72,19.147,19.147,0,0,0-1.658-1.513c-1.14-.974-2.321-1.886-3.522-2.776s-2.424-1.761-3.647-2.631Z" transform="translate(-630.213 -474.763)" fill="#fff"/>
    <path id="Path_14079" data-name="Path 14079" d="M884,618.8c1.326.7,2.631,1.471,3.9,2.279s2.507,1.658,3.73,2.549c.6.456,1.2.912,1.782,1.388s1.16.974,1.7,1.492a19.582,19.582,0,0,1,1.575,1.637,8.341,8.341,0,0,1,1.264,1.885,10.331,10.331,0,0,0-1.43-1.72,19.12,19.12,0,0,0-1.658-1.513c-1.14-.974-2.321-1.885-3.522-2.776s-2.424-1.761-3.647-2.631Z" transform="translate(-636.794 -462.473)" fill="#fff"/>
    <path id="Path_14080" data-name="Path 14080" d="M589.884,997.939H482.492c.041.062.083.145.124.207l-3.44-.062-3.688-.062-3.688-.083,3.688-.083,3.688-.062,3.191-.062,4.185-.062q7.4-.093,14.753-.166c3.377-.041,6.755-.062,10.111-.062,1.554,0,3.087-.021,4.641-.021h4.6l10.153-.021,7.894.021h.373l6.485.021,11.168.062h.373c1.077,0,2.134.021,3.212.021,2.321.021,4.641.041,6.962.083,2.59.021,5.2.062,7.791.1l7.376.124,2.8.041.891.021Z" transform="translate(-310.002 -762.646)" fill="#f6fcff"/>
  </g>
</svg>
